<svg xmlns="http://www.w3.org/2000/svg" xmlns:xlink="http://www.w3.org/1999/xlink" width="480" zoomAndPan="magnify" viewBox="0 0 360 367.91998" height="480" preserveAspectRatio="xMidYMid meet" version="1.0"><defs><clipPath id="0ac20e9632"><path d="M 15 13 L 347.964844 13 L 347.964844 347 L 15 347 Z M 15 13 " clip-rule="nonzero"/></clipPath></defs><g clip-path="url(#0ac20e9632)"><path fill="#b99887" d="M 347.902344 180.371094 C 347.902344 184.480469 347.753906 188.589844 347.449219 192.6875 C 347.144531 196.789062 346.691406 200.875 346.082031 204.941406 C 345.476562 209.007812 344.71875 213.046875 343.8125 217.058594 C 342.90625 221.066406 341.855469 225.039062 340.652344 228.972656 C 339.453125 232.90625 338.109375 236.789062 336.621094 240.621094 C 335.132812 244.453125 333.503906 248.226562 331.734375 251.9375 C 329.96875 255.652344 328.066406 259.292969 326.027344 262.863281 C 323.988281 266.4375 321.820312 269.925781 319.523438 273.335938 C 317.226562 276.75 314.808594 280.070312 312.265625 283.300781 C 309.722656 286.53125 307.0625 289.664062 304.285156 292.699219 C 301.511719 295.730469 298.628906 298.660156 295.636719 301.480469 C 292.640625 304.300781 289.550781 307.003906 286.355469 309.59375 C 283.164062 312.1875 279.878906 314.65625 276.503906 317.003906 C 273.128906 319.351562 269.667969 321.570312 266.128906 323.660156 C 262.589844 325.75 258.976562 327.707031 255.289062 329.53125 C 251.605469 331.355469 247.855469 333.039062 244.046875 334.585938 C 240.234375 336.128906 236.371094 337.53125 232.457031 338.789062 C 228.542969 340.050781 224.585938 341.160156 220.589844 342.128906 C 216.59375 343.09375 212.566406 343.910156 208.507812 344.574219 C 204.453125 345.242188 200.375 345.757812 196.277344 346.125 C 192.183594 346.488281 188.078125 346.699219 183.96875 346.761719 C 179.855469 346.820312 175.75 346.730469 171.644531 346.488281 C 167.539062 346.242188 163.449219 345.847656 159.375 345.300781 C 155.300781 344.753906 151.25 344.054688 147.226562 343.207031 C 143.203125 342.359375 139.214844 341.363281 135.265625 340.222656 C 131.316406 339.078125 127.414062 337.789062 123.558594 336.359375 C 119.707031 334.925781 115.910156 333.351562 112.171875 331.640625 C 108.433594 329.925781 104.765625 328.074219 101.164062 326.089844 C 97.5625 324.105469 94.042969 321.988281 90.597656 319.742188 C 87.152344 317.492188 83.796875 315.121094 80.53125 312.625 C 77.261719 310.132812 74.089844 307.519531 71.015625 304.785156 C 67.941406 302.054688 64.972656 299.214844 62.109375 296.265625 C 59.75 293.832031 57.460938 291.328125 55.253906 288.753906 C 53.042969 286.179688 50.914062 283.542969 48.867188 280.839844 C 46.820312 278.136719 44.855469 275.371094 42.976562 272.546875 C 41.097656 269.722656 39.304688 266.847656 37.601562 263.914062 C 35.898438 260.980469 34.289062 257.996094 32.765625 254.964844 C 31.246094 251.933594 29.820312 248.859375 28.488281 245.742188 C 27.15625 242.621094 25.917969 239.464844 24.777344 236.269531 C 23.640625 233.074219 22.597656 229.847656 21.65625 226.589844 C 20.714844 223.332031 19.871094 220.050781 19.128906 216.738281 C 18.390625 213.429688 17.75 210.101562 17.210938 206.753906 C 16.671875 203.402344 16.238281 200.042969 15.90625 196.667969 C 15.574219 193.292969 15.34375 189.910156 15.21875 186.519531 C 15.09375 183.128906 15.070312 179.738281 15.152344 176.347656 C 15.234375 172.957031 15.417969 169.574219 15.707031 166.195312 C 15.996094 162.816406 16.390625 159.449219 16.882812 156.09375 C 17.378906 152.738281 17.976562 149.398438 18.671875 146.082031 C 19.371094 142.761719 20.171875 139.46875 21.070312 136.199219 C 21.972656 132.925781 22.972656 129.6875 24.070312 126.480469 C 25.167969 123.269531 26.363281 120.097656 27.65625 116.960938 C 28.945312 113.824219 30.332031 110.734375 31.816406 107.679688 C 33.296875 104.628906 34.871094 101.628906 36.535156 98.671875 C 38.199219 95.71875 39.953125 92.816406 41.796875 89.96875 C 43.636719 87.121094 45.566406 84.332031 47.578125 81.601562 C 49.589844 78.871094 51.6875 76.207031 53.863281 73.605469 C 56.039062 71.003906 58.289062 68.472656 60.621094 66.007812 C 62.953125 63.542969 65.355469 61.152344 67.832031 58.835938 C 70.308594 56.519531 72.855469 54.28125 75.46875 52.117188 C 78.082031 49.957031 80.761719 47.878906 83.5 45.878906 C 86.242188 43.882812 89.042969 41.972656 91.898438 40.144531 C 94.757812 38.320312 97.667969 36.582031 100.632812 34.933594 C 103.597656 33.285156 106.609375 31.726562 109.667969 30.265625 C 112.726562 28.800781 115.828125 27.429688 118.972656 26.15625 C 122.113281 24.882812 125.292969 23.703125 128.507812 22.625 C 131.722656 21.542969 134.96875 20.5625 138.246094 19.679688 C 141.519531 18.800781 144.820312 18.019531 148.140625 17.339844 C 151.464844 16.65625 154.804688 16.082031 158.164062 15.605469 C 161.519531 15.128906 164.890625 14.757812 168.269531 14.484375 C 171.652344 14.214844 175.039062 14.050781 178.429688 13.988281 C 181.820312 13.925781 185.210938 13.964844 188.597656 14.109375 C 191.988281 14.253906 195.367188 14.503906 198.742188 14.855469 C 202.113281 15.207031 205.472656 15.660156 208.820312 16.214844 C 212.164062 16.773438 215.492188 17.433594 218.796875 18.191406 C 222.101562 18.953125 225.382812 19.8125 228.632812 20.773438 C 231.886719 21.734375 235.105469 22.792969 238.296875 23.949219 C 241.484375 25.109375 244.632812 26.363281 247.742188 27.710938 C 250.855469 29.0625 253.921875 30.507812 256.945312 32.042969 C 259.96875 33.582031 262.941406 35.210938 265.867188 36.929688 C 268.789062 38.648438 271.65625 40.457031 274.46875 42.351562 C 277.28125 44.246094 280.035156 46.226562 282.726562 48.289062 C 285.417969 50.351562 288.046875 52.496094 290.605469 54.71875 C 293.167969 56.941406 295.65625 59.242188 298.078125 61.617188 C 300.5 63.996094 302.84375 66.441406 305.113281 68.960938 C 307.386719 71.480469 309.578125 74.066406 311.6875 76.722656 C 313.800781 79.375 315.832031 82.089844 317.777344 84.867188 C 319.722656 87.644531 321.582031 90.480469 323.355469 93.371094 C 325.128906 96.261719 326.8125 99.207031 328.40625 102.199219 C 330 105.195312 331.5 108.234375 332.90625 111.320312 C 334.3125 114.40625 335.625 117.53125 336.839844 120.699219 C 338.054688 123.863281 339.175781 127.066406 340.195312 130.300781 C 341.214844 133.535156 342.136719 136.796875 342.957031 140.085938 C 343.777344 143.378906 344.496094 146.691406 345.117188 150.027344 C 345.734375 153.359375 346.25 156.710938 346.664062 160.078125 C 347.078125 163.445312 347.386719 166.820312 347.59375 170.203125 C 347.800781 173.589844 347.902344 176.980469 347.902344 180.371094 Z M 347.902344 180.371094 " fill-opacity="1" fill-rule="nonzero"/></g><path fill="#ffffff" d="M 301.003906 296.265625 C 299.070312 298.257812 297.089844 300.199219 295.058594 302.089844 C 293.027344 303.984375 290.949219 305.824219 288.828125 307.613281 C 286.703125 309.402344 284.539062 311.136719 282.328125 312.816406 C 280.121094 314.496094 277.867188 316.121094 275.578125 317.6875 C 273.289062 319.257812 270.957031 320.765625 268.59375 322.21875 C 266.226562 323.667969 263.824219 325.058594 261.390625 326.390625 C 258.953125 327.722656 256.484375 328.992188 253.984375 330.199219 C 251.488281 331.40625 248.957031 332.550781 246.402344 333.632812 C 243.84375 334.714844 241.261719 335.730469 238.65625 336.683594 C 236.046875 337.636719 233.417969 338.519531 230.765625 339.339844 C 228.113281 340.164062 225.445312 340.917969 222.753906 341.601562 C 220.066406 342.289062 217.359375 342.910156 214.640625 343.460938 C 211.917969 344.011719 209.1875 344.496094 206.441406 344.910156 C 203.695312 345.324219 200.941406 345.671875 198.179688 345.949219 C 195.417969 346.226562 192.652344 346.433594 189.878906 346.574219 C 187.105469 346.710938 184.332031 346.78125 181.554688 346.78125 C 178.78125 346.78125 176.007812 346.710938 173.234375 346.574219 C 170.460938 346.433594 167.695312 346.226562 164.933594 345.949219 C 162.171875 345.671875 159.417969 345.324219 156.671875 344.910156 C 153.925781 344.496094 151.195312 344.011719 148.472656 343.460938 C 145.753906 342.910156 143.046875 342.289062 140.359375 341.601562 C 137.667969 340.917969 135 340.164062 132.347656 339.34375 C 129.695312 338.519531 127.066406 337.636719 124.457031 336.683594 C 121.851562 335.730469 119.269531 334.714844 116.710938 333.632812 C 114.15625 332.550781 111.625 331.40625 109.128906 330.199219 C 106.628906 328.992188 104.160156 327.722656 101.722656 326.390625 C 99.289062 325.058594 96.886719 323.667969 94.519531 322.21875 C 92.152344 320.765625 89.824219 319.257812 87.535156 317.6875 C 85.242188 316.121094 82.992188 314.496094 80.785156 312.816406 C 78.574219 311.136719 76.410156 309.402344 74.285156 307.613281 C 72.164062 305.824219 70.085938 303.984375 68.054688 302.089844 C 66.023438 300.199219 64.042969 298.257812 62.109375 296.265625 C 63.339844 293.347656 64.675781 290.484375 66.121094 287.664062 C 67.5625 284.847656 69.105469 282.085938 70.746094 279.382812 C 72.390625 276.679688 74.132812 274.039062 75.96875 271.460938 C 77.808594 268.882812 79.734375 266.375 81.757812 263.941406 C 83.777344 261.503906 85.886719 259.148438 88.078125 256.863281 C 90.273438 254.582031 92.546875 252.386719 94.898438 250.269531 C 97.253906 248.15625 99.683594 246.128906 102.1875 244.191406 C 104.6875 242.253906 107.257812 240.410156 109.898438 238.664062 C 112.535156 236.914062 115.234375 235.265625 117.992188 233.710938 C 120.75 232.160156 123.5625 230.710938 126.425781 229.367188 C 129.289062 228.023438 132.199219 226.78125 135.15625 225.648438 C 138.113281 224.519531 141.105469 223.496094 144.132812 222.582031 C 147.164062 221.667969 150.222656 220.867188 153.3125 220.175781 C 156.402344 219.488281 159.511719 218.914062 162.644531 218.449219 C 165.773438 217.988281 168.917969 217.644531 172.074219 217.410156 C 175.230469 217.179688 178.390625 217.0625 181.554688 217.0625 C 184.722656 217.0625 187.882812 217.179688 191.039062 217.410156 C 194.195312 217.644531 197.339844 217.988281 200.46875 218.449219 C 203.601562 218.914062 206.710938 219.488281 209.800781 220.175781 C 212.886719 220.867188 215.949219 221.667969 218.976562 222.582031 C 222.007812 223.496094 225 224.519531 227.957031 225.648438 C 230.914062 226.78125 233.820312 228.023438 236.6875 229.367188 C 239.550781 230.710938 242.363281 232.160156 245.121094 233.710938 C 247.878906 235.265625 250.578125 236.914062 253.214844 238.664062 C 255.855469 240.410156 258.425781 242.253906 260.925781 244.191406 C 263.429688 246.128906 265.859375 248.15625 268.210938 250.269531 C 270.566406 252.386719 272.839844 254.582031 275.035156 256.863281 C 277.226562 259.148438 279.335938 261.503906 281.355469 263.941406 C 283.378906 266.375 285.304688 268.882812 287.144531 271.460938 C 288.980469 274.039062 290.722656 276.679688 292.363281 279.382812 C 294.007812 282.085938 295.550781 284.847656 296.992188 287.664062 C 298.433594 290.484375 299.773438 293.347656 301.003906 296.265625 Z M 301.003906 296.265625 " fill-opacity="1" fill-rule="nonzero"/><path fill="#ff9561" d="M 181.492188 180.34375 C 182.257812 180.34375 183.023438 180.382812 183.789062 180.457031 C 184.550781 180.53125 185.308594 180.644531 186.0625 180.796875 C 186.8125 180.945312 187.558594 181.132812 188.292969 181.355469 C 189.027344 181.578125 189.746094 181.835938 190.457031 182.128906 C 191.164062 182.421875 191.859375 182.75 192.535156 183.109375 C 193.210938 183.472656 193.867188 183.867188 194.507812 184.292969 C 195.144531 184.71875 195.761719 185.175781 196.351562 185.664062 C 196.945312 186.148438 197.515625 186.664062 198.058594 187.207031 C 198.597656 187.75 199.113281 188.316406 199.601562 188.910156 C 200.085938 189.503906 200.542969 190.117188 200.96875 190.757812 C 201.394531 191.394531 201.789062 192.050781 202.152344 192.730469 C 202.515625 193.40625 202.839844 194.097656 203.136719 194.808594 C 203.429688 195.515625 203.6875 196.238281 203.910156 196.972656 C 204.132812 197.707031 204.320312 198.449219 204.46875 199.203125 C 204.617188 199.953125 204.730469 200.710938 204.804688 201.476562 C 204.878906 202.238281 204.917969 203.003906 204.917969 203.773438 L 204.917969 224.433594 C 204.917969 225.203125 204.878906 225.96875 204.804688 226.730469 C 204.730469 227.496094 204.617188 228.253906 204.46875 229.003906 C 204.320312 229.757812 204.132812 230.5 203.910156 231.234375 C 203.6875 231.96875 203.429688 232.691406 203.136719 233.402344 C 202.839844 234.109375 202.515625 234.800781 202.152344 235.480469 C 201.789062 236.15625 201.394531 236.8125 200.96875 237.449219 C 200.542969 238.089844 200.085938 238.703125 199.601562 239.296875 C 199.113281 239.890625 198.597656 240.457031 198.058594 241 C 197.515625 241.542969 196.945312 242.058594 196.351562 242.542969 C 195.761719 243.03125 195.144531 243.488281 194.507812 243.914062 C 193.867188 244.339844 193.210938 244.734375 192.535156 245.097656 C 191.859375 245.457031 191.164062 245.785156 190.457031 246.078125 C 189.746094 246.371094 189.027344 246.632812 188.292969 246.855469 C 187.558594 247.078125 186.8125 247.261719 186.0625 247.414062 C 185.308594 247.5625 184.550781 247.675781 183.789062 247.75 C 183.023438 247.824219 182.257812 247.863281 181.492188 247.863281 C 180.722656 247.863281 179.957031 247.824219 179.195312 247.75 C 178.429688 247.675781 177.671875 247.5625 176.921875 247.414062 C 176.167969 247.261719 175.425781 247.078125 174.691406 246.855469 C 173.957031 246.632812 173.234375 246.371094 172.527344 246.078125 C 171.816406 245.785156 171.125 245.457031 170.449219 245.097656 C 169.769531 244.734375 169.113281 244.339844 168.476562 243.914062 C 167.839844 243.488281 167.222656 243.03125 166.628906 242.542969 C 166.035156 242.058594 165.46875 241.542969 164.925781 241 C 164.382812 240.457031 163.867188 239.890625 163.382812 239.296875 C 162.894531 238.703125 162.4375 238.089844 162.011719 237.449219 C 161.585938 236.8125 161.191406 236.15625 160.832031 235.480469 C 160.46875 234.800781 160.140625 234.109375 159.847656 233.402344 C 159.554688 232.691406 159.296875 231.96875 159.074219 231.234375 C 158.851562 230.5 158.664062 229.757812 158.515625 229.003906 C 158.363281 228.253906 158.253906 227.496094 158.175781 226.730469 C 158.101562 225.96875 158.0625 225.203125 158.0625 224.433594 L 158.0625 203.773438 C 158.0625 203.003906 158.101562 202.238281 158.175781 201.476562 C 158.253906 200.710938 158.363281 199.953125 158.515625 199.203125 C 158.664062 198.449219 158.851562 197.707031 159.074219 196.972656 C 159.296875 196.238281 159.554688 195.515625 159.847656 194.808594 C 160.140625 194.097656 160.46875 193.40625 160.832031 192.730469 C 161.191406 192.050781 161.585938 191.394531 162.011719 190.757812 C 162.4375 190.117188 162.894531 189.503906 163.382812 188.910156 C 163.867188 188.316406 164.382812 187.75 164.925781 187.207031 C 165.46875 186.664062 166.035156 186.148438 166.628906 185.664062 C 167.222656 185.175781 167.839844 184.71875 168.476562 184.292969 C 169.113281 183.867188 169.769531 183.472656 170.449219 183.109375 C 171.125 182.75 171.816406 182.421875 172.527344 182.128906 C 173.234375 181.835938 173.957031 181.578125 174.691406 181.355469 C 175.425781 181.132812 176.167969 180.945312 176.921875 180.796875 C 177.671875 180.644531 178.429688 180.53125 179.195312 180.457031 C 179.957031 180.382812 180.722656 180.34375 181.492188 180.34375 Z M 181.492188 180.34375 " fill-opacity="1" fill-rule="nonzero"/><path fill="#14213d" d="M 131.046875 180.34375 C 88.222656 159.523438 91.414062 96.617188 120.898438 87.941406 C 124.414062 61.199219 200.421875 45.949219 237.957031 69.410156 C 275.488281 92.871094 264.234375 156.207031 234.671875 162.539062 " fill-opacity="1" fill-rule="nonzero"/><path fill="#ff9561" d="M 138.789062 165.59375 C 138.789062 166.566406 138.695312 167.527344 138.507812 168.476562 C 138.316406 169.429688 138.039062 170.351562 137.667969 171.25 C 137.296875 172.144531 136.839844 172.996094 136.300781 173.804688 C 135.761719 174.609375 135.148438 175.355469 134.464844 176.042969 C 133.777344 176.726562 133.03125 177.339844 132.226562 177.878906 C 131.417969 178.417969 130.566406 178.871094 129.671875 179.242188 C 128.773438 179.613281 127.851562 179.894531 126.898438 180.085938 C 125.949219 180.273438 124.988281 180.367188 124.015625 180.367188 C 123.046875 180.367188 122.085938 180.273438 121.136719 180.085938 C 120.183594 179.894531 119.261719 179.613281 118.363281 179.242188 C 117.46875 178.871094 116.617188 178.417969 115.808594 177.878906 C 115.003906 177.339844 114.257812 176.726562 113.570312 176.042969 C 112.886719 175.355469 112.273438 174.609375 111.734375 173.804688 C 111.195312 172.996094 110.738281 172.144531 110.367188 171.25 C 109.996094 170.351562 109.71875 169.429688 109.527344 168.476562 C 109.339844 167.527344 109.242188 166.566406 109.242188 165.59375 C 109.242188 164.625 109.339844 163.664062 109.527344 162.714844 C 109.71875 161.761719 109.996094 160.835938 110.367188 159.941406 C 110.738281 159.046875 111.195312 158.195312 111.734375 157.386719 C 112.273438 156.582031 112.886719 155.835938 113.570312 155.148438 C 114.257812 154.460938 115.003906 153.851562 115.808594 153.3125 C 116.617188 152.773438 117.46875 152.316406 118.363281 151.945312 C 119.261719 151.574219 120.183594 151.292969 121.136719 151.105469 C 122.085938 150.917969 123.046875 150.820312 124.015625 150.820312 C 124.988281 150.820312 125.949219 150.917969 126.898438 151.105469 C 127.851562 151.292969 128.773438 151.574219 129.671875 151.945312 C 130.566406 152.316406 131.417969 152.773438 132.226562 153.3125 C 133.03125 153.851562 133.777344 154.460938 134.464844 155.148438 C 135.148438 155.835938 135.761719 156.582031 136.300781 157.386719 C 136.839844 158.195312 137.296875 159.046875 137.667969 159.941406 C 138.039062 160.835938 138.316406 161.761719 138.507812 162.714844 C 138.695312 163.664062 138.789062 164.625 138.789062 165.59375 Z M 138.789062 165.59375 " fill-opacity="1" fill-rule="nonzero"/><path fill="#ff9561" d="M 252.363281 165.59375 C 252.363281 166.566406 252.269531 167.527344 252.078125 168.476562 C 251.890625 169.429688 251.609375 170.351562 251.238281 171.25 C 250.867188 172.144531 250.414062 172.996094 249.875 173.804688 C 249.335938 174.609375 248.722656 175.355469 248.035156 176.042969 C 247.351562 176.726562 246.605469 177.339844 245.796875 177.878906 C 244.992188 178.417969 244.140625 178.871094 243.242188 179.242188 C 242.347656 179.613281 241.421875 179.894531 240.472656 180.085938 C 239.519531 180.273438 238.558594 180.367188 237.589844 180.367188 C 236.621094 180.367188 235.660156 180.273438 234.707031 180.085938 C 233.757812 179.894531 232.832031 179.613281 231.9375 179.242188 C 231.039062 178.871094 230.1875 178.417969 229.382812 177.878906 C 228.574219 177.339844 227.828125 176.726562 227.144531 176.042969 C 226.457031 175.355469 225.84375 174.609375 225.304688 173.804688 C 224.765625 172.996094 224.3125 172.144531 223.941406 171.25 C 223.570312 170.351562 223.289062 169.429688 223.101562 168.476562 C 222.910156 167.527344 222.816406 166.566406 222.816406 165.59375 C 222.816406 164.625 222.910156 163.664062 223.101562 162.714844 C 223.289062 161.761719 223.570312 160.835938 223.941406 159.941406 C 224.3125 159.046875 224.765625 158.195312 225.304688 157.386719 C 225.84375 156.582031 226.457031 155.835938 227.144531 155.148438 C 227.828125 154.460938 228.574219 153.851562 229.382812 153.3125 C 230.1875 152.773438 231.039062 152.316406 231.9375 151.945312 C 232.832031 151.574219 233.757812 151.292969 234.707031 151.105469 C 235.660156 150.917969 236.621094 150.820312 237.589844 150.820312 C 238.558594 150.820312 239.519531 150.917969 240.472656 151.105469 C 241.421875 151.292969 242.347656 151.574219 243.242188 151.945312 C 244.140625 152.316406 244.992188 152.773438 245.796875 153.3125 C 246.605469 153.851562 247.351562 154.460938 248.035156 155.148438 C 248.722656 155.835938 249.335938 156.582031 249.875 157.386719 C 250.414062 158.195312 250.867188 159.046875 251.238281 159.941406 C 251.609375 160.835938 251.890625 161.761719 252.078125 162.714844 C 252.269531 163.664062 252.363281 164.625 252.363281 165.59375 Z M 252.363281 165.59375 " fill-opacity="1" fill-rule="nonzero"/><path fill="#ffc9ac" d="M 181.554688 87.113281 C 183.441406 87.113281 185.320312 87.203125 187.195312 87.390625 C 189.070312 87.574219 190.933594 87.851562 192.78125 88.21875 C 194.628906 88.585938 196.453125 89.042969 198.257812 89.589844 C 200.0625 90.136719 201.832031 90.769531 203.574219 91.492188 C 205.316406 92.210938 207.015625 93.015625 208.679688 93.90625 C 210.339844 94.792969 211.957031 95.761719 213.523438 96.808594 C 215.089844 97.855469 216.601562 98.976562 218.058594 100.171875 C 219.515625 101.367188 220.910156 102.632812 222.242188 103.964844 C 223.574219 105.296875 224.835938 106.691406 226.035156 108.148438 C 227.230469 109.605469 228.351562 111.117188 229.398438 112.683594 C 230.445312 114.25 231.410156 115.863281 232.300781 117.527344 C 233.1875 119.1875 233.992188 120.890625 234.714844 122.632812 C 235.433594 124.371094 236.070312 126.144531 236.617188 127.949219 C 237.164062 129.75 237.621094 131.578125 237.988281 133.425781 C 238.355469 135.273438 238.632812 137.136719 238.816406 139.011719 C 239 140.886719 239.09375 142.765625 239.09375 144.652344 L 239.09375 159.523438 C 239.09375 161.410156 239 163.289062 238.816406 165.164062 C 238.632812 167.039062 238.355469 168.902344 237.988281 170.75 C 237.621094 172.597656 237.164062 174.421875 236.617188 176.226562 C 236.070312 178.03125 235.433594 179.800781 234.714844 181.542969 C 233.992188 183.285156 233.1875 184.984375 232.300781 186.648438 C 231.410156 188.308594 230.445312 189.925781 229.398438 191.492188 C 228.351562 193.058594 227.230469 194.570312 226.035156 196.027344 C 224.835938 197.484375 223.574219 198.878906 222.242188 200.210938 C 220.910156 201.542969 219.515625 202.808594 218.058594 204.003906 C 216.601562 205.199219 215.089844 206.320312 213.523438 207.367188 C 211.957031 208.414062 210.339844 209.378906 208.679688 210.269531 C 207.015625 211.15625 205.316406 211.960938 203.574219 212.683594 C 201.832031 213.40625 200.0625 214.039062 198.257812 214.585938 C 196.453125 215.132812 194.628906 215.589844 192.78125 215.957031 C 190.933594 216.324219 189.070312 216.601562 187.195312 216.785156 C 185.320312 216.972656 183.441406 217.0625 181.554688 217.0625 C 179.671875 217.0625 177.792969 216.972656 175.914062 216.785156 C 174.039062 216.601562 172.179688 216.324219 170.332031 215.957031 C 168.480469 215.589844 166.65625 215.132812 164.851562 214.585938 C 163.050781 214.039062 161.277344 213.40625 159.535156 212.683594 C 157.796875 211.960938 156.09375 211.15625 154.433594 210.269531 C 152.769531 209.378906 151.15625 208.414062 149.589844 207.367188 C 148.023438 206.320312 146.511719 205.199219 145.054688 204.003906 C 143.597656 202.808594 142.203125 201.542969 140.871094 200.210938 C 139.539062 198.878906 138.273438 197.484375 137.078125 196.027344 C 135.882812 194.570312 134.761719 193.058594 133.714844 191.492188 C 132.667969 189.925781 131.699219 188.308594 130.8125 186.648438 C 129.921875 184.984375 129.117188 183.285156 128.398438 181.542969 C 127.675781 179.800781 127.042969 178.03125 126.496094 176.226562 C 125.949219 174.421875 125.492188 172.597656 125.121094 170.75 C 124.753906 168.902344 124.480469 167.039062 124.292969 165.164062 C 124.109375 163.289062 124.015625 161.410156 124.015625 159.523438 L 124.015625 144.652344 C 124.015625 142.765625 124.109375 140.886719 124.292969 139.011719 C 124.480469 137.136719 124.753906 135.273438 125.121094 133.425781 C 125.492188 131.578125 125.949219 129.75 126.496094 127.949219 C 127.042969 126.144531 127.675781 124.371094 128.398438 122.632812 C 129.117188 120.890625 129.921875 119.1875 130.8125 117.527344 C 131.699219 115.863281 132.667969 114.25 133.714844 112.683594 C 134.761719 111.117188 135.882812 109.605469 137.078125 108.148438 C 138.273438 106.691406 139.539062 105.296875 140.871094 103.964844 C 142.203125 102.632812 143.597656 101.367188 145.054688 100.171875 C 146.511719 98.976562 148.023438 97.855469 149.589844 96.808594 C 151.15625 95.761719 152.769531 94.792969 154.433594 93.90625 C 156.09375 93.015625 157.796875 92.210938 159.535156 91.492188 C 161.277344 90.769531 163.050781 90.136719 164.851562 89.589844 C 166.65625 89.042969 168.480469 88.585938 170.332031 88.21875 C 172.179688 87.851562 174.039062 87.574219 175.914062 87.390625 C 177.792969 87.203125 179.671875 87.113281 181.554688 87.113281 Z M 181.554688 87.113281 " fill-opacity="1" fill-rule="nonzero"/><path fill="#14213d" d="M 124.015625 159.523438 C 144.796875 159.523438 149.488281 120.660156 149.488281 120.660156 C 149.488281 120.660156 152.71875 149.570312 239.09375 144.652344 C 239.09375 144.652344 245.453125 105.03125 223.570312 90.964844 C 201.6875 76.898438 145.113281 85.964844 127.917969 104.097656 C 110.726562 122.226562 124.015625 159.523438 124.015625 159.523438 Z M 124.015625 159.523438 " fill-opacity="1" fill-rule="nonzero"/></svg>