<svg xmlns="http://www.w3.org/2000/svg" xmlns:xlink="http://www.w3.org/1999/xlink" width="480" zoomAndPan="magnify" viewBox="0 0 360 367.91998" height="480" preserveAspectRatio="xMidYMid meet" version="1.0"><defs><clipPath id="b05c924c7d"><path d="M 127 170 L 233 170 L 233 350.742188 L 127 350.742188 Z M 127 170 " clip-rule="nonzero"/></clipPath><clipPath id="46a2fe01a9"><path d="M 47.441406 9 L 312.882812 9 L 312.882812 257 L 47.441406 257 Z M 47.441406 9 " clip-rule="nonzero"/></clipPath></defs><path fill="#68c586" d="M 175.09375 127.835938 C 175.09375 129.355469 176.328125 130.585938 177.847656 130.585938 C 184.742188 130.585938 190.355469 136.199219 190.355469 143.09375 C 190.355469 144.613281 191.585938 145.847656 193.105469 145.847656 C 194.625 145.847656 195.859375 144.613281 195.859375 143.09375 C 195.859375 133.164062 187.777344 125.082031 177.847656 125.082031 C 176.328125 125.082031 175.09375 126.316406 175.09375 127.835938 Z M 175.09375 127.835938 " fill-opacity="1" fill-rule="nonzero"/><g clip-path="url(#b05c924c7d)"><path fill="#68c586" d="M 179.964844 173.292969 C 175.191406 173.292969 170.679688 172.195312 166.621094 170.289062 L 127.414062 350.597656 L 232.511719 350.597656 L 193.300781 170.289062 C 189.246094 172.195312 184.734375 173.292969 179.964844 173.292969 Z M 142.695312 317.140625 L 151.019531 278.871094 C 151.226562 277.917969 151.925781 277.144531 152.851562 276.839844 C 153.773438 276.539062 154.800781 276.746094 155.53125 277.390625 L 172.988281 292.792969 C 173.578125 293.3125 173.921875 294.066406 173.921875 294.855469 C 173.921875 295.644531 173.585938 296.394531 172.996094 296.917969 L 147.21875 319.789062 C 146.699219 320.246094 146.046875 320.484375 145.390625 320.484375 C 144.910156 320.484375 144.429688 320.359375 144 320.105469 C 142.964844 319.503906 142.441406 318.304688 142.695312 317.140625 Z M 221.257812 337.75 C 220.855469 338.820312 219.828125 339.527344 218.683594 339.527344 L 141.242188 339.527344 C 140.097656 339.527344 139.074219 338.820312 138.667969 337.75 C 138.265625 336.679688 138.5625 335.472656 139.421875 334.710938 L 178.136719 300.550781 C 179.175781 299.632812 180.738281 299.632812 181.777344 300.550781 L 220.496094 334.710938 C 221.363281 335.472656 221.660156 336.683594 221.257812 337.75 Z M 207.074219 276.835938 C 208 277.140625 208.695312 277.917969 208.90625 278.867188 L 217.226562 317.140625 C 217.480469 318.304688 216.957031 319.5 215.925781 320.101562 C 215.496094 320.355469 215.015625 320.476562 214.535156 320.476562 C 213.878906 320.476562 213.226562 320.242188 212.707031 319.785156 L 186.929688 296.914062 C 186.339844 296.390625 186.003906 295.636719 186.003906 294.851562 C 186.003906 294.058594 186.34375 293.308594 186.9375 292.789062 L 204.394531 277.386719 C 205.125 276.742188 206.152344 276.535156 207.074219 276.835938 Z M 205.925781 265.320312 C 206.332031 266.390625 206.039062 267.597656 205.179688 268.359375 L 181.789062 289.113281 C 181.269531 289.574219 180.613281 289.808594 179.960938 289.808594 C 179.308594 289.808594 178.652344 289.574219 178.132812 289.113281 L 154.742188 268.359375 C 153.882812 267.601562 153.589844 266.390625 153.996094 265.320312 C 154.398438 264.25 155.425781 263.542969 156.570312 263.542969 L 203.351562 263.542969 C 204.5 263.542969 205.523438 264.25 205.925781 265.320312 Z M 203.363281 258.207031 C 202.84375 258.855469 202.054688 259.230469 201.222656 259.230469 L 158.707031 259.230469 C 157.871094 259.230469 157.082031 258.855469 156.5625 258.207031 C 156.039062 257.558594 155.839844 256.707031 156.015625 255.894531 L 172.058594 182.125 C 172.332031 180.863281 173.449219 179.960938 174.746094 179.960938 L 185.179688 179.960938 C 186.476562 179.960938 187.59375 180.863281 187.871094 182.125 L 203.914062 255.894531 C 204.085938 256.707031 203.886719 257.558594 203.363281 258.207031 Z M 203.363281 258.207031 " fill-opacity="1" fill-rule="nonzero"/></g><path fill="#68c586" d="M 210.058594 310.070312 L 204.523438 284.625 L 192.914062 294.863281 Z M 210.058594 310.070312 " fill-opacity="1" fill-rule="nonzero"/><path fill="#68c586" d="M 176.964844 185.464844 L 162.121094 253.726562 L 197.804688 253.726562 L 182.960938 185.464844 Z M 176.964844 185.464844 " fill-opacity="1" fill-rule="nonzero"/><path fill="#68c586" d="M 155.402344 284.625 L 149.867188 310.070312 L 167.015625 294.863281 Z M 155.402344 284.625 " fill-opacity="1" fill-rule="nonzero"/><path fill="#68c586" d="M 153.96875 141.796875 C 153.96875 156.128906 165.628906 167.789062 179.960938 167.789062 C 194.292969 167.789062 205.953125 156.128906 205.953125 141.796875 C 205.953125 127.464844 194.292969 115.804688 179.960938 115.804688 C 165.628906 115.804688 153.96875 127.464844 153.96875 141.796875 Z M 201.367188 143.09375 C 201.367188 147.648438 197.660156 151.351562 193.105469 151.351562 C 188.554688 151.351562 184.847656 147.648438 184.847656 143.09375 C 184.847656 139.234375 181.707031 136.09375 177.847656 136.09375 C 173.292969 136.09375 169.585938 132.386719 169.585938 127.835938 C 169.585938 123.28125 173.292969 119.574219 177.847656 119.574219 C 190.816406 119.574219 201.367188 130.125 201.367188 143.09375 Z M 201.367188 143.09375 " fill-opacity="1" fill-rule="nonzero"/><path fill="#68c586" d="M 179.964844 283.371094 L 196.105469 269.050781 L 163.820312 269.050781 Z M 179.964844 283.371094 " fill-opacity="1" fill-rule="nonzero"/><path fill="#68c586" d="M 148.527344 334.027344 L 211.398438 334.027344 L 179.964844 306.292969 Z M 148.527344 334.027344 " fill-opacity="1" fill-rule="nonzero"/><path fill="#68c586" d="M 221.589844 162.398438 C 221.941406 162.546875 222.304688 162.617188 222.664062 162.617188 C 223.738281 162.617188 224.753906 161.984375 225.199219 160.9375 C 227.769531 154.878906 229.070312 148.4375 229.070312 141.796875 C 229.070312 114.71875 207.039062 92.6875 179.964844 92.6875 C 152.886719 92.6875 130.859375 114.71875 130.859375 141.796875 C 130.859375 148.4375 132.160156 154.878906 134.726562 160.9375 C 135.324219 162.34375 136.941406 162.984375 138.339844 162.398438 C 139.738281 161.804688 140.390625 160.1875 139.796875 158.785156 C 137.519531 153.414062 136.363281 147.695312 136.363281 141.792969 C 136.363281 117.753906 155.921875 98.191406 179.964844 98.191406 C 204.003906 98.191406 223.5625 117.75 223.5625 141.792969 C 223.5625 147.695312 222.40625 153.414062 220.128906 158.785156 C 219.539062 160.1875 220.191406 161.804688 221.589844 162.398438 Z M 221.589844 162.398438 " fill-opacity="1" fill-rule="nonzero"/><path fill="#68c586" d="M 179.964844 66.773438 C 138.597656 66.773438 104.941406 100.429688 104.941406 141.796875 C 104.941406 160.710938 111.996094 178.777344 124.820312 192.664062 C 125.847656 193.777344 127.589844 193.851562 128.707031 192.820312 C 129.824219 191.789062 129.894531 190.046875 128.863281 188.929688 C 116.992188 176.0625 110.449219 159.324219 110.449219 141.800781 C 110.449219 103.46875 141.632812 72.285156 179.964844 72.285156 C 218.300781 72.285156 249.484375 103.46875 249.484375 141.800781 C 249.484375 159.324219 242.941406 176.0625 231.070312 188.929688 C 230.039062 190.046875 230.105469 191.789062 231.226562 192.820312 C 231.753906 193.308594 232.425781 193.550781 233.09375 193.550781 C 233.835938 193.550781 234.574219 193.253906 235.113281 192.667969 C 247.933594 178.777344 254.992188 160.714844 254.992188 141.800781 C 254.984375 100.429688 221.332031 66.773438 179.964844 66.773438 Z M 179.964844 66.773438 " fill-opacity="1" fill-rule="nonzero"/><path fill="#68c586" d="M 285.171875 141.796875 C 285.171875 83.785156 237.976562 36.589844 179.964844 36.589844 C 121.953125 36.589844 74.753906 83.785156 74.753906 141.796875 C 74.753906 174.535156 89.601562 204.832031 115.484375 224.9375 C 116.691406 225.875 118.417969 225.652344 119.347656 224.449219 C 120.28125 223.246094 120.0625 221.523438 118.859375 220.589844 C 94.328125 201.535156 80.261719 172.816406 80.261719 141.796875 C 80.261719 86.820312 124.988281 42.09375 179.964844 42.09375 C 234.941406 42.09375 279.667969 86.820312 279.667969 141.796875 C 279.667969 172.816406 265.597656 201.535156 241.066406 220.589844 C 239.863281 221.523438 239.644531 223.25 240.578125 224.449219 C 241.121094 225.148438 241.933594 225.515625 242.757812 225.515625 C 243.347656 225.515625 243.941406 225.328125 244.441406 224.9375 C 270.324219 204.832031 285.171875 174.53125 285.171875 141.796875 Z M 285.171875 141.796875 " fill-opacity="1" fill-rule="nonzero"/><g clip-path="url(#46a2fe01a9)"><path fill="#68c586" d="M 179.964844 9.273438 C 106.890625 9.273438 47.441406 68.722656 47.441406 141.796875 C 47.441406 188.386719 72.367188 232.097656 112.488281 255.878906 C 113.800781 256.65625 115.488281 256.222656 116.257812 254.914062 C 117.03125 253.605469 116.601562 251.914062 115.292969 251.140625 C 76.835938 228.347656 52.945312 186.449219 52.945312 141.796875 C 52.945312 71.757812 109.925781 14.777344 179.964844 14.777344 C 250.003906 14.777344 306.980469 71.757812 306.980469 141.796875 C 306.980469 186.449219 283.089844 228.347656 244.632812 251.144531 C 243.324219 251.917969 242.894531 253.609375 243.667969 254.914062 C 244.183594 255.78125 245.101562 256.265625 246.039062 256.265625 C 246.515625 256.265625 247 256.140625 247.441406 255.878906 C 287.5625 232.097656 312.488281 188.382812 312.488281 141.796875 C 312.484375 68.722656 253.035156 9.273438 179.964844 9.273438 Z M 179.964844 9.273438 " fill-opacity="1" fill-rule="nonzero"/></g></svg>
