<svg xmlns="http://www.w3.org/2000/svg" xmlns:xlink="http://www.w3.org/1999/xlink" width="480" zoomAndPan="magnify" viewBox="0 0 360 367.91998" height="480" preserveAspectRatio="xMidYMid meet" version="1.0"><defs><clipPath id="8d0f0b7acc"><path d="M 23 30 L 337 30 L 337 340 L 23 340 Z M 23 30 " clip-rule="nonzero"/></clipPath><clipPath id="9a56ac0e53"><path d="M -13.199219 53.582031 L 310.464844 -10.402344 L 373.140625 306.640625 L 49.476562 370.625 Z M -13.199219 53.582031 " clip-rule="nonzero"/></clipPath><clipPath id="6beec1b79b"><path d="M -13.199219 53.582031 L 310.464844 -10.402344 L 373.140625 306.640625 L 49.476562 370.625 Z M -13.199219 53.582031 " clip-rule="nonzero"/></clipPath></defs><g clip-path="url(#8d0f0b7acc)"><g clip-path="url(#9a56ac0e53)"><g clip-path="url(#6beec1b79b)"><path fill="#68c586" d="M 114.746094 42.128906 C 113.878906 42.480469 32.855469 76.421875 23.851562 157.097656 C 17.820312 210.863281 47.015625 250.742188 67.222656 271.414062 C 67.015625 267.453125 66.84375 263.484375 66.746094 259.535156 C 66.671875 256.59375 69 254.148438 71.949219 254.109375 C 74.890625 254.03125 77.300781 256.367188 77.375 259.308594 C 77.789062 276.898438 79.421875 294.640625 82.308594 311.992188 C 83.808594 321.035156 85.667969 330.078125 87.835938 339.023438 C 91.644531 332.214844 96.113281 325.8125 101.261719 319.925781 C 104.757812 315.917969 108.527344 312.179688 112.558594 308.679688 C 112.886719 308.324219 113.253906 308 113.671875 307.738281 C 123.859375 299.089844 135.605469 292.113281 148.328125 287.328125 C 151.050781 286.320312 154.132812 287.695312 155.175781 290.410156 C 156.222656 293.160156 154.808594 296.214844 152.09375 297.257812 C 143.101562 300.65625 134.632812 305.253906 126.96875 310.804688 C 192.417969 335.621094 281.890625 323.449219 319.761719 258.558594 C 352.714844 202.171875 331.734375 129.226562 293.976562 86.351562 C 248.898438 35.082031 175.207031 16.90625 114.746094 42.128906 Z M 114.746094 42.128906 " fill-opacity="1" fill-rule="nonzero"/></g></g></g></svg>