<svg xmlns="http://www.w3.org/2000/svg" xmlns:xlink="http://www.w3.org/1999/xlink" width="480" zoomAndPan="magnify" viewBox="0 0 360 367.91998" height="480" preserveAspectRatio="xMidYMid meet" version="1.0"><defs><clipPath id="b5f3242eef"><path d="M 0.0390625 6.972656 L 359.960938 6.972656 L 359.960938 352.648438 L 0.0390625 352.648438 Z M 0.0390625 6.972656 " clip-rule="nonzero"/></clipPath><clipPath id="b45589cf79"><path d="M 0.277344 0.972656 L 359.960938 0.972656 L 359.960938 346.648438 L 0.277344 346.648438 Z M 0.277344 0.972656 " clip-rule="nonzero"/></clipPath><clipPath id="c2121618db"><rect x="0" width="360" y="0" height="347"/></clipPath></defs><g clip-path="url(#b5f3242eef)"><g transform="matrix(1, 0, 0, 1, 0, 6)"><g clip-path="url(#c2121618db)"><g clip-path="url(#b45589cf79)"><path fill="#b99887" d="M 1.0625 336.582031 L 28.449219 243.761719 C 18.707031 221.734375 13.777344 198.269531 13.777344 173.949219 C 13.777344 127.75 31.769531 84.304688 64.445312 51.628906 C 97.113281 18.953125 140.558594 0.957031 186.765625 0.957031 C 232.976562 0.957031 276.421875 18.953125 309.097656 51.628906 C 341.777344 84.304688 359.773438 127.75 359.773438 173.957031 C 359.773438 220.167969 341.777344 263.613281 309.101562 296.285156 C 276.4375 328.960938 232.992188 346.957031 186.773438 346.957031 C 164.609375 346.957031 143.015625 342.820312 122.605469 334.660156 C 115.511719 331.820312 108.550781 328.488281 101.871094 324.71875 L 10.699219 346.730469 C 10.078125 346.875 9.4375 346.957031 8.808594 346.957031 C 6.625 346.957031 4.5 346.0625 2.953125 344.4375 C 0.96875 342.351562 0.25 339.355469 1.0625 336.582031 Z M 101.210938 308.253906 C 103.335938 307.738281 105.46875 308.117188 107.214844 309.144531 C 107.265625 309.175781 107.308594 309.203125 107.359375 309.234375 C 114.15625 313.238281 121.300781 316.738281 128.613281 319.65625 C 147.109375 327.046875 166.683594 330.796875 186.78125 330.796875 C 228.675781 330.796875 268.058594 314.484375 297.679688 284.855469 C 327.300781 255.234375 343.613281 215.851562 343.613281 173.957031 C 343.613281 132.070312 327.300781 92.679688 297.671875 63.058594 C 268.050781 33.4375 228.667969 17.125 186.773438 17.125 C 144.886719 17.125 105.496094 33.4375 75.875 63.058594 C 46.253906 92.6875 29.941406 132.070312 29.941406 173.957031 C 29.941406 196.925781 34.789062 219.042969 44.347656 239.71875 C 44.363281 239.742188 44.375 239.765625 44.375 239.792969 C 45.175781 241.511719 45.371094 243.511719 44.796875 245.472656 L 20.519531 327.734375 Z M 101.210938 308.253906 " fill-opacity="1" fill-rule="nonzero"/></g></g></g></g></svg>