<svg xmlns="http://www.w3.org/2000/svg" xmlns:xlink="http://www.w3.org/1999/xlink" width="480" zoomAndPan="magnify" viewBox="0 0 360 359.999987" height="480" preserveAspectRatio="xMidYMid meet" version="1.0"><defs><clipPath id="ea2e6ee2ce"><path d="M 39.613281 3.410156 L 320.113281 3.410156 L 320.113281 356.660156 L 39.613281 356.660156 Z M 39.613281 3.410156 " clip-rule="nonzero"/></clipPath><clipPath id="8bab7c5436"><path d="M 0.882812 0.410156 L 281.113281 0.410156 L 281.113281 353.660156 L 0.882812 353.660156 Z M 0.882812 0.410156 " clip-rule="nonzero"/></clipPath><clipPath id="f748c1cc3d"><rect x="0" width="282" y="0" height="354"/></clipPath></defs><g clip-path="url(#ea2e6ee2ce)"><g transform="matrix(1, 0, 0, 1, 39, 3)"><g clip-path="url(#f748c1cc3d)"><g clip-path="url(#8bab7c5436)"><path fill="#b99887" d="M 0.679688 122.972656 C 0.9375 182.046875 32.964844 229.507812 82.171875 247.777344 C 111.546875 258.6875 141.175781 258.191406 170.65625 247.8125 C 173.09375 246.957031 174.464844 246.984375 176.113281 249.320312 C 180.46875 255.503906 186.601562 259.054688 194.183594 259.761719 C 196.019531 259.933594 197.023438 260.65625 197.925781 262.195312 C 214.160156 290.011719 230.445312 317.792969 246.71875 345.585938 C 247.097656 346.226562 247.441406 346.882812 247.8125 347.527344 C 251.714844 354.28125 255.039062 355.15625 261.746094 351.191406 C 266.4375 348.414062 271.140625 345.652344 275.816406 342.851562 C 281.78125 339.277344 282.882812 335.511719 279.390625 329.542969 C 266.6875 307.839844 253.902344 286.183594 241.132812 264.519531 C 236.417969 256.515625 231.679688 248.527344 226.910156 240.554688 C 226.171875 239.320312 225.941406 238.230469 226.3125 236.742188 C 228.300781 228.789062 227.96875 220.964844 224.023438 213.621094 C 222.933594 211.597656 224.128906 210.644531 225.101562 209.445312 C 236.101562 195.863281 243.746094 180.582031 248.496094 163.792969 C 264.117188 108.609375 242.613281 50.273438 195.535156 20.214844 C 145.382812 -11.808594 78.238281 -4.390625 36.539062 38.007812 C 12.074219 62.878906 1.203125 93.332031 0.679688 122.972656 Z M 129.472656 10.136719 C 194.894531 11.785156 245.09375 64.835938 243.484375 130.75 C 241.804688 199.769531 184.394531 247.785156 123.328125 246.066406 C 59.003906 244.257812 9.03125 190.28125 10.707031 123.917969 C 12.34375 59.03125 65.074219 8.511719 129.472656 10.136719 Z M 207.167969 257.800781 C 207.125 256.375 208.394531 256.308594 209.179688 255.957031 C 212.492188 254.472656 215.597656 252.648438 218.066406 250 C 219.667969 248.285156 220.292969 248.617188 221.386719 250.492188 C 226.253906 258.824219 231.332031 267.035156 236.230469 275.347656 C 247.34375 294.214844 258.359375 313.136719 269.535156 331.964844 C 270.742188 334 270.441406 334.859375 268.535156 335.921875 C 265.191406 337.792969 261.898438 339.777344 258.703125 341.894531 C 257.015625 343.007812 256.265625 342.648438 255.300781 340.976562 C 239.632812 313.878906 223.910156 286.816406 208.199219 259.742188 C 207.828125 259.101562 207.503906 258.433594 207.167969 257.800781 Z M 197.171875 249.96875 C 192.617188 249.984375 188.355469 248.089844 184.921875 244.28125 C 183.757812 242.984375 183.238281 242.011719 185.347656 241 C 195.960938 235.898438 205.148438 228.8125 213.308594 220.382812 C 214.789062 218.855469 215.308594 219.269531 216.050781 220.929688 C 221.539062 233.136719 211.246094 249.484375 197.171875 249.96875 Z M 197.171875 249.96875 " fill-opacity="1" fill-rule="evenodd"/></g><path fill="#b99887" d="M 126.613281 240.117188 C 188.761719 239.980469 237.886719 190.257812 237.667969 127.710938 C 237.445312 64.453125 188.679688 15.5 125.792969 16.039062 C 66.605469 16.546875 16.28125 62.21875 16.523438 128.109375 C 16.753906 190.835938 65.324219 240.253906 126.613281 240.117188 Z M 126.277344 25.546875 C 183.003906 25.644531 227.878906 70.53125 227.886719 127.191406 C 227.894531 185.269531 183.117188 230.625 125.886719 230.507812 C 70.703125 230.394531 26.253906 184.371094 26.40625 127.5 C 26.554688 70.457031 70.644531 25.449219 126.277344 25.546875 Z M 126.277344 25.546875 " fill-opacity="1" fill-rule="evenodd"/><path fill="#b99887" d="M 129.878906 40.277344 C 123.917969 40.300781 117.992188 40.710938 112.136719 41.875 C 107.714844 42.75 105.847656 44.90625 106.578125 48.175781 C 107.265625 51.234375 109.730469 52.40625 114.03125 51.578125 C 130.03125 48.5 145.707031 49.890625 160.75 55.925781 C 187.054688 66.472656 201.332031 87.011719 207.101562 113.976562 C 209.785156 126.523438 208.949219 139.121094 205.355469 151.484375 C 205.214844 151.960938 205.070312 152.433594 204.957031 152.914062 C 204.246094 155.875 204.621094 158.4375 207.875 159.589844 C 210.707031 160.59375 213.25 159.210938 214.496094 155.785156 C 216.453125 150.40625 217.535156 144.78125 217.96875 139.097656 C 220.480469 106.226562 210.074219 78.554688 184.074219 57.65625 C 169.75 46.140625 150.191406 40.289062 129.878906 40.277344 Z M 129.878906 40.277344 " fill-opacity="1" fill-rule="evenodd"/><path fill="#b99887" d="M 42.082031 145.402344 C 43.285156 150.484375 44.839844 155.96875 47.078125 161.214844 C 57.789062 186.273438 75.554688 203.773438 101.859375 212.035156 C 102.800781 212.332031 103.78125 212.558594 104.757812 212.671875 C 107.445312 212.988281 109.46875 211.925781 110.230469 209.300781 C 111.050781 206.488281 109.75 204.398438 107.152344 203.324219 C 104.875 202.382812 102.398438 201.914062 100.109375 200.984375 C 74.96875 190.796875 59.511719 172.171875 52.578125 146.183594 C 52.195312 144.742188 51.949219 143.261719 51.078125 142.023438 C 49.746094 140.121094 47.933594 139.234375 45.609375 139.828125 C 43.378906 140.402344 42.03125 142.40625 42.082031 145.402344 Z M 42.082031 145.402344 " fill-opacity="1" fill-rule="evenodd"/></g></g></g></svg>