<svg xmlns="http://www.w3.org/2000/svg" xmlns:xlink="http://www.w3.org/1999/xlink" width="480" zoomAndPan="magnify" viewBox="0 0 360 367.91998" height="480" preserveAspectRatio="xMidYMid meet" version="1.0"><defs><clipPath id="061acb12ec"><path d="M 20.734375 71 L 234 71 L 234 289 L 20.734375 289 Z M 20.734375 71 " clip-rule="nonzero"/></clipPath><clipPath id="99b6b37635"><path d="M 76 1 L 339.414062 1 L 339.414062 359 L 76 359 Z M 76 1 " clip-rule="nonzero"/></clipPath></defs><g clip-path="url(#061acb12ec)"><path fill="#b99887" d="M 20.78125 192.167969 L 191.609375 192.167969 L 112.300781 271.480469 L 129.558594 288.785156 L 229.75 188.589844 C 232.046875 186.292969 233.332031 183.171875 233.332031 179.960938 C 233.332031 176.703125 232.046875 173.628906 229.75 171.332031 L 129.558594 71.136719 L 112.300781 88.441406 L 191.609375 167.753906 L 20.78125 167.753906 Z M 20.78125 192.167969 " fill-opacity="1" fill-rule="nonzero"/></g><g clip-path="url(#99b6b37635)"><path fill="#b99887" d="M 160.308594 1.097656 C 131.621094 1.097656 104.175781 7.660156 78.792969 20.695312 L 89.949219 42.453125 C 111.839844 31.253906 135.523438 25.5625 160.308594 25.5625 C 245.496094 25.5625 314.753906 94.867188 314.753906 180.007812 C 314.753906 265.148438 245.496094 334.453125 160.308594 334.453125 C 135.15625 334.453125 110.1875 328.253906 88.113281 316.550781 L 76.683594 338.167969 C 102.25 351.710938 131.210938 358.871094 160.308594 358.871094 C 258.941406 358.871094 339.21875 278.640625 339.21875 180.007812 C 339.21875 81.328125 258.941406 1.097656 160.308594 1.097656 Z M 160.308594 1.097656 " fill-opacity="1" fill-rule="nonzero"/></g></svg>