<svg xmlns="http://www.w3.org/2000/svg" xmlns:xlink="http://www.w3.org/1999/xlink" width="480" zoomAndPan="magnify" viewBox="0 0 360 367.91998" height="480" preserveAspectRatio="xMidYMid meet" version="1.0"><defs><clipPath id="6d84fc942c"><path d="M 8 38 L 352 38 L 352 338.0625 L 8 338.0625 Z M 8 38 " clip-rule="nonzero"/></clipPath></defs><g clip-path="url(#6d84fc942c)"><path fill="#b99887" d="M 179.867188 338.316406 C 177.5625 338.300781 176.066406 337 175.726562 336.6875 L 42.597656 203.558594 C 10.914062 174.886719 0.015625 131.183594 14.78125 94.898438 C 31.992188 52.613281 75.4375 41.578125 78.363281 40.894531 C 115.695312 32.183594 155.589844 48.414062 179.910156 81.527344 C 204.230469 48.414062 244.132812 32.183594 281.453125 40.894531 C 283.332031 41.335938 327.625 52.113281 345.035156 94.898438 C 359.917969 131.46875 348.738281 175.117188 317.222656 203.558594 L 184.09375 336.6875 C 183.761719 336.992188 182.226562 338.332031 179.867188 338.316406 Z M 80.726562 51.023438 C 78.265625 51.597656 39.675781 61.308594 24.414062 98.816406 C 11.164062 131.382812 21.308594 170.40625 49.65625 195.921875 L 49.855469 196.109375 L 179.910156 326.167969 L 310.058594 196.015625 L 310.160156 195.921875 C 338.511719 170.40625 348.65625 131.382812 335.40625 98.816406 C 320 60.960938 280.753906 51.410156 279.089844 51.023438 C 243.71875 42.765625 205.628906 59.847656 184.300781 93.523438 L 179.910156 100.460938 L 175.515625 93.523438 C 154.195312 59.644531 115.785156 42.820312 80.726562 51.023438 Z M 80.726562 51.023438 " fill-opacity="1" fill-rule="nonzero"/></g></svg>