<?xml version="1.0" encoding="UTF-8" standalone="no"?>
<svg
   xmlns:dc="http://purl.org/dc/elements/1.1/"
   xmlns:cc="http://creativecommons.org/ns#"
   xmlns:rdf="http://www.w3.org/1999/02/22-rdf-syntax-ns#"
   xmlns:svg="http://www.w3.org/2000/svg"
   xmlns="http://www.w3.org/2000/svg"
   viewBox="39 50 127 106"
   height="106"
   width="127"
   xml:space="preserve"
   id="svg2"
   version="1.1"><metadata
     id="metadata8"><rdf:RDF><cc:Work
         rdf:about=""><dc:format>image/svg+xml</dc:format><dc:type
           rdf:resource="http://purl.org/dc/dcmitype/StillImage" /></cc:Work></rdf:RDF></metadata><defs
     id="defs6"><clipPath
       id="clipPath18"
       clipPathUnits="userSpaceOnUse"><path
         id="path16"
         d="M 0,160 H 160 V 0 H 0 Z" /></clipPath><clipPath
       id="clipPath34"
       clipPathUnits="userSpaceOnUse"><path
         id="path32"
         d="M 0,160 H 160 V 0 H 0 Z" /></clipPath><clipPath
       id="clipPath50"
       clipPathUnits="userSpaceOnUse"><path
         id="path48"
         d="M 0,160 H 160 V 0 H 0 Z" /></clipPath><clipPath
       id="clipPath66"
       clipPathUnits="userSpaceOnUse"><path
         id="path64"
         d="M 0,160 H 160 V 0 H 0 Z" /></clipPath></defs><g
     transform="matrix(1.3333333,0,0,-1.3333333,0,213.33333)"
     id="g10"><g
       id="g12"><g
         clip-path="url(#clipPath18)"
         id="g14"><g
           transform="translate(111.7166,84.8022)"
           id="g20"><path
             id="path22"
             style="fill:#b99887;fill-opacity:1;fill-rule:nonzero;stroke:none"
             d="m 0,0 c -0.186,1.171 -0.532,2.311 -0.993,3.39 -0.546,1.275 -1.256,2.468 -2.101,3.536 -0.204,0.257 -0.416,0.508 -0.635,0.751 -0.25,0.276 -0.459,0.47 -0.585,0.708 -0.119,0.224 -0.164,0.487 -0.1,0.894 0.114,0.717 0.146,1.392 0.168,2.118 0.036,1.186 0.061,2.373 0.066,3.559 0.01,2.371 -0.057,4.745 -0.262,7.106 -0.071,0.811 -0.159,1.63 -0.419,2.395 -0.671,1.979 -2.556,3.398 -4.505,3.393 -0.607,-0.001 -1.209,-0.128 -1.8,-0.276 -2.679,-0.668 -5.255,-1.797 -7.618,-3.314 -1.327,-0.851 -2.586,-1.826 -3.759,-2.91 -0.533,-0.492 -1.048,-1.008 -1.543,-1.544 -0.366,-0.397 -0.672,-1.035 -1.109,-1.339 -0.415,-0.288 -0.976,0.002 -1.434,0.048 -0.599,0.061 -1.199,0.114 -1.799,0.157 -1.227,0.089 -2.456,0.141 -3.686,0.155 -1.742,0.023 -3.491,0.021 -5.234,0 -1.229,-0.014 -2.458,-0.066 -3.685,-0.155 -0.601,-0.043 -1.2,-0.096 -1.799,-0.157 -0.458,-0.046 -1.019,-0.336 -1.434,-0.048 -0.437,0.304 -0.744,0.942 -1.11,1.339 -0.495,0.536 -1.009,1.052 -1.542,1.544 -1.173,1.084 -2.432,2.059 -3.759,2.91 -2.363,1.517 -4.939,2.646 -7.618,3.314 -0.591,0.148 -1.193,0.275 -1.8,0.276 -1.95,0.005 -3.835,-1.414 -4.505,-3.393 -0.26,-0.765 -0.349,-1.584 -0.419,-2.395 -0.205,-2.361 -0.272,-4.735 -0.262,-7.106 0.005,-1.186 0.029,-2.373 0.066,-3.559 0.022,-0.726 0.054,-1.401 0.167,-2.118 0.065,-0.407 0.02,-0.67 -0.099,-0.894 -0.126,-0.238 -0.335,-0.432 -0.585,-0.708 -0.22,-0.243 -0.432,-0.494 -0.636,-0.751 -0.47,-0.595 -0.899,-1.228 -1.28,-1.893 -0.304,-0.529 -0.578,-1.078 -0.82,-1.643 -0.461,-1.079 -0.807,-2.219 -0.993,-3.39 -0.63,-3.958 -0.03,-7.821 2.054,-11.105 0.137,-0.216 0.279,-0.428 0.428,-0.638 0.779,-1.094 1.68,-2.094 2.72,-2.895 0.293,-0.226 0.597,-0.436 0.907,-0.632 0.566,-0.358 1.161,-0.655 1.763,-0.934 0.51,-0.236 1.025,-0.46 1.533,-0.695 1.158,-0.538 2.315,-1.078 3.475,-1.612 1.861,-0.856 3.728,-1.696 5.608,-2.501 0.541,-0.232 1.083,-0.461 1.626,-0.686 v 0 c 0.992,-0.411 1.985,-0.819 2.982,-1.215 1.373,-0.545 2.755,-1.067 4.152,-1.536 1.037,-0.349 2.082,-0.668 3.138,-0.947 1.456,-0.385 2.898,-0.713 4.344,-0.693 1.446,-0.02 2.889,0.308 4.345,0.693 1,0.264 1.991,0.565 2.975,0.893 1.452,0.483 2.888,1.024 4.314,1.59 0.098,0.038 0.196,0.077 0.293,0.116 0.461,0.184 0.921,0.371 1.381,0.559 0.437,0.179 0.873,0.359 1.309,0.54 2.431,1.008 4.838,2.085 7.234,3.187 1.16,0.534 2.317,1.074 3.475,1.612 1.109,0.514 2.251,0.969 3.296,1.629 0.31,0.196 0.614,0.406 0.907,0.632 1.04,0.801 1.941,1.801 2.719,2.895 0.112,0.157 0.22,0.315 0.324,0.475 C 0.01,-7.949 0.64,-4.024 0,0" /></g><g
           transform="translate(111.7166,84.8022)"
           id="g24"><path
             id="path26"
             style="fill:none;stroke:#b99887;stroke-width:1.09300005;stroke-linecap:butt;stroke-linejoin:round;stroke-miterlimit:10;stroke-dasharray:none;stroke-opacity:1"
             d="m 0,0 c -0.186,1.171 -0.532,2.311 -0.993,3.39 -0.546,1.275 -1.256,2.468 -2.101,3.536 -0.204,0.257 -0.416,0.508 -0.635,0.751 -0.25,0.276 -0.459,0.47 -0.585,0.708 -0.119,0.224 -0.164,0.487 -0.1,0.894 0.114,0.717 0.146,1.392 0.168,2.118 0.036,1.186 0.061,2.373 0.066,3.559 0.01,2.371 -0.057,4.745 -0.262,7.106 -0.071,0.811 -0.159,1.63 -0.419,2.395 -0.671,1.979 -2.556,3.398 -4.505,3.393 -0.607,-0.001 -1.209,-0.128 -1.8,-0.276 -2.679,-0.668 -5.255,-1.797 -7.618,-3.314 -1.327,-0.851 -2.586,-1.826 -3.759,-2.91 -0.533,-0.492 -1.048,-1.008 -1.543,-1.544 -0.366,-0.397 -0.672,-1.035 -1.109,-1.339 -0.415,-0.288 -0.976,0.002 -1.434,0.048 -0.599,0.061 -1.199,0.114 -1.799,0.157 -1.227,0.089 -2.456,0.141 -3.686,0.155 -1.742,0.023 -3.491,0.021 -5.234,0 -1.229,-0.014 -2.458,-0.066 -3.685,-0.155 -0.601,-0.043 -1.2,-0.096 -1.799,-0.157 -0.458,-0.046 -1.019,-0.336 -1.434,-0.048 -0.437,0.304 -0.744,0.942 -1.11,1.339 -0.495,0.536 -1.009,1.052 -1.542,1.544 -1.173,1.084 -2.432,2.059 -3.759,2.91 -2.363,1.517 -4.939,2.646 -7.618,3.314 -0.591,0.148 -1.193,0.275 -1.8,0.276 -1.95,0.005 -3.835,-1.414 -4.505,-3.393 -0.26,-0.765 -0.349,-1.584 -0.419,-2.395 -0.205,-2.361 -0.272,-4.735 -0.262,-7.106 0.005,-1.186 0.029,-2.373 0.066,-3.559 0.022,-0.726 0.054,-1.401 0.167,-2.118 0.065,-0.407 0.02,-0.67 -0.099,-0.894 -0.126,-0.238 -0.335,-0.432 -0.585,-0.708 -0.22,-0.243 -0.432,-0.494 -0.636,-0.751 -0.47,-0.595 -0.899,-1.228 -1.28,-1.893 -0.304,-0.529 -0.578,-1.078 -0.82,-1.643 -0.461,-1.079 -0.807,-2.219 -0.993,-3.39 -0.63,-3.958 -0.03,-7.821 2.054,-11.105 0.137,-0.216 0.279,-0.428 0.428,-0.638 0.779,-1.094 1.68,-2.094 2.72,-2.895 0.293,-0.226 0.597,-0.436 0.907,-0.632 0.566,-0.358 1.161,-0.655 1.763,-0.934 0.51,-0.236 1.025,-0.46 1.533,-0.695 1.158,-0.538 2.315,-1.078 3.475,-1.612 1.861,-0.856 3.728,-1.696 5.608,-2.501 0.541,-0.232 1.083,-0.461 1.626,-0.686 v 0 c 0.992,-0.411 1.985,-0.819 2.982,-1.215 1.373,-0.545 2.755,-1.067 4.152,-1.536 1.037,-0.349 2.082,-0.668 3.138,-0.947 1.456,-0.385 2.898,-0.713 4.344,-0.693 1.446,-0.02 2.889,0.308 4.345,0.693 1,0.264 1.991,0.565 2.975,0.893 1.452,0.483 2.888,1.024 4.314,1.59 0.098,0.038 0.196,0.077 0.293,0.116 0.461,0.184 0.921,0.371 1.381,0.559 0.437,0.179 0.873,0.359 1.309,0.54 2.431,1.008 4.838,2.085 7.234,3.187 1.16,0.534 2.317,1.074 3.475,1.612 1.109,0.514 2.251,0.969 3.296,1.629 0.31,0.196 0.614,0.406 0.907,0.632 1.04,0.801 1.941,1.801 2.719,2.895 0.112,0.157 0.22,0.315 0.324,0.475 C 0.01,-7.949 0.64,-4.024 0,0 Z" /></g></g></g><g
       id="g28"><g
         clip-path="url(#clipPath34)"
         id="g30"><g
           transform="translate(66.8691,109.5217)"
           id="g36"><path
             id="path38"
             style="fill:#b99887;fill-opacity:1;fill-rule:nonzero;stroke:none"
             d="m 0,0 c -0.988,0.969 -2.049,1.839 -3.167,2.6 2.518,5.148 7.59,8.666 13.436,8.666 5.847,0 10.918,-3.518 13.436,-8.666 C 22.587,1.839 21.526,0.969 20.539,0 c -0.449,-0.44 -0.883,-0.901 -1.3,-1.38 -0.309,-0.355 -0.567,-0.925 -0.935,-1.196 -0.35,-0.258 -0.823,10e-4 -1.208,0.043 -0.505,0.054 -1.011,0.101 -1.516,0.14 -1.034,0.079 -2.07,0.125 -3.106,0.138 -1.468,0.02 -2.942,0.019 -4.41,0 C 7.028,-2.268 5.993,-2.314 4.959,-2.393 4.453,-2.432 3.948,-2.479 3.443,-2.533 3.057,-2.575 2.584,-2.834 2.235,-2.576 1.867,-2.305 1.608,-1.735 1.3,-1.38 0.883,-0.901 0.449,-0.44 0,0" /></g><g
           transform="translate(66.8691,109.5217)"
           id="g40"><path
             id="path42"
             style="fill:none;stroke:#b99887;stroke-width:1.074;stroke-linecap:butt;stroke-linejoin:round;stroke-miterlimit:10;stroke-dasharray:none;stroke-opacity:1"
             d="m 0,0 c -0.988,0.969 -2.049,1.839 -3.167,2.6 2.518,5.148 7.59,8.666 13.436,8.666 5.847,0 10.918,-3.518 13.436,-8.666 C 22.587,1.839 21.526,0.969 20.539,0 c -0.449,-0.44 -0.883,-0.901 -1.3,-1.38 -0.309,-0.355 -0.567,-0.925 -0.935,-1.196 -0.35,-0.258 -0.823,10e-4 -1.208,0.043 -0.505,0.054 -1.011,0.101 -1.516,0.14 -1.034,0.079 -2.07,0.125 -3.106,0.138 -1.468,0.02 -2.942,0.019 -4.41,0 C 7.028,-2.268 5.993,-2.314 4.959,-2.393 4.453,-2.432 3.948,-2.479 3.443,-2.533 3.057,-2.575 2.584,-2.834 2.235,-2.576 1.867,-2.305 1.608,-1.735 1.3,-1.38 0.883,-0.901 0.449,-0.44 0,0 Z" /></g></g></g><g
       id="g44"><g
         clip-path="url(#clipPath50)"
         id="g46"><g
           transform="translate(72.9505,84.975)"
           id="g52"><path
             id="path54"
             style="fill:#ffffff;fill-opacity:1;fill-rule:nonzero;stroke:none"
             d="m 0,0 c -0.478,-3.398 -3.118,-5.836 -5.898,-5.445 -2.78,0.391 -4.647,3.462 -4.169,6.86 0.477,3.398 3.118,5.836 5.898,5.445 C -1.389,6.469 0.478,3.398 0,0" /></g><g
           transform="translate(91.7297,86.3893)"
           id="g56"><path
             id="path58"
             style="fill:#ffffff;fill-opacity:1;fill-rule:nonzero;stroke:none"
             d="m 0,0 c 0.491,-3.496 -1.362,-6.647 -4.14,-7.037 -2.777,-0.391 -5.427,2.127 -5.919,5.623 -0.491,3.497 1.362,6.647 4.14,7.038 C -3.141,6.014 -0.491,3.496 0,0" /></g></g></g><g
       id="g60"><g
         clip-path="url(#clipPath66)"
         id="g62"><g
           transform="translate(40.4215,73.0759)"
           id="g68"><path
             id="path70"
             style="fill:#b99887;fill-opacity:1;fill-rule:nonzero;stroke:none"
             d="m 0,0 c -1.193,-1.553 -2.073,-3.359 -2.546,-5.323 -4.052,1.66 -6.906,5.642 -6.906,10.291 0,5.533 4.042,10.121 9.333,10.974 C -0.422,15.413 -0.696,14.864 -0.938,14.299 -1.4,13.22 -1.745,12.08 -1.932,10.909 -2.549,7.03 -1.985,3.241 0,0" /></g><g
           transform="translate(40.4215,73.0759)"
           id="g72"><path
             id="path74"
             style="fill:none;stroke:#b99887;stroke-width:1.09300005;stroke-linecap:butt;stroke-linejoin:round;stroke-miterlimit:10;stroke-dasharray:none;stroke-opacity:1"
             d="m 0,0 c -1.193,-1.553 -2.073,-3.359 -2.546,-5.323 -4.052,1.66 -6.906,5.642 -6.906,10.291 0,5.533 4.042,10.121 9.333,10.974 C -0.422,15.413 -0.696,14.864 -0.938,14.299 -1.4,13.22 -1.745,12.08 -1.932,10.909 -2.549,7.03 -1.985,3.241 0,0 Z" /></g><g
           transform="translate(63.7655,58.62)"
           id="g76"><path
             id="path78"
             style="fill:#b99887;fill-opacity:1;fill-rule:nonzero;stroke:none"
             d="m 0,0 c 1.373,-0.545 2.755,-1.066 4.151,-1.536 -2.317,-4.74 -7.186,-8.005 -12.818,-8.005 -7.875,0 -14.26,6.384 -14.26,14.26 0,2.58 0.686,5.001 1.885,7.089 0.136,-0.215 0.279,-0.428 0.428,-0.638 0.778,-1.094 1.679,-2.094 2.719,-2.895 0.293,-0.226 0.597,-0.436 0.908,-0.632 0.566,-0.358 1.16,-0.655 1.763,-0.934 0.509,-0.236 1.024,-0.459 1.532,-0.695 1.158,-0.538 2.316,-1.078 3.476,-1.611 C -7.82,3.301 -5.414,2.224 -2.983,1.216 -1.991,0.804 -0.997,0.396 0,0" /></g><g
           transform="translate(63.7655,58.62)"
           id="g80"><path
             id="path82"
             style="fill:none;stroke:#b99887;stroke-width:1.09300005;stroke-linecap:butt;stroke-linejoin:round;stroke-miterlimit:10;stroke-dasharray:none;stroke-opacity:1"
             d="m 0,0 c 1.373,-0.545 2.755,-1.066 4.151,-1.536 -2.317,-4.74 -7.186,-8.005 -12.818,-8.005 -7.875,0 -14.26,6.384 -14.26,14.26 0,2.58 0.686,5.001 1.885,7.089 0.136,-0.215 0.279,-0.428 0.428,-0.638 0.778,-1.094 1.679,-2.094 2.719,-2.895 0.293,-0.226 0.597,-0.436 0.908,-0.632 0.566,-0.358 1.16,-0.655 1.763,-0.934 0.509,-0.236 1.024,-0.459 1.532,-0.695 1.158,-0.538 2.316,-1.078 3.476,-1.611 C -7.82,3.301 -5.414,2.224 -2.983,1.216 -1.991,0.804 -0.997,0.396 0,0 Z" /></g><g
           transform="translate(113.4412,73.8351)"
           id="g84"><path
             id="path86"
             style="fill:#b99887;fill-opacity:1;fill-rule:nonzero;stroke:none"
             d="m 0,0 c 1.193,-1.553 2.073,-3.359 2.546,-5.323 4.052,1.66 6.906,5.642 6.906,10.291 0,5.533 -4.042,10.121 -9.333,10.974 C 0.422,15.413 0.696,14.864 0.938,14.299 1.4,13.22 1.745,12.08 1.932,10.909 2.549,7.03 1.985,3.241 0,0" /></g><g
           transform="translate(113.4412,73.8351)"
           id="g88"><path
             id="path90"
             style="fill:none;stroke:#b99887;stroke-width:1.09300005;stroke-linecap:butt;stroke-linejoin:round;stroke-miterlimit:10;stroke-dasharray:none;stroke-opacity:1"
             d="m 0,0 c 1.193,-1.553 2.073,-3.359 2.546,-5.323 4.052,1.66 6.906,5.642 6.906,10.291 0,5.533 -4.042,10.121 -9.333,10.974 C 0.422,15.413 0.696,14.864 0.938,14.299 1.4,13.22 1.745,12.08 1.932,10.909 2.549,7.03 1.985,3.241 0,0 Z" /></g><g
           transform="translate(82.5913,56.144)"
           id="g92"><path
             id="path94"
             style="fill:#b99887;fill-opacity:1;fill-rule:nonzero;stroke:#b99887;stroke-width:1.09300005;stroke-linecap:butt;stroke-linejoin:round;stroke-miterlimit:10;stroke-dasharray:none;stroke-opacity:1"
             d="m 0,0 c 0.935,-2.216 2.475,-4.173 4.408,-5.604 -1.366,-2.057 -3.36,-3.662 -5.594,-4.712 -3.608,-1.695 -7.877,-1.933 -11.651,-0.649 -2.963,1.007 -5.631,2.957 -7.322,5.59 -1.691,2.634 -2.351,5.952 -1.6,8.99 3.561,-1.159 7.002,-2.696 10.626,-3.64 0.17,-0.044 0.34,-0.086 0.511,-0.128 0.172,-0.041 0.344,-0.081 0.516,-0.12 0.173,-0.038 0.347,-0.075 0.52,-0.11 0.174,-0.035 0.348,-0.069 0.522,-0.1 0.175,-0.032 0.35,-0.062 0.525,-0.09 0.175,-0.028 0.35,-0.054 0.526,-0.078 0.176,-0.025 0.352,-0.047 0.528,-0.067 0.176,-0.02 0.352,-0.038 0.528,-0.054 0.176,-0.015 0.352,-0.029 0.529,-0.04 0.176,-0.011 0.352,-0.02 0.529,-0.027 0.176,-0.007 0.352,-0.011 0.528,-0.013 0.176,-0.001 0.352,-0.001 0.528,0.003 0.175,0.003 0.351,0.009 0.526,0.018 0.175,0.009 0.35,0.02 0.525,0.034 0.174,0.014 0.348,0.031 0.522,0.051 0.174,0.02 0.347,0.043 0.52,0.069 0.173,0.026 0.345,0.054 0.517,0.086 0.171,0.032 0.342,0.067 0.513,0.106 0.17,0.038 0.34,0.079 0.509,0.124 0.17,0.045 0.338,0.093 0.505,0.144 0.168,0.052 0.335,0.107 0.501,0.165 0.037,0.013 0.076,0.031 0.115,0.04 0.012,0.003 0.024,0.003 0.037,0.005 0.017,0.002 0.035,0.01 0.053,0.006 -0.011,-0.01 -0.021,-0.022 -0.032,-0.032" /></g><g
           transform="translate(111.5957,70.663)"
           id="g96"><path
             id="path98"
             style="fill:#b99887;fill-opacity:1;fill-rule:nonzero;stroke:none"
             d="m 0,0 c -0.104,-0.16 -0.212,-0.318 -0.324,-0.475 -0.778,-1.094 -1.679,-2.094 -2.719,-2.895 -0.293,-0.226 -0.597,-0.436 -0.908,-0.632 -1.044,-0.66 -2.186,-1.115 -3.295,-1.629 -1.158,-0.538 -2.316,-1.078 -3.476,-1.612 -2.395,-1.102 -4.802,-2.179 -7.233,-3.187 -0.436,-0.18 -0.873,-0.361 -1.31,-0.539 -0.066,-0.028 -0.132,-0.055 -0.198,-0.082 -0.491,-0.2 -0.982,-0.399 -1.475,-0.594 -1.426,-0.566 -2.862,-1.107 -4.314,-1.59 0.897,-1.849 2.181,-3.475 3.747,-4.772 2.468,-2.045 5.636,-3.274 9.091,-3.274 7.875,0 14.26,6.384 14.26,14.26 C 1.846,-4.469 1.175,-2.073 0,0" /></g><g
           transform="translate(111.5957,70.663)"
           id="g100"><path
             id="path102"
             style="fill:none;stroke:#b99887;stroke-width:1.09300005;stroke-linecap:butt;stroke-linejoin:round;stroke-miterlimit:10;stroke-dasharray:none;stroke-opacity:1"
             d="m 0,0 c -0.104,-0.16 -0.212,-0.318 -0.324,-0.475 -0.778,-1.094 -1.679,-2.094 -2.719,-2.895 -0.293,-0.226 -0.597,-0.436 -0.908,-0.632 -1.044,-0.66 -2.186,-1.115 -3.295,-1.629 -1.158,-0.538 -2.316,-1.078 -3.476,-1.612 -2.395,-1.102 -4.802,-2.179 -7.233,-3.187 -0.436,-0.18 -0.873,-0.361 -1.31,-0.539 -0.066,-0.028 -0.132,-0.055 -0.198,-0.082 -0.491,-0.2 -0.982,-0.399 -1.475,-0.594 -1.426,-0.566 -2.862,-1.107 -4.314,-1.59 0.897,-1.849 2.181,-3.475 3.747,-4.772 2.468,-2.045 5.636,-3.274 9.091,-3.274 7.875,0 14.26,6.384 14.26,14.26 C 1.846,-4.469 1.175,-2.073 0,0 Z" /></g><g
           transform="translate(62.1469,50.3505)"
           id="g104"><path
             id="path106"
             style="fill:none;stroke:#676359;stroke-width:0.17900001;stroke-linecap:round;stroke-linejoin:miter;stroke-miterlimit:10;stroke-dasharray:none;stroke-opacity:1"
             d="m 0,0 c -0.291,0.321 -0.749,0.908 -1.02,1.741 -0.22,0.674 -0.223,1.218 -0.219,1.402 0.004,0.232 0.016,0.655 0.205,1.143 0.137,0.356 0.317,0.613 0.454,0.78" /></g></g></g></g></svg>