<svg xmlns="http://www.w3.org/2000/svg" xmlns:xlink="http://www.w3.org/1999/xlink" width="480" zoomAndPan="magnify" viewBox="0 0 360 359.999987" height="480" preserveAspectRatio="xMidYMid meet" version="1.0"><defs><clipPath id="8b6a6a9811"><path d="M 2 2 L 358 2 L 358 358 L 2 358 Z M 2 2 " clip-rule="nonzero"/></clipPath><clipPath id="dbf105b8e4"><path d="M -54.292969 80.46875 L 279.53125 -54.292969 L 414.292969 279.53125 L 80.46875 414.292969 Z M -54.292969 80.46875 " clip-rule="nonzero"/></clipPath><clipPath id="8b2f8f29e9"><path d="M -54.292969 80.46875 L 279.53125 -54.292969 L 414.292969 279.53125 L 80.46875 414.292969 Z M -54.292969 80.46875 " clip-rule="nonzero"/></clipPath></defs><g clip-path="url(#8b6a6a9811)"><g clip-path="url(#dbf105b8e4)"><g clip-path="url(#8b2f8f29e9)"><path fill="#b99887" d="M 319.695312 81.265625 L 305.820312 86.867188 C 304.257812 87.496094 302.332031 86.9375 301.136719 85.480469 C 293.859375 76.164062 285.601562 67.730469 276.59375 60.449219 C 275.171875 59.324219 274.726562 57.320312 275.347656 55.855469 L 281.257812 41.945312 C 284.078125 35.105469 280.917969 27.28125 274.183594 24.417969 L 226.589844 4.203125 C 222.09375 2.378906 218.460938 2.996094 216.167969 3.921875 C 213.871094 4.847656 210.828125 6.925781 208.855469 11.359375 L 203.050781 25.230469 C 202.429688 26.695312 200.636719 27.660156 198.839844 27.417969 C 187.449219 25.949219 175.644531 25.859375 163.636719 27.070312 C 161.902344 27.28125 160.3125 26.347656 159.640625 24.679688 L 154.039062 10.804688 C 151.257812 3.917969 143.394531 0.664062 136.507812 3.445312 L 88.519531 22.816406 C 81.738281 25.554688 78.441406 33.3125 81.222656 40.199219 L 86.824219 54.074219 C 87.457031 55.636719 86.792969 57.605469 85.398438 58.652344 C 76.082031 65.933594 67.648438 74.191406 60.300781 83.34375 C 59.179688 84.765625 57.214844 85.316406 55.75 84.695312 L 42.867188 79.21875 C 36.085938 75.648438 26.050781 80.546875 24.417969 85.816406 L 4.617188 132.632812 C 2.726562 136.066406 2.511719 140.035156 3.984375 143.6875 C 5.414062 147.234375 8.371094 150.046875 11.277344 150.933594 L 24.9375 156.824219 C 26.546875 157.507812 27.515625 159.300781 27.269531 161.097656 C 25.84375 172.59375 25.757812 184.398438 26.921875 196.300781 C 27.136719 198.035156 26.242188 199.730469 24.679688 200.359375 L 10.699219 206.003906 C 3.917969 208.742188 0.664062 216.605469 3.402344 223.386719 L 22.773438 271.375 C 25.554688 278.261719 33.3125 281.558594 40.09375 278.820312 L 54.074219 273.175781 C 55.535156 272.585938 57.457031 273.144531 58.613281 274.5 C 65.933594 283.917969 74.230469 292.457031 83.195312 299.636719 C 84.664062 300.863281 85.230469 302.574219 84.546875 304.1875 L 78.636719 318.097656 C 75.714844 324.980469 78.832031 332.699219 85.816406 335.582031 L 132.675781 355.488281 C 136.066406 357.273438 140.140625 357.449219 143.6875 356.015625 C 147.234375 354.585938 149.941406 351.671875 150.933594 348.722656 L 156.78125 334.957031 C 157.464844 333.347656 159.257812 332.382812 160.953125 332.667969 C 173.054688 334.09375 185.003906 334.242188 196.007812 332.953125 C 197.886719 332.800781 199.730469 333.757812 200.359375 335.320312 L 206.003906 349.300781 C 208.742188 356.082031 216.503906 359.378906 223.285156 356.640625 L 271.269531 337.269531 C 278.15625 334.488281 281.558594 326.6875 278.820312 319.90625 L 273.175781 305.925781 C 272.542969 304.359375 273.101562 302.4375 274.351562 301.328125 C 283.4375 294.382812 291.875 286.125 299.386719 276.785156 C 300.507812 275.359375 302.472656 274.808594 304.082031 275.496094 L 318.726562 281.714844 C 325.167969 283.847656 332.050781 281.066406 335.476562 274.222656 L 356.066406 225.753906 C 358.242188 219.417969 355.460938 212.53125 348.679688 208.960938 L 334.8125 203.15625 C 333.203125 202.472656 332.277344 200.78125 332.523438 198.984375 C 333.949219 187.492188 334.035156 175.6875 332.808594 163.929688 C 332.695312 162.152344 333.652344 160.3125 335.21875 159.679688 L 349.089844 154.078125 C 355.976562 151.300781 359.378906 143.496094 356.597656 136.613281 L 337.226562 88.625 C 334.488281 81.84375 326.582031 78.484375 319.695312 81.265625 Z M 250.292969 224.292969 C 241.105469 238.800781 228.105469 249.875 212.582031 256.503906 L 211.015625 257.136719 C 179.617188 269.8125 142.804688 261.863281 119.535156 237.285156 C 95.578125 211.898438 90.003906 173.746094 105.738281 142.402344 C 121.246094 111.394531 156.179688 93.042969 190.644531 97.574219 C 230.058594 102.648438 261.210938 136.539062 263.113281 176.414062 C 263.835938 193.230469 259.4375 209.683594 250.292969 224.292969 Z M 250.292969 224.292969 " fill-opacity="1" fill-rule="nonzero"/></g></g></g></svg>