<svg xmlns="http://www.w3.org/2000/svg" xmlns:xlink="http://www.w3.org/1999/xlink" width="480" zoomAndPan="magnify" viewBox="0 0 360 367.91998" height="480" preserveAspectRatio="xMidYMid meet" version="1.0"><defs><clipPath id="aed8d57a12"><path d="M 0.0390625 0 L 359.960938 0 L 359.960938 359.921875 L 0.0390625 359.921875 Z M 0.0390625 0 " clip-rule="nonzero"/></clipPath></defs><g clip-path="url(#aed8d57a12)"><path fill="#5170ff" d="M 359.960938 179.960938 C 359.960938 182.90625 359.886719 185.847656 359.742188 188.792969 C 359.597656 191.734375 359.382812 194.667969 359.09375 197.601562 C 358.804688 200.53125 358.445312 203.453125 358.011719 206.367188 C 357.582031 209.28125 357.078125 212.179688 356.503906 215.070312 C 355.929688 217.957031 355.285156 220.832031 354.566406 223.6875 C 353.851562 226.542969 353.066406 229.382812 352.210938 232.199219 C 351.355469 235.019531 350.433594 237.816406 349.441406 240.585938 C 348.449219 243.359375 347.390625 246.109375 346.261719 248.828125 C 345.136719 251.550781 343.941406 254.242188 342.683594 256.902344 C 341.421875 259.566406 340.101562 262.195312 338.710938 264.792969 C 337.324219 267.390625 335.871094 269.953125 334.359375 272.480469 C 332.84375 275.003906 331.269531 277.492188 329.632812 279.941406 C 327.996094 282.390625 326.300781 284.796875 324.546875 287.164062 C 322.792969 289.527344 320.980469 291.851562 319.113281 294.125 C 317.242188 296.402344 315.320312 298.632812 313.34375 300.816406 C 311.363281 302.996094 309.335938 305.128906 307.25 307.210938 C 305.167969 309.296875 303.035156 311.324219 300.855469 313.304688 C 298.671875 315.28125 296.441406 317.203125 294.164062 319.074219 C 291.890625 320.941406 289.566406 322.753906 287.203125 324.507812 C 284.835938 326.261719 282.429688 327.957031 279.980469 329.59375 C 277.53125 331.230469 275.042969 332.804688 272.519531 334.320312 C 269.992188 335.832031 267.429688 337.285156 264.832031 338.671875 C 262.234375 340.058594 259.605469 341.382812 256.941406 342.644531 C 254.28125 343.902344 251.589844 345.097656 248.867188 346.222656 C 246.148438 347.351562 243.398438 348.410156 240.628906 349.402344 C 237.855469 350.394531 235.058594 351.316406 232.238281 352.171875 C 229.421875 353.027344 226.582031 353.8125 223.726562 354.527344 C 220.871094 355.242188 217.996094 355.890625 215.109375 356.464844 C 212.21875 357.039062 209.320312 357.542969 206.40625 357.972656 C 203.492188 358.40625 200.570312 358.765625 197.640625 359.054688 C 194.707031 359.34375 191.773438 359.558594 188.832031 359.703125 C 185.886719 359.847656 182.945312 359.921875 180 359.921875 C 177.054688 359.921875 174.113281 359.847656 171.167969 359.703125 C 168.226562 359.558594 165.292969 359.34375 162.359375 359.054688 C 159.429688 358.765625 156.507812 358.40625 153.59375 357.972656 C 150.679688 357.542969 147.78125 357.039062 144.890625 356.464844 C 142.003906 355.890625 139.128906 355.242188 136.273438 354.527344 C 133.417969 353.8125 130.578125 353.027344 127.761719 352.171875 C 124.941406 351.316406 122.144531 350.394531 119.371094 349.402344 C 116.601562 348.410156 113.851562 347.351562 111.132812 346.222656 C 108.410156 345.097656 105.71875 343.902344 103.058594 342.644531 C 100.394531 341.382812 97.765625 340.058594 95.167969 338.671875 C 92.570312 337.285156 90.007812 335.832031 87.480469 334.320312 C 84.957031 332.804688 82.46875 331.230469 80.019531 329.59375 C 77.570312 327.957031 75.164062 326.261719 72.796875 324.507812 C 70.433594 322.753906 68.109375 320.941406 65.835938 319.074219 C 63.558594 317.203125 61.328125 315.28125 59.144531 313.304688 C 56.964844 311.324219 54.832031 309.296875 52.75 307.210938 C 50.664062 305.128906 48.636719 302.996094 46.65625 300.816406 C 44.679688 298.632812 42.757812 296.402344 40.886719 294.125 C 39.019531 291.851562 37.207031 289.527344 35.453125 287.164062 C 33.699219 284.796875 32.003906 282.390625 30.367188 279.941406 C 28.730469 277.492188 27.15625 275.003906 25.640625 272.480469 C 24.128906 269.953125 22.675781 267.390625 21.289062 264.792969 C 19.898438 262.195312 18.578125 259.566406 17.316406 256.902344 C 16.058594 254.242188 14.863281 251.550781 13.738281 248.828125 C 12.609375 246.109375 11.550781 243.359375 10.558594 240.585938 C 9.566406 237.816406 8.644531 235.019531 7.789062 232.199219 C 6.933594 229.382812 6.148438 226.542969 5.433594 223.6875 C 4.714844 220.832031 4.070312 217.957031 3.496094 215.070312 C 2.921875 212.179688 2.417969 209.28125 1.988281 206.367188 C 1.554688 203.453125 1.195312 200.53125 0.90625 197.601562 C 0.617188 194.667969 0.402344 191.734375 0.257812 188.792969 C 0.113281 185.847656 0.0390625 182.90625 0.0390625 179.960938 C 0.0390625 177.015625 0.113281 174.070312 0.257812 171.128906 C 0.402344 168.1875 0.617188 165.253906 0.90625 162.320312 C 1.195312 159.390625 1.554688 156.46875 1.988281 153.554688 C 2.417969 150.640625 2.921875 147.742188 3.496094 144.851562 C 4.070312 141.964844 4.714844 139.089844 5.433594 136.234375 C 6.148438 133.378906 6.933594 130.539062 7.789062 127.722656 C 8.644531 124.902344 9.566406 122.105469 10.558594 119.332031 C 11.550781 116.5625 12.609375 113.8125 13.738281 111.09375 C 14.863281 108.371094 16.058594 105.679688 17.316406 103.019531 C 18.578125 100.355469 19.898438 97.726562 21.289062 95.128906 C 22.675781 92.53125 24.128906 89.96875 25.640625 87.441406 C 27.15625 84.917969 28.730469 82.429688 30.367188 79.980469 C 32.003906 77.53125 33.699219 75.125 35.453125 72.757812 C 37.207031 70.394531 39.019531 68.070312 40.886719 65.792969 C 42.757812 63.519531 44.679688 61.289062 46.65625 59.105469 C 48.636719 56.925781 50.664062 54.792969 52.75 52.710938 C 54.832031 50.625 56.964844 48.597656 59.144531 46.617188 C 61.328125 44.640625 63.558594 42.71875 65.835938 40.847656 C 68.109375 38.980469 70.433594 37.167969 72.796875 35.414062 C 75.164062 33.660156 77.570312 31.964844 80.019531 30.328125 C 82.46875 28.691406 84.957031 27.117188 87.480469 25.601562 C 90.007812 24.089844 92.570312 22.636719 95.167969 21.25 C 97.765625 19.859375 100.394531 18.539062 103.058594 17.277344 C 105.71875 16.019531 108.410156 14.824219 111.132812 13.699219 C 113.851562 12.570312 116.601562 11.511719 119.371094 10.519531 C 122.144531 9.527344 124.941406 8.605469 127.761719 7.75 C 130.578125 6.894531 133.417969 6.109375 136.273438 5.394531 C 139.128906 4.675781 142.003906 4.03125 144.890625 3.457031 C 147.78125 2.882812 150.679688 2.378906 153.59375 1.949219 C 156.507812 1.515625 159.429688 1.15625 162.359375 0.867188 C 165.292969 0.578125 168.226562 0.359375 171.167969 0.214844 C 174.113281 0.0703125 177.054688 0 180 0 C 182.945312 0 185.886719 0.0703125 188.832031 0.214844 C 191.773438 0.359375 194.707031 0.578125 197.640625 0.867188 C 200.570312 1.15625 203.492188 1.515625 206.40625 1.949219 C 209.320312 2.378906 212.21875 2.882812 215.109375 3.457031 C 217.996094 4.03125 220.871094 4.675781 223.726562 5.394531 C 226.582031 6.109375 229.421875 6.894531 232.238281 7.75 C 235.058594 8.605469 237.855469 9.527344 240.628906 10.519531 C 243.398438 11.511719 246.148438 12.570312 248.867188 13.699219 C 251.589844 14.824219 254.28125 16.019531 256.941406 17.277344 C 259.605469 18.539062 262.234375 19.859375 264.832031 21.25 C 267.429688 22.636719 269.992188 24.089844 272.519531 25.601562 C 275.042969 27.117188 277.53125 28.691406 279.980469 30.328125 C 282.429688 31.964844 284.835938 33.660156 287.203125 35.414062 C 289.566406 37.167969 291.890625 38.980469 294.164062 40.847656 C 296.441406 42.71875 298.671875 44.640625 300.855469 46.617188 C 303.035156 48.597656 305.167969 50.625 307.25 52.710938 C 309.335938 54.792969 311.363281 56.925781 313.34375 59.105469 C 315.320312 61.289062 317.242188 63.519531 319.113281 65.792969 C 320.980469 68.070312 322.792969 70.394531 324.546875 72.757812 C 326.300781 75.125 327.996094 77.53125 329.632812 79.980469 C 331.269531 82.429688 332.84375 84.917969 334.359375 87.441406 C 335.871094 89.96875 337.324219 92.53125 338.710938 95.128906 C 340.101562 97.726562 341.421875 100.355469 342.683594 103.019531 C 343.941406 105.679688 345.136719 108.371094 346.261719 111.09375 C 347.390625 113.8125 348.449219 116.5625 349.441406 119.332031 C 350.433594 122.105469 351.355469 124.902344 352.210938 127.722656 C 353.066406 130.539062 353.851562 133.378906 354.566406 136.234375 C 355.285156 139.089844 355.929688 141.964844 356.503906 144.851562 C 357.078125 147.742188 357.582031 150.640625 358.011719 153.554688 C 358.445312 156.46875 358.804688 159.390625 359.09375 162.320312 C 359.382812 165.253906 359.597656 168.1875 359.742188 171.128906 C 359.886719 174.070312 359.960938 177.015625 359.960938 179.960938 Z M 359.960938 179.960938 " fill-opacity="1" fill-rule="nonzero"/></g><path fill="#ffffff" d="M 84.636719 92.296875 L 84.636719 298.558594 C 84.636719 299.484375 85.351562 300.195312 86.277344 300.195312 L 273.722656 300.195312 C 274.648438 300.195312 275.363281 299.484375 275.363281 298.558594 L 275.363281 92.296875 Z M 84.636719 92.296875 " fill-opacity="1" fill-rule="nonzero"/><path fill="#b99887" d="M 275.363281 92.011719 L 275.363281 70.058594 C 275.363281 64.285156 270.730469 59.65625 264.957031 59.65625 L 95.042969 59.65625 C 89.269531 59.65625 84.636719 64.285156 84.636719 70.058594 L 84.636719 92.011719 Z M 275.363281 92.011719 " fill-opacity="1" fill-rule="nonzero"/><path fill="#ffffff" d="M 256.402344 75.832031 C 256.402344 76.28125 256.359375 76.726562 256.273438 77.167969 C 256.183594 77.609375 256.054688 78.035156 255.882812 78.453125 C 255.710938 78.867188 255.5 79.261719 255.25 79.632812 C 255 80.007812 254.71875 80.351562 254.398438 80.671875 C 254.082031 80.988281 253.734375 81.273438 253.363281 81.523438 C 252.988281 81.773438 252.59375 81.980469 252.179688 82.152344 C 251.765625 82.328125 251.335938 82.457031 250.894531 82.542969 C 250.457031 82.632812 250.011719 82.675781 249.5625 82.675781 C 249.113281 82.675781 248.667969 82.632812 248.226562 82.542969 C 247.785156 82.457031 247.359375 82.328125 246.941406 82.152344 C 246.527344 81.980469 246.132812 81.773438 245.761719 81.523438 C 245.386719 81.273438 245.039062 80.988281 244.722656 80.671875 C 244.40625 80.351562 244.121094 80.007812 243.871094 79.632812 C 243.621094 79.261719 243.410156 78.867188 243.238281 78.453125 C 243.066406 78.035156 242.9375 77.609375 242.851562 77.167969 C 242.761719 76.726562 242.71875 76.28125 242.71875 75.832031 C 242.71875 75.382812 242.761719 74.9375 242.851562 74.5 C 242.9375 74.058594 243.066406 73.628906 243.238281 73.214844 C 243.410156 72.800781 243.621094 72.40625 243.871094 72.03125 C 244.121094 71.660156 244.40625 71.3125 244.722656 70.996094 C 245.039062 70.675781 245.386719 70.394531 245.761719 70.144531 C 246.132812 69.894531 246.527344 69.683594 246.941406 69.511719 C 247.359375 69.339844 247.785156 69.210938 248.226562 69.121094 C 248.667969 69.035156 249.113281 68.992188 249.5625 68.992188 C 250.011719 68.992188 250.457031 69.035156 250.894531 69.121094 C 251.335938 69.210938 251.765625 69.339844 252.179688 69.511719 C 252.59375 69.683594 252.988281 69.894531 253.363281 70.144531 C 253.734375 70.394531 254.082031 70.675781 254.398438 70.996094 C 254.71875 71.3125 255 71.660156 255.25 72.03125 C 255.5 72.40625 255.710938 72.800781 255.882812 73.214844 C 256.054688 73.628906 256.183594 74.058594 256.273438 74.5 C 256.359375 74.9375 256.402344 75.382812 256.402344 75.832031 Z M 256.402344 75.832031 " fill-opacity="1" fill-rule="nonzero"/><path fill="#ffffff" d="M 227.753906 75.832031 C 227.753906 76.28125 227.707031 76.726562 227.621094 77.167969 C 227.53125 77.609375 227.402344 78.035156 227.230469 78.453125 C 227.058594 78.867188 226.847656 79.261719 226.597656 79.632812 C 226.347656 80.007812 226.066406 80.351562 225.746094 80.671875 C 225.429688 80.988281 225.085938 81.273438 224.710938 81.523438 C 224.335938 81.773438 223.941406 81.980469 223.527344 82.152344 C 223.113281 82.328125 222.683594 82.457031 222.246094 82.542969 C 221.804688 82.632812 221.359375 82.675781 220.910156 82.675781 C 220.460938 82.675781 220.015625 82.632812 219.574219 82.542969 C 219.132812 82.457031 218.707031 82.328125 218.292969 82.152344 C 217.875 81.980469 217.480469 81.773438 217.109375 81.523438 C 216.734375 81.273438 216.390625 80.988281 216.070312 80.671875 C 215.753906 80.351562 215.46875 80.007812 215.222656 79.632812 C 214.972656 79.261719 214.761719 78.867188 214.589844 78.453125 C 214.417969 78.035156 214.285156 77.609375 214.199219 77.167969 C 214.113281 76.726562 214.066406 76.28125 214.066406 75.832031 C 214.066406 75.382812 214.113281 74.9375 214.199219 74.5 C 214.285156 74.058594 214.417969 73.628906 214.589844 73.214844 C 214.761719 72.800781 214.972656 72.40625 215.222656 72.03125 C 215.46875 71.660156 215.753906 71.3125 216.070312 70.996094 C 216.390625 70.675781 216.734375 70.394531 217.109375 70.144531 C 217.480469 69.894531 217.875 69.683594 218.292969 69.511719 C 218.707031 69.339844 219.132812 69.210938 219.574219 69.121094 C 220.015625 69.035156 220.460938 68.992188 220.910156 68.992188 C 221.359375 68.992188 221.804688 69.035156 222.246094 69.121094 C 222.683594 69.210938 223.113281 69.339844 223.527344 69.511719 C 223.941406 69.683594 224.335938 69.894531 224.710938 70.144531 C 225.085938 70.394531 225.429688 70.675781 225.746094 70.996094 C 226.066406 71.3125 226.347656 71.660156 226.597656 72.03125 C 226.847656 72.40625 227.058594 72.800781 227.230469 73.214844 C 227.402344 73.628906 227.53125 74.058594 227.621094 74.5 C 227.707031 74.9375 227.753906 75.382812 227.753906 75.832031 Z M 227.753906 75.832031 " fill-opacity="1" fill-rule="nonzero"/><path fill="#e6e9ee" d="M 103.738281 116.242188 L 176.292969 116.242188 L 176.292969 126.078125 L 103.738281 126.078125 Z M 103.738281 116.242188 " fill-opacity="1" fill-rule="nonzero"/><path fill="#e6e9ee" d="M 183.777344 116.242188 L 256.332031 116.242188 L 256.332031 126.078125 L 183.777344 126.078125 Z M 183.777344 116.242188 " fill-opacity="1" fill-rule="nonzero"/><path fill="#e6e9ee" d="M 103.738281 141.046875 L 207.226562 141.046875 L 207.226562 150.882812 L 103.738281 150.882812 Z M 103.738281 141.046875 " fill-opacity="1" fill-rule="nonzero"/><path fill="#e6e9ee" d="M 214.710938 141.046875 L 256.332031 141.046875 L 256.332031 150.882812 L 214.710938 150.882812 Z M 214.710938 141.046875 " fill-opacity="1" fill-rule="nonzero"/><path fill="#e6e9ee" d="M 103.738281 165.847656 L 138.664062 165.847656 L 138.664062 175.683594 L 103.738281 175.683594 Z M 103.738281 165.847656 " fill-opacity="1" fill-rule="nonzero"/><path fill="#e6e9ee" d="M 146.144531 165.847656 L 256.261719 165.847656 L 256.261719 175.683594 L 146.144531 175.683594 Z M 146.144531 165.847656 " fill-opacity="1" fill-rule="nonzero"/><path fill="#e6e9ee" d="M 103.738281 190.582031 L 199.671875 190.582031 L 199.671875 200.414062 L 103.738281 200.414062 Z M 103.738281 190.582031 " fill-opacity="1" fill-rule="nonzero"/><path fill="#e6e9ee" d="M 207.15625 190.582031 L 256.261719 190.582031 L 256.261719 200.414062 L 207.15625 200.414062 Z M 207.15625 190.582031 " fill-opacity="1" fill-rule="nonzero"/><path fill="#e6e9ee" d="M 103.738281 215.382812 L 168.738281 215.382812 L 168.738281 225.21875 L 103.738281 225.21875 Z M 103.738281 215.382812 " fill-opacity="1" fill-rule="nonzero"/><path fill="#e6e9ee" d="M 176.222656 215.382812 L 256.261719 215.382812 L 256.261719 225.21875 L 176.222656 225.21875 Z M 176.222656 215.382812 " fill-opacity="1" fill-rule="nonzero"/><path fill="#e6e9ee" d="M 103.738281 240.183594 L 235.519531 240.183594 L 235.519531 250.019531 L 103.738281 250.019531 Z M 103.738281 240.183594 " fill-opacity="1" fill-rule="nonzero"/><path fill="#e6e9ee" d="M 243.003906 240.183594 L 256.261719 240.183594 L 256.261719 250.019531 L 243.003906 250.019531 Z M 243.003906 240.183594 " fill-opacity="1" fill-rule="nonzero"/><path fill="#e6e9ee" d="M 103.738281 264.917969 L 140.015625 264.917969 L 140.015625 274.753906 L 103.738281 274.753906 Z M 103.738281 264.917969 " fill-opacity="1" fill-rule="nonzero"/><path fill="#e6e9ee" d="M 147.5 264.917969 L 223.476562 264.917969 L 223.476562 274.753906 L 147.5 274.753906 Z M 147.5 264.917969 " fill-opacity="1" fill-rule="nonzero"/></svg>