<svg xmlns="http://www.w3.org/2000/svg" xmlns:xlink="http://www.w3.org/1999/xlink" width="480" zoomAndPan="magnify" viewBox="0 0 360 367.91998" height="480" preserveAspectRatio="xMidYMid meet" version="1.0"><defs><clipPath id="1a92a31f7e"><path d="M 14.910156 14.871094 L 344.839844 14.871094 L 344.839844 344.800781 L 14.910156 344.800781 Z M 14.910156 14.871094 " clip-rule="nonzero"/></clipPath></defs><g clip-path="url(#1a92a31f7e)"><path fill="#68c586" d="M 345.085938 179.957031 C 345.085938 182.660156 345.019531 185.359375 344.886719 188.058594 C 344.753906 190.757812 344.554688 193.449219 344.289062 196.140625 C 344.023438 198.828125 343.695312 201.507812 343.296875 204.179688 C 342.902344 206.855469 342.4375 209.515625 341.914062 212.164062 C 341.386719 214.816406 340.792969 217.449219 340.136719 220.070312 C 339.480469 222.691406 338.761719 225.292969 337.976562 227.878906 C 337.191406 230.464844 336.34375 233.03125 335.433594 235.574219 C 334.523438 238.117188 333.550781 240.636719 332.519531 243.132812 C 331.484375 245.628906 330.390625 248.097656 329.234375 250.542969 C 328.078125 252.984375 326.863281 255.398438 325.589844 257.78125 C 324.316406 260.164062 322.984375 262.511719 321.597656 264.828125 C 320.207031 267.148438 318.761719 269.429688 317.261719 271.675781 C 315.761719 273.921875 314.207031 276.128906 312.597656 278.300781 C 310.988281 280.46875 309.324219 282.601562 307.609375 284.6875 C 305.898438 286.777344 304.132812 288.820312 302.320312 290.824219 C 300.503906 292.824219 298.640625 294.78125 296.730469 296.691406 C 294.820312 298.601562 292.863281 300.464844 290.863281 302.28125 C 288.859375 304.09375 286.816406 305.859375 284.726562 307.570312 C 282.640625 309.285156 280.507812 310.949219 278.339844 312.558594 C 276.167969 314.167969 273.960938 315.722656 271.714844 317.222656 C 269.46875 318.722656 267.1875 320.167969 264.867188 321.558594 C 262.550781 322.945312 260.203125 324.277344 257.820312 325.550781 C 255.4375 326.824219 253.023438 328.039062 250.582031 329.195312 C 248.136719 330.351562 245.667969 331.445312 243.171875 332.480469 C 240.675781 333.511719 238.15625 334.484375 235.613281 335.394531 C 233.070312 336.304688 230.503906 337.152344 227.917969 337.9375 C 225.332031 338.722656 222.730469 339.441406 220.109375 340.097656 C 217.488281 340.753906 214.855469 341.347656 212.203125 341.875 C 209.554688 342.398438 206.894531 342.863281 204.21875 343.257812 C 201.546875 343.65625 198.867188 343.984375 196.179688 344.25 C 193.488281 344.515625 190.796875 344.714844 188.097656 344.847656 C 185.398438 344.980469 182.699219 345.046875 179.996094 345.046875 C 177.296875 345.046875 174.59375 344.980469 171.898438 344.847656 C 169.199219 344.714844 166.503906 344.515625 163.816406 344.25 C 161.128906 343.984375 158.445312 343.65625 155.773438 343.257812 C 153.101562 342.863281 150.441406 342.398438 147.789062 341.875 C 145.140625 341.347656 142.503906 340.753906 139.882812 340.097656 C 137.261719 339.441406 134.660156 338.722656 132.074219 337.9375 C 129.488281 337.152344 126.925781 336.304688 124.382812 335.394531 C 121.835938 334.484375 119.316406 333.511719 116.820312 332.480469 C 114.324219 331.445312 111.855469 330.351562 109.414062 329.195312 C 106.972656 328.039062 104.558594 326.824219 102.175781 325.550781 C 99.792969 324.277344 97.441406 322.945312 95.125 321.558594 C 92.808594 320.167969 90.527344 318.722656 88.28125 317.222656 C 86.03125 315.722656 83.824219 314.167969 81.65625 312.558594 C 79.484375 310.949219 77.355469 309.285156 75.265625 307.570312 C 73.179688 305.859375 71.132812 304.09375 69.132812 302.28125 C 67.128906 300.464844 65.171875 298.601562 63.261719 296.691406 C 61.351562 294.78125 59.488281 292.824219 57.675781 290.824219 C 55.859375 288.820312 54.097656 286.777344 52.382812 284.6875 C 50.667969 282.601562 49.007812 280.46875 47.398438 278.300781 C 45.789062 276.128906 44.234375 273.921875 42.730469 271.675781 C 41.230469 269.429688 39.785156 267.148438 38.398438 264.828125 C 37.007812 262.511719 35.675781 260.164062 34.402344 257.78125 C 33.128906 255.398438 31.914062 252.984375 30.761719 250.542969 C 29.605469 248.097656 28.511719 245.628906 27.476562 243.132812 C 26.441406 240.636719 25.46875 238.117188 24.558594 235.574219 C 23.648438 233.03125 22.804688 230.464844 22.019531 227.878906 C 21.234375 225.292969 20.515625 222.691406 19.859375 220.070312 C 19.199219 217.449219 18.609375 214.816406 18.082031 212.164062 C 17.554688 209.515625 17.09375 206.855469 16.695312 204.179688 C 16.300781 201.507812 15.96875 198.828125 15.703125 196.140625 C 15.441406 193.449219 15.242188 190.757812 15.109375 188.058594 C 14.976562 185.359375 14.910156 182.660156 14.910156 179.957031 C 14.910156 177.257812 14.976562 174.554688 15.109375 171.859375 C 15.242188 169.160156 15.441406 166.464844 15.703125 163.777344 C 15.96875 161.089844 16.300781 158.40625 16.695312 155.734375 C 17.09375 153.0625 17.554688 150.402344 18.082031 147.75 C 18.609375 145.101562 19.199219 142.464844 19.859375 139.84375 C 20.515625 137.222656 21.234375 134.621094 22.019531 132.035156 C 22.804688 129.449219 23.648438 126.886719 24.558594 124.34375 C 25.46875 121.796875 26.441406 119.277344 27.476562 116.78125 C 28.511719 114.285156 29.605469 111.816406 30.761719 109.375 C 31.914062 106.933594 33.128906 104.519531 34.402344 102.136719 C 35.675781 99.753906 37.007812 97.402344 38.398438 95.085938 C 39.785156 92.769531 41.230469 90.488281 42.730469 88.242188 C 44.234375 85.992188 45.789062 83.785156 47.398438 81.617188 C 49.007812 79.445312 50.667969 77.316406 52.382812 75.226562 C 54.097656 73.140625 55.859375 71.09375 57.675781 69.09375 C 59.488281 67.089844 61.351562 65.132812 63.261719 63.222656 C 65.171875 61.3125 67.128906 59.449219 69.132812 57.636719 C 71.132812 55.820312 73.179688 54.058594 75.265625 52.34375 C 77.355469 50.628906 79.484375 48.96875 81.65625 47.359375 C 83.824219 45.75 86.03125 44.195312 88.28125 42.691406 C 90.527344 41.191406 92.808594 39.746094 95.125 38.359375 C 97.441406 36.96875 99.792969 35.636719 102.175781 34.363281 C 104.558594 33.089844 106.972656 31.875 109.414062 30.722656 C 111.855469 29.566406 114.324219 28.472656 116.820312 27.4375 C 119.316406 26.402344 121.835938 25.429688 124.382812 24.519531 C 126.925781 23.609375 129.488281 22.765625 132.074219 21.980469 C 134.660156 21.195312 137.261719 20.476562 139.882812 19.820312 C 142.503906 19.160156 145.140625 18.570312 147.789062 18.042969 C 150.441406 17.515625 153.101562 17.054688 155.773438 16.65625 C 158.445312 16.261719 161.128906 15.929688 163.816406 15.664062 C 166.503906 15.402344 169.199219 15.203125 171.898438 15.070312 C 174.59375 14.9375 177.296875 14.871094 179.996094 14.871094 C 182.699219 14.871094 185.398438 14.9375 188.097656 15.070312 C 190.796875 15.203125 193.488281 15.402344 196.179688 15.664062 C 198.867188 15.929688 201.546875 16.261719 204.21875 16.65625 C 206.894531 17.054688 209.554688 17.515625 212.203125 18.042969 C 214.855469 18.570312 217.488281 19.160156 220.109375 19.816406 C 222.730469 20.476562 225.332031 21.195312 227.917969 21.980469 C 230.503906 22.765625 233.070312 23.609375 235.613281 24.519531 C 238.15625 25.429688 240.675781 26.402344 243.171875 27.4375 C 245.667969 28.472656 248.136719 29.566406 250.582031 30.722656 C 253.023438 31.875 255.4375 33.089844 257.820312 34.363281 C 260.203125 35.636719 262.550781 36.96875 264.867188 38.359375 C 267.1875 39.746094 269.46875 41.191406 271.714844 42.691406 C 273.960938 44.195312 276.167969 45.75 278.339844 47.359375 C 280.507812 48.96875 282.640625 50.628906 284.726562 52.34375 C 286.816406 54.058594 288.859375 55.820312 290.863281 57.636719 C 292.863281 59.449219 294.820312 61.3125 296.730469 63.222656 C 298.640625 65.132812 300.503906 67.089844 302.320312 69.09375 C 304.132812 71.09375 305.898438 73.140625 307.609375 75.226562 C 309.324219 77.316406 310.988281 79.445312 312.597656 81.617188 C 314.207031 83.785156 315.761719 85.992188 317.261719 88.242188 C 318.761719 90.488281 320.207031 92.769531 321.597656 95.085938 C 322.984375 97.402344 324.316406 99.753906 325.589844 102.136719 C 326.863281 104.519531 328.078125 106.933594 329.234375 109.375 C 330.390625 111.816406 331.484375 114.285156 332.519531 116.78125 C 333.550781 119.277344 334.523438 121.796875 335.433594 124.34375 C 336.34375 126.886719 337.191406 129.449219 337.976562 132.035156 C 338.761719 134.621094 339.480469 137.222656 340.136719 139.84375 C 340.792969 142.464844 341.386719 145.101562 341.914062 147.75 C 342.4375 150.402344 342.902344 153.0625 343.296875 155.734375 C 343.695312 158.40625 344.023438 161.089844 344.289062 163.777344 C 344.554688 166.464844 344.753906 169.160156 344.886719 171.859375 C 345.019531 174.554688 345.085938 177.257812 345.085938 179.957031 Z M 345.085938 179.957031 " fill-opacity="1" fill-rule="nonzero"/></g><path fill="#1f2020" d="M 216.289062 194.078125 C 215.890625 194.078125 215.429688 194.011719 215.035156 193.945312 C 211.867188 193.285156 209.820312 190.121094 210.546875 186.953125 C 214.109375 170.390625 203.554688 154.09375 187.058594 150.464844 C 183.890625 149.804688 181.84375 146.636719 182.570312 143.46875 C 183.230469 140.304688 186.398438 138.191406 189.566406 138.984375 C 212.460938 143.933594 227.042969 166.5625 222.09375 189.460938 C 221.433594 192.164062 219.058594 194.078125 216.289062 194.078125 Z M 216.289062 194.078125 " fill-opacity="1" fill-rule="nonzero"/><path fill="#1f2020" d="M 243.40625 199.949219 C 243.011719 199.949219 242.546875 199.882812 242.152344 199.820312 C 238.984375 199.160156 236.941406 195.992188 237.664062 192.824219 C 240.964844 177.582031 238.128906 161.945312 229.683594 148.878906 C 221.234375 135.75 208.171875 126.710938 192.929688 123.410156 C 189.761719 122.75 187.71875 119.585938 188.441406 116.417969 C 189.101562 113.25 192.335938 111.269531 195.4375 111.929688 C 213.78125 115.890625 229.417969 126.777344 239.578125 142.480469 C 249.738281 158.183594 253.171875 176.988281 249.210938 195.332031 C 248.550781 198.039062 246.109375 199.949219 243.40625 199.949219 Z M 243.40625 199.949219 " fill-opacity="1" fill-rule="nonzero"/><path fill="#1f2020" d="M 115.53125 117.144531 L 127.738281 110.148438 C 135.0625 105.992188 144.367188 109.09375 147.601562 116.8125 L 159.476562 144.789062 C 160.53125 147.296875 160.269531 150.132812 158.816406 152.378906 L 150.636719 165.179688 C 149.25 167.355469 149.117188 170.0625 150.371094 172.304688 C 150.371094 172.304688 158.617188 190.648438 164.359375 198.632812 C 170.101562 206.613281 182.503906 218.753906 182.503906 218.753906 C 184.285156 220.734375 186.992188 221.527344 189.566406 220.867188 L 201.507812 217.699219 C 204.210938 216.972656 207.050781 217.699219 209.09375 219.546875 L 231.859375 240.398438 C 237.996094 246.070312 237.929688 255.769531 231.660156 261.3125 L 220.90625 270.75 C 215.429688 275.566406 207.511719 276.292969 201.308594 272.597656 C 187.253906 264.28125 161.917969 246.664062 139.484375 216.511719 C 115.996094 184.90625 109.132812 150.859375 107.152344 133.703125 C 106.359375 126.972656 109.660156 120.441406 115.53125 117.144531 Z M 115.53125 117.144531 " fill-opacity="1" fill-rule="nonzero"/></svg>