<svg xmlns="http://www.w3.org/2000/svg" xmlns:xlink="http://www.w3.org/1999/xlink" width="480" zoomAndPan="magnify" viewBox="0 0 360 359.999987" height="480" preserveAspectRatio="xMidYMid meet" version="1.0"><defs><clipPath id="baabb7e788"><path d="M 41 44 L 355 44 L 355 353 L 41 353 Z M 41 44 " clip-rule="nonzero"/></clipPath><clipPath id="6bd07005e0"><path d="M 5.105469 67.308594 L 328.839844 3.308594 L 391.527344 320.421875 L 67.792969 384.421875 Z M 5.105469 67.308594 " clip-rule="nonzero"/></clipPath><clipPath id="cbfb4c4581"><path d="M 5.105469 67.308594 L 328.839844 3.308594 L 391.527344 320.421875 L 67.792969 384.421875 Z M 5.105469 67.308594 " clip-rule="nonzero"/></clipPath></defs><g clip-path="url(#baabb7e788)"><g clip-path="url(#6bd07005e0)"><g clip-path="url(#cbfb4c4581)"><path fill="#4aad6d" d="M 133.078125 55.851562 C 132.210938 56.203125 51.167969 90.148438 42.164062 170.84375 C 36.132812 224.625 65.332031 264.511719 85.542969 285.1875 C 85.335938 281.222656 85.164062 277.253906 85.070312 273.304688 C 84.992188 270.363281 87.320312 267.917969 90.269531 267.878906 C 93.214844 267.800781 95.625 270.136719 95.699219 273.078125 C 96.113281 290.671875 97.746094 308.417969 100.632812 325.773438 C 102.132812 334.816406 103.996094 343.863281 106.160156 352.8125 C 109.972656 346 114.441406 339.597656 119.589844 333.710938 C 123.085938 329.699219 126.855469 325.960938 130.890625 322.460938 C 131.214844 322.105469 131.585938 321.78125 132 321.519531 C 142.195312 312.867188 153.941406 305.890625 166.667969 301.105469 C 169.386719 300.097656 172.472656 301.472656 173.515625 304.1875 C 174.5625 306.9375 173.148438 309.992188 170.433594 311.035156 C 161.4375 314.4375 152.96875 319.03125 145.304688 324.585938 C 210.765625 349.40625 300.261719 337.234375 338.136719 272.328125 C 371.097656 215.929688 350.109375 142.96875 312.347656 100.085938 C 267.261719 48.800781 193.550781 30.625 133.078125 55.851562 Z M 133.078125 55.851562 " fill-opacity="1" fill-rule="nonzero"/></g></g></g><path fill="#c9a998" d="M 129.765625 14.636719 C 128.773438 14.824219 36.019531 33.773438 9.636719 117.1875 C -7.976562 172.773438 14.554688 221.039062 31.597656 247.117188 C 32.207031 242.882812 32.855469 238.652344 33.578125 234.460938 C 34.113281 231.332031 37.085938 229.234375 40.210938 229.808594 C 43.339844 230.339844 45.398438 233.316406 44.863281 236.441406 C 41.625 255.121094 39.640625 274.222656 39.070312 293.171875 C 38.765625 303.042969 38.839844 312.996094 39.257812 322.90625 C 44.710938 316.503906 50.773438 310.667969 57.445312 305.523438 C 61.980469 302.015625 66.746094 298.851562 71.742188 295.992188 C 72.160156 295.6875 72.617188 295.417969 73.113281 295.230469 C 85.695312 288.214844 99.570312 283.296875 114.019531 280.894531 C 117.109375 280.398438 120.082031 282.496094 120.617188 285.582031 C 121.152344 288.710938 119.015625 291.644531 115.925781 292.179688 C 105.710938 293.894531 95.796875 296.984375 86.535156 301.253906 C 150.542969 341.167969 247.683594 347.003906 301.289062 286.308594 C 347.914062 233.582031 340.976562 152.074219 310.019531 98.851562 C 273.074219 35.222656 198.960938 0.605469 129.765625 14.636719 Z M 129.765625 14.636719 " fill-opacity="1" fill-rule="nonzero"/></svg>