<svg xmlns="http://www.w3.org/2000/svg" xmlns:xlink="http://www.w3.org/1999/xlink" width="480" zoomAndPan="magnify" viewBox="0 0 360 359.999987" height="480" preserveAspectRatio="xMidYMid meet" version="1.0"><defs><clipPath id="ba5b9292d5"><path d="M 23 41 L 337 41 L 337 350 L 23 350 Z M 23 41 " clip-rule="nonzero"/></clipPath><clipPath id="37a773d952"><path d="M -13.242188 64.023438 L 310.492188 0.0234375 L 373.183594 317.136719 L 49.449219 381.136719 Z M -13.242188 64.023438 " clip-rule="nonzero"/></clipPath><clipPath id="7cc11eef83"><path d="M -13.242188 64.023438 L 310.492188 0.0234375 L 373.183594 317.136719 L 49.449219 381.136719 Z M -13.242188 64.023438 " clip-rule="nonzero"/></clipPath></defs><g clip-path="url(#ba5b9292d5)"><g clip-path="url(#37a773d952)"><g clip-path="url(#7cc11eef83)"><path fill="#b99887" d="M 114.730469 52.566406 C 113.863281 52.917969 32.824219 86.863281 23.816406 167.558594 C 17.785156 221.339844 46.988281 261.226562 67.195312 281.902344 C 66.988281 277.9375 66.820312 273.96875 66.722656 270.019531 C 66.648438 267.078125 68.976562 264.632812 71.925781 264.589844 C 74.867188 264.515625 77.277344 266.851562 77.355469 269.792969 C 77.765625 287.386719 79.398438 305.132812 82.289062 322.484375 C 83.789062 331.53125 85.648438 340.578125 87.816406 349.527344 C 91.625 342.714844 96.09375 336.3125 101.242188 330.425781 C 104.742188 326.414062 108.511719 322.675781 112.542969 319.175781 C 112.871094 318.820312 113.238281 318.496094 113.65625 318.234375 C 123.847656 309.582031 135.597656 302.605469 148.320312 297.820312 C 151.042969 296.8125 154.128906 298.183594 155.167969 300.902344 C 156.21875 303.652344 154.800781 306.707031 152.085938 307.75 C 143.09375 311.152344 134.625 315.746094 126.957031 321.300781 C 192.421875 346.121094 281.914062 333.949219 319.792969 269.042969 C 352.753906 212.644531 331.765625 139.683594 294 96.796875 C 248.914062 45.515625 175.207031 27.339844 114.730469 52.566406 Z M 114.730469 52.566406 " fill-opacity="1" fill-rule="nonzero"/></g></g></g></svg>