<svg xmlns="http://www.w3.org/2000/svg" xmlns:xlink="http://www.w3.org/1999/xlink" width="480" zoomAndPan="magnify" viewBox="0 0 360 367.91998" height="480" preserveAspectRatio="xMidYMid meet" version="1.0"><defs><clipPath id="c82bceba57"><path d="M 36.03125 0 L 323.96875 0 L 323.96875 359.921875 L 36.03125 359.921875 Z M 36.03125 0 " clip-rule="nonzero"/></clipPath></defs><g clip-path="url(#c82bceba57)"><path fill="#b99887" d="M 180 0 C 165.601562 0 153.007812 12.597656 153.007812 26.992188 L 153.007812 39.578125 C 106.59375 51.660156 72.023438 93.910156 72.023438 143.96875 L 72.023438 251.945312 L 45.03125 273.527344 C 39.628906 277.125 36.03125 280.738281 36.03125 287.9375 C 36.03125 298.734375 43.230469 305.933594 54.027344 305.933594 L 305.972656 305.933594 C 316.769531 305.933594 323.96875 298.734375 323.96875 287.9375 C 323.96875 280.738281 320.371094 277.125 314.96875 273.527344 L 287.976562 251.945312 L 287.976562 143.96875 C 287.976562 93.910156 253.40625 51.660156 206.992188 39.578125 L 206.992188 26.992188 C 206.992188 12.597656 194.398438 0 180 0 Z M 144.007812 323.929688 C 144.007812 343.726562 160.203125 359.921875 180 359.921875 C 199.796875 359.921875 215.992188 343.726562 215.992188 323.929688 Z M 144.007812 323.929688 " fill-opacity="1" fill-rule="nonzero"/></g></svg>