<svg xmlns="http://www.w3.org/2000/svg" xmlns:xlink="http://www.w3.org/1999/xlink" width="480" zoomAndPan="magnify" viewBox="0 0 360 359.999987" height="480" preserveAspectRatio="xMidYMid meet" version="1.0"><path fill="#b99887" d="M 284.652344 0 C 326.394531 0 360 33.605469 360 75.347656 C 360 117.09375 326.394531 150.699219 284.652344 150.699219 L 75.347656 150.699219 C 33.605469 150.699219 0 117.09375 0 75.347656 C 0 33.605469 33.605469 0 75.347656 0 Z M 284.652344 33.488281 C 261.53125 33.488281 242.789062 52.230469 242.789062 75.347656 C 242.789062 98.46875 261.53125 117.210938 284.652344 117.210938 C 307.769531 117.210938 326.511719 98.46875 326.511719 75.347656 C 326.511719 52.230469 307.769531 33.488281 284.652344 33.488281 Z M 284.652344 209.304688 C 326.394531 209.304688 360 242.910156 360 284.652344 C 360 326.394531 326.394531 360 284.652344 360 L 75.347656 360 C 33.605469 360 0 326.394531 0 284.652344 C 0 242.910156 33.605469 209.304688 75.347656 209.304688 Z M 75.347656 242.792969 C 52.230469 242.792969 33.488281 261.53125 33.488281 284.652344 C 33.488281 307.769531 52.230469 326.511719 75.347656 326.511719 C 98.46875 326.511719 117.210938 307.769531 117.210938 284.652344 C 117.210938 261.53125 98.46875 242.792969 75.347656 242.792969 Z M 75.347656 242.792969 " fill-opacity="1" fill-rule="nonzero"/></svg>