<svg xmlns="http://www.w3.org/2000/svg" xmlns:xlink="http://www.w3.org/1999/xlink" width="480" zoomAndPan="magnify" viewBox="0 0 360 367.91998" height="480" preserveAspectRatio="xMidYMid meet" version="1.0"><defs><clipPath id="0fa2b08cde"><path d="M 9 4.5 L 355.460938 4.5 L 355.460938 351 L 9 351 Z M 9 4.5 " clip-rule="nonzero"/></clipPath></defs><g clip-path="url(#0fa2b08cde)"><path fill="#b99887" d="M 355.222656 177.636719 C 355.222656 180.46875 355.15625 183.300781 355.015625 186.128906 C 354.878906 188.957031 354.667969 191.78125 354.390625 194.601562 C 354.113281 197.417969 353.769531 200.230469 353.355469 203.03125 C 352.9375 205.832031 352.453125 208.621094 351.902344 211.398438 C 351.351562 214.179688 350.730469 216.941406 350.042969 219.6875 C 349.355469 222.433594 348.601562 225.164062 347.777344 227.875 C 346.957031 230.585938 346.070312 233.273438 345.113281 235.941406 C 344.160156 238.605469 343.140625 241.25 342.058594 243.863281 C 340.976562 246.480469 339.828125 249.070312 338.617188 251.628906 C 337.40625 254.191406 336.132812 256.71875 334.800781 259.21875 C 333.464844 261.714844 332.070312 264.179688 330.613281 266.609375 C 329.15625 269.039062 327.644531 271.429688 326.070312 273.785156 C 324.496094 276.140625 322.867188 278.457031 321.179688 280.730469 C 319.492188 283.003906 317.75 285.238281 315.953125 287.425781 C 314.160156 289.617188 312.308594 291.761719 310.40625 293.859375 C 308.503906 295.957031 306.554688 298.007812 304.550781 300.011719 C 302.546875 302.015625 300.5 303.96875 298.398438 305.867188 C 296.300781 307.769531 294.15625 309.621094 291.96875 311.417969 C 289.78125 313.214844 287.546875 314.957031 285.273438 316.644531 C 283 318.332031 280.683594 319.960938 278.328125 321.535156 C 275.972656 323.109375 273.582031 324.625 271.152344 326.078125 C 268.722656 327.535156 266.261719 328.933594 263.761719 330.265625 C 261.265625 331.601562 258.738281 332.875 256.175781 334.085938 C 253.617188 335.296875 251.027344 336.445312 248.410156 337.53125 C 245.792969 338.613281 243.152344 339.632812 240.488281 340.585938 C 237.820312 341.542969 235.132812 342.429688 232.421875 343.25 C 229.710938 344.074219 226.984375 344.828125 224.234375 345.519531 C 221.488281 346.207031 218.726562 346.828125 215.949219 347.378906 C 213.171875 347.933594 210.378906 348.417969 207.578125 348.832031 C 204.777344 349.246094 201.96875 349.59375 199.148438 349.871094 C 196.332031 350.148438 193.507812 350.359375 190.679688 350.496094 C 187.851562 350.636719 185.019531 350.707031 182.1875 350.707031 C 179.355469 350.707031 176.523438 350.636719 173.695312 350.496094 C 170.867188 350.359375 168.042969 350.152344 165.226562 349.875 C 162.40625 349.597656 159.597656 349.25 156.792969 348.835938 C 153.992188 348.417969 151.203125 347.933594 148.425781 347.382812 C 145.648438 346.828125 142.886719 346.210938 140.136719 345.519531 C 137.390625 344.832031 134.660156 344.078125 131.953125 343.257812 C 129.242188 342.433594 126.554688 341.546875 123.886719 340.59375 C 121.21875 339.636719 118.578125 338.617188 115.960938 337.535156 C 113.34375 336.453125 110.757812 335.304688 108.195312 334.09375 C 105.636719 332.882812 103.105469 331.609375 100.609375 330.273438 C 98.113281 328.9375 95.648438 327.542969 93.21875 326.085938 C 90.789062 324.632812 88.398438 323.117188 86.042969 321.542969 C 83.6875 319.96875 81.371094 318.339844 79.097656 316.652344 C 76.824219 314.964844 74.589844 313.222656 72.402344 311.425781 C 70.210938 309.628906 68.070312 307.78125 65.96875 305.878906 C 63.871094 303.976562 61.820312 302.023438 59.820312 300.023438 C 57.816406 298.019531 55.863281 295.96875 53.960938 293.871094 C 52.058594 291.773438 50.210938 289.628906 48.414062 287.4375 C 46.617188 285.25 44.875 283.015625 43.1875 280.742188 C 41.5 278.46875 39.871094 276.152344 38.296875 273.796875 C 36.722656 271.441406 35.210938 269.050781 33.753906 266.621094 C 32.296875 264.191406 30.902344 261.730469 29.566406 259.230469 C 28.230469 256.734375 26.957031 254.203125 25.746094 251.644531 C 24.535156 249.082031 23.390625 246.496094 22.304688 243.878906 C 21.222656 241.261719 20.203125 238.621094 19.25 235.953125 C 18.296875 233.289062 17.40625 230.597656 16.585938 227.886719 C 15.761719 225.179688 15.007812 222.449219 14.320312 219.703125 C 13.632812 216.953125 13.011719 214.191406 12.460938 211.414062 C 11.90625 208.636719 11.421875 205.847656 11.007812 203.046875 C 10.59375 200.246094 10.246094 197.433594 9.96875 194.617188 C 9.691406 191.796875 9.484375 188.972656 9.34375 186.144531 C 9.203125 183.316406 9.136719 180.484375 9.136719 177.652344 C 9.136719 174.820312 9.207031 171.992188 9.34375 169.160156 C 9.484375 166.332031 9.691406 163.507812 9.96875 160.691406 C 10.246094 157.871094 10.59375 155.0625 11.011719 152.261719 C 11.425781 149.460938 11.910156 146.671875 12.460938 143.890625 C 13.015625 141.113281 13.636719 138.351562 14.324219 135.605469 C 15.011719 132.859375 15.769531 130.128906 16.589844 127.417969 C 17.414062 124.707031 18.300781 122.019531 19.253906 119.355469 C 20.210938 116.6875 21.230469 114.046875 22.3125 111.429688 C 23.398438 108.8125 24.542969 106.222656 25.753906 103.664062 C 26.964844 101.105469 28.238281 98.574219 29.574219 96.078125 C 30.910156 93.578125 32.304688 91.117188 33.761719 88.6875 C 35.21875 86.257812 36.734375 83.867188 38.308594 81.511719 C 39.878906 79.15625 41.511719 76.84375 43.199219 74.566406 C 44.886719 72.292969 46.628906 70.0625 48.425781 67.871094 C 50.222656 65.683594 52.070312 63.539062 53.972656 61.441406 C 55.875 59.34375 57.828125 57.292969 59.832031 55.289062 C 61.832031 53.289062 63.882812 51.335938 65.984375 49.433594 C 68.082031 47.53125 70.226562 45.683594 72.414062 43.886719 C 74.605469 42.089844 76.835938 40.347656 79.113281 38.660156 C 81.386719 36.972656 83.703125 35.34375 86.058594 33.769531 C 88.414062 32.199219 90.804688 30.683594 93.234375 29.226562 C 95.664062 27.773438 98.125 26.375 100.625 25.042969 C 103.121094 23.707031 105.652344 22.433594 108.210938 21.222656 C 110.773438 20.011719 113.359375 18.867188 115.976562 17.78125 C 118.59375 16.699219 121.234375 15.679688 123.902344 14.726562 C 126.570312 13.773438 129.257812 12.886719 131.96875 12.0625 C 134.679688 11.242188 137.40625 10.488281 140.15625 9.796875 C 142.902344 9.109375 145.664062 8.492188 148.441406 7.9375 C 151.21875 7.386719 154.011719 6.902344 156.8125 6.488281 C 159.613281 6.074219 162.421875 5.726562 165.242188 5.449219 C 168.0625 5.171875 170.882812 4.964844 173.714844 4.824219 C 176.542969 4.6875 179.371094 4.617188 182.203125 4.617188 C 185.039062 4.609375 187.871094 4.667969 190.703125 4.796875 C 193.535156 4.925781 196.359375 5.125 199.183594 5.394531 C 202.003906 5.664062 204.816406 6 207.621094 6.410156 C 210.425781 6.816406 213.222656 7.292969 216.003906 7.839844 C 218.785156 8.382812 221.550781 8.996094 224.300781 9.679688 C 227.050781 10.363281 229.785156 11.109375 232.5 11.925781 C 235.214844 12.746094 237.90625 13.628906 240.578125 14.578125 C 243.246094 15.527344 245.894531 16.539062 248.511719 17.621094 C 251.132812 18.699219 253.726562 19.84375 256.289062 21.050781 C 258.855469 22.261719 261.386719 23.53125 263.890625 24.863281 C 266.390625 26.195312 268.859375 27.589844 271.289062 29.042969 C 273.722656 30.5 276.121094 32.011719 278.476562 33.585938 C 280.835938 35.15625 283.152344 36.785156 285.429688 38.472656 C 287.707031 40.160156 289.945312 41.902344 292.136719 43.699219 C 294.328125 45.496094 296.472656 47.347656 298.574219 49.25 C 300.675781 51.152344 302.726562 53.105469 304.730469 55.109375 C 306.734375 57.113281 308.6875 59.167969 310.59375 61.269531 C 312.496094 63.367188 314.34375 65.515625 316.140625 67.707031 C 317.941406 69.898438 319.679688 72.132812 321.367188 74.410156 C 323.054688 76.6875 324.683594 79.007812 326.257812 81.363281 C 327.832031 83.722656 329.34375 86.117188 330.796875 88.550781 C 332.253906 90.984375 333.644531 93.453125 334.980469 95.953125 C 336.3125 98.453125 337.582031 100.988281 338.789062 103.550781 C 339.996094 106.117188 341.140625 108.707031 342.222656 111.328125 C 343.300781 113.949219 344.316406 116.59375 345.265625 119.265625 C 346.214844 121.9375 347.097656 124.628906 347.914062 127.34375 C 348.730469 130.058594 349.480469 132.789062 350.160156 135.542969 C 350.84375 138.292969 351.457031 141.058594 352.003906 143.839844 C 352.546875 146.621094 353.023438 149.414062 353.433594 152.21875 C 353.839844 155.023438 354.179688 157.839844 354.445312 160.660156 C 354.714844 163.480469 354.914062 166.308594 355.042969 169.140625 C 355.175781 171.972656 355.234375 174.804688 355.222656 177.636719 Z M 355.222656 177.636719 " fill-opacity="1" fill-rule="nonzero"/></g><path fill="#68c586" d="M 315.675781 287.800781 C 313.632812 290.277344 311.523438 292.691406 309.347656 295.050781 C 307.167969 297.410156 304.925781 299.703125 302.621094 301.9375 C 300.316406 304.171875 297.953125 306.339844 295.527344 308.441406 C 293.101562 310.542969 290.617188 312.574219 288.078125 314.539062 C 285.539062 316.5 282.949219 318.390625 280.304688 320.210938 C 277.660156 322.03125 274.96875 323.777344 272.226562 325.445312 C 269.488281 327.113281 266.703125 328.707031 263.871094 330.222656 C 261.042969 331.738281 258.171875 333.171875 255.265625 334.527344 C 252.355469 335.882812 249.410156 337.15625 246.429688 338.34375 C 243.449219 339.535156 240.4375 340.644531 237.398438 341.667969 C 234.355469 342.691406 231.289062 343.628906 228.191406 344.484375 C 225.097656 345.335938 221.984375 346.101562 218.847656 346.78125 C 215.710938 347.460938 212.558594 348.054688 209.386719 348.558594 C 206.21875 349.0625 203.039062 349.476562 199.84375 349.804688 C 196.652344 350.132812 193.453125 350.371094 190.246094 350.519531 C 187.039062 350.671875 183.832031 350.730469 180.625 350.699219 C 177.414062 350.671875 174.207031 350.554688 171.003906 350.347656 C 167.804688 350.140625 164.609375 349.84375 161.421875 349.457031 C 158.234375 349.070312 155.0625 348.597656 151.902344 348.035156 C 148.742188 347.476562 145.601562 346.824219 142.476562 346.089844 C 139.355469 345.351562 136.253906 344.53125 133.175781 343.621094 C 130.097656 342.710938 127.046875 341.71875 124.023438 340.640625 C 121 339.5625 118.011719 338.398438 115.050781 337.152344 C 112.09375 335.910156 109.171875 334.582031 106.289062 333.175781 C 103.40625 331.769531 100.5625 330.28125 97.757812 328.714844 C 94.957031 327.148438 92.203125 325.507812 89.492188 323.789062 C 86.78125 322.070312 84.121094 320.277344 81.511719 318.410156 C 78.898438 316.542969 76.34375 314.605469 73.839844 312.59375 C 71.339844 310.585938 68.894531 308.507812 66.507812 306.363281 C 64.121094 304.21875 61.792969 302.007812 59.53125 299.734375 C 57.265625 297.457031 55.066406 295.121094 52.933594 292.726562 C 50.796875 290.328125 48.730469 287.875 46.734375 285.363281 C 65.167969 259.078125 93.742188 240.839844 153.828125 240.15625 C 223.171875 239.320312 274.179688 236.792969 295.25 260.101562 C 302.917969 268.699219 309.726562 277.933594 315.675781 287.800781 Z M 315.675781 287.800781 " fill-opacity="1" fill-rule="nonzero"/><path fill="#383835" d="M 124.875 134.003906 C 91.601562 121.96875 97.027344 78.082031 101.75 77.136719 C 106.46875 76.195312 116.609375 83.980469 117.082031 84.214844 C 117.558594 84.453125 114.726562 64.632812 121.097656 55.429688 C 127.472656 46.226562 151.773438 64.867188 170.414062 65.105469 C 189.054688 65.339844 234.125 66.519531 247.335938 78.316406 C 260.546875 90.117188 253.691406 115.363281 253.691406 115.363281 C 253.691406 115.363281 268.808594 119.375 265.734375 140.613281 C 262.664062 161.851562 238.835938 180.085938 230.339844 195.390625 C 221.847656 210.691406 171.390625 213.523438 163.5625 191.34375 " fill-opacity="1" fill-rule="nonzero"/><path fill="#ffb5a6" d="M 179.675781 265.730469 C 155.488281 265.730469 151.925781 245.542969 151.832031 242.128906 C 151.832031 241.738281 151.78125 241.054688 151.832031 240.128906 C 151.78125 238.226562 151.78125 235.300781 151.78125 231.886719 C 151.878906 222.671875 151.976562 209.945312 151.832031 204.480469 L 198.011719 187.949219 L 206.398438 184.925781 L 215.714844 181.609375 C 215.714844 181.609375 215.664062 183.414062 215.566406 186.390625 C 215.519531 188.097656 215.46875 190.191406 215.421875 192.582031 C 215.425781 192.863281 215.410156 193.140625 215.371094 193.417969 C 215.324219 196.875 215.273438 200.828125 215.175781 204.976562 C 215.03125 217.996094 214.980469 232.625 215.664062 237.890625 C 216.929688 248.128906 203.859375 265.730469 179.675781 265.730469 Z M 179.675781 265.730469 " fill-opacity="1" fill-rule="nonzero"/><path fill="#e86b70" d="M 215.757812 192.679688 C 215.644531 192.933594 215.515625 193.179688 215.367188 193.410156 C 198.980469 227.109375 174.355469 240.472656 151.824219 240.128906 C 151.777344 238.226562 151.777344 235.300781 151.777344 231.886719 C 151.875 222.671875 151.972656 209.945312 151.824219 204.480469 L 198.007812 187.949219 L 215.417969 192.582031 Z M 215.757812 192.679688 " fill-opacity="1" fill-rule="nonzero"/><path fill="#ffb5a6" d="M 123.957031 104.035156 C 150.859375 136.285156 217.292969 130.464844 217.292969 130.464844 C 217.292969 130.464844 218.550781 168.21875 225.15625 167.90625 C 231.765625 167.589844 232.867188 146.667969 249.070312 150.136719 C 265.273438 153.601562 255.203125 184.898438 242.621094 186.628906 C 230.035156 188.355469 226.886719 177.660156 226.886719 177.660156 C 226.886719 177.660156 203.683594 223.675781 166.875 223.675781 C 130.066406 223.675781 120.640625 188.382812 120.863281 169.164062 C 121.082031 149.941406 123.957031 104.035156 123.957031 104.035156 Z M 123.957031 104.035156 " fill-opacity="1" fill-rule="nonzero"/></svg>