<svg xmlns="http://www.w3.org/2000/svg" xmlns:xlink="http://www.w3.org/1999/xlink" width="480" zoomAndPan="magnify" viewBox="0 0 360 367.91998" height="480" preserveAspectRatio="xMidYMid meet" version="1.0"><defs><clipPath id="35e004bd36"><path d="M 0.0390625 0 L 359.960938 0 L 359.960938 359.921875 L 0.0390625 359.921875 Z M 0.0390625 0 " clip-rule="nonzero"/></clipPath><clipPath id="66a5ffe760"><path d="M 50 219 L 310 219 L 310 359.921875 L 50 359.921875 Z M 50 219 " clip-rule="nonzero"/></clipPath></defs><g clip-path="url(#35e004bd36)"><path fill="#b99887" d="M 359.988281 179.972656 C 359.988281 182.921875 359.914062 185.863281 359.773438 188.804688 C 359.628906 191.746094 359.410156 194.683594 359.121094 197.613281 C 358.832031 200.546875 358.472656 203.46875 358.039062 206.382812 C 357.609375 209.296875 357.105469 212.195312 356.53125 215.085938 C 355.957031 217.976562 355.308594 220.847656 354.59375 223.703125 C 353.878906 226.5625 353.09375 229.398438 352.238281 232.21875 C 351.382812 235.035156 350.460938 237.832031 349.46875 240.605469 C 348.476562 243.378906 347.414062 246.125 346.289062 248.847656 C 345.160156 251.570312 343.96875 254.261719 342.707031 256.921875 C 341.449219 259.585938 340.125 262.214844 338.738281 264.8125 C 337.347656 267.410156 335.898438 269.972656 334.382812 272.5 C 332.867188 275.027344 331.292969 277.515625 329.65625 279.964844 C 328.019531 282.410156 326.324219 284.820312 324.570312 287.183594 C 322.816406 289.550781 321.003906 291.871094 319.136719 294.148438 C 317.265625 296.425781 315.34375 298.65625 313.367188 300.839844 C 311.386719 303.019531 309.359375 305.152344 307.273438 307.234375 C 305.191406 309.320312 303.058594 311.347656 300.878906 313.328125 C 298.695312 315.304688 296.464844 317.226562 294.1875 319.097656 C 291.910156 320.964844 289.589844 322.777344 287.222656 324.53125 C 284.859375 326.285156 282.453125 327.980469 280.003906 329.617188 C 277.554688 331.253906 275.066406 332.828125 272.539062 334.34375 C 270.011719 335.859375 267.449219 337.308594 264.851562 338.699219 C 262.253906 340.085938 259.625 341.410156 256.960938 342.667969 C 254.300781 343.929688 251.609375 345.121094 248.886719 346.25 C 246.164062 347.375 243.417969 348.4375 240.644531 349.429688 C 237.871094 350.421875 235.074219 351.34375 232.257812 352.199219 C 229.4375 353.054688 226.601562 353.839844 223.742188 354.554688 C 220.886719 355.269531 218.015625 355.917969 215.125 356.492188 C 212.234375 357.066406 209.335938 357.570312 206.421875 358 C 203.507812 358.433594 200.585938 358.792969 197.652344 359.082031 C 194.722656 359.371094 191.785156 359.585938 188.84375 359.730469 C 185.902344 359.875 182.960938 359.949219 180.015625 359.949219 C 177.066406 359.949219 174.125 359.875 171.183594 359.730469 C 168.242188 359.585938 165.304688 359.371094 162.375 359.082031 C 159.441406 358.792969 156.519531 358.433594 153.605469 358 C 150.691406 357.570312 147.792969 357.066406 144.902344 356.492188 C 142.011719 355.917969 139.140625 355.269531 136.285156 354.554688 C 133.425781 353.839844 130.589844 353.054688 127.769531 352.199219 C 124.953125 351.34375 122.15625 350.421875 119.382812 349.429688 C 116.609375 348.4375 113.863281 347.375 111.140625 346.25 C 108.417969 345.121094 105.726562 343.929688 103.066406 342.667969 C 100.402344 341.410156 97.773438 340.085938 95.175781 338.699219 C 92.578125 337.308594 90.015625 335.859375 87.488281 334.34375 C 84.960938 332.828125 82.472656 331.253906 80.023438 329.617188 C 77.574219 327.980469 75.167969 326.285156 72.804688 324.53125 C 70.4375 322.777344 68.117188 320.964844 65.839844 319.097656 C 63.5625 317.226562 61.332031 315.304688 59.148438 313.328125 C 56.96875 311.347656 54.835938 309.320312 52.753906 307.234375 C 50.667969 305.152344 48.640625 303.019531 46.660156 300.839844 C 44.683594 298.65625 42.761719 296.425781 40.890625 294.148438 C 39.023438 291.871094 37.210938 289.550781 35.457031 287.183594 C 33.703125 284.820312 32.007812 282.410156 30.371094 279.964844 C 28.734375 277.515625 27.160156 275.027344 25.644531 272.5 C 24.128906 269.972656 22.679688 267.410156 21.289062 264.8125 C 19.902344 262.214844 18.578125 259.585938 17.320312 256.921875 C 16.058594 254.261719 14.867188 251.570312 13.738281 248.847656 C 12.613281 246.125 11.550781 243.378906 10.558594 240.605469 C 9.566406 237.832031 8.644531 235.035156 7.789062 232.21875 C 6.933594 229.398438 6.148438 226.5625 5.433594 223.703125 C 4.71875 220.847656 4.070312 217.976562 3.496094 215.085938 C 2.921875 212.195312 2.417969 209.296875 1.988281 206.382812 C 1.554688 203.46875 1.195312 200.546875 0.90625 197.613281 C 0.617188 194.683594 0.402344 191.746094 0.257812 188.804688 C 0.113281 185.863281 0.0390625 182.921875 0.0390625 179.972656 C 0.0390625 177.027344 0.113281 174.085938 0.257812 171.144531 C 0.402344 168.203125 0.617188 165.265625 0.90625 162.332031 C 1.195312 159.402344 1.554688 156.480469 1.988281 153.566406 C 2.417969 150.652344 2.921875 147.753906 3.496094 144.863281 C 4.070312 141.972656 4.71875 139.101562 5.433594 136.246094 C 6.148438 133.386719 6.933594 130.550781 7.789062 127.730469 C 8.644531 124.910156 9.566406 122.117188 10.558594 119.34375 C 11.550781 116.570312 12.613281 113.824219 13.738281 111.101562 C 14.867188 108.378906 16.058594 105.6875 17.320312 103.027344 C 18.578125 100.363281 19.902344 97.734375 21.289062 95.136719 C 22.679688 92.539062 24.128906 89.976562 25.644531 87.449219 C 27.160156 84.921875 28.734375 82.433594 30.371094 79.984375 C 32.007812 77.535156 33.703125 75.128906 35.457031 72.765625 C 37.210938 70.398438 39.023438 68.078125 40.890625 65.800781 C 42.761719 63.523438 44.683594 61.292969 46.660156 59.109375 C 48.640625 56.929688 50.667969 54.796875 52.753906 52.714844 C 54.835938 50.628906 56.96875 48.601562 59.148438 46.621094 C 61.332031 44.644531 63.5625 42.722656 65.839844 40.851562 C 68.117188 38.984375 70.4375 37.171875 72.804688 35.417969 C 75.167969 33.664062 77.574219 31.96875 80.023438 30.332031 C 82.472656 28.695312 84.960938 27.121094 87.488281 25.605469 C 90.015625 24.089844 92.578125 22.640625 95.175781 21.25 C 97.773438 19.863281 100.402344 18.539062 103.066406 17.28125 C 105.726562 16.019531 108.417969 14.828125 111.140625 13.699219 C 113.863281 12.574219 116.609375 11.511719 119.382812 10.519531 C 122.15625 9.527344 124.953125 8.605469 127.769531 7.75 C 130.589844 6.894531 133.425781 6.109375 136.285156 5.394531 C 139.140625 4.679688 142.011719 4.03125 144.902344 3.457031 C 147.792969 2.882812 150.691406 2.378906 153.605469 1.949219 C 156.519531 1.515625 159.441406 1.15625 162.375 0.867188 C 165.304688 0.578125 168.242188 0.359375 171.183594 0.214844 C 174.125 0.0703125 177.066406 0 180.015625 0 C 182.960938 0 185.902344 0.0703125 188.84375 0.214844 C 191.785156 0.359375 194.722656 0.578125 197.652344 0.867188 C 200.585938 1.15625 203.507812 1.515625 206.421875 1.949219 C 209.335938 2.378906 212.234375 2.882812 215.125 3.457031 C 218.015625 4.03125 220.886719 4.679688 223.742188 5.394531 C 226.601562 6.109375 229.4375 6.894531 232.257812 7.75 C 235.074219 8.605469 237.871094 9.527344 240.644531 10.519531 C 243.417969 11.511719 246.164062 12.574219 248.886719 13.699219 C 251.609375 14.828125 254.300781 16.019531 256.960938 17.28125 C 259.625 18.539062 262.253906 19.863281 264.851562 21.25 C 267.449219 22.640625 270.011719 24.089844 272.539062 25.605469 C 275.066406 27.121094 277.554688 28.695312 280.003906 30.332031 C 282.453125 31.96875 284.859375 33.664062 287.222656 35.417969 C 289.589844 37.171875 291.910156 38.984375 294.1875 40.851562 C 296.464844 42.722656 298.695312 44.644531 300.878906 46.621094 C 303.058594 48.601562 305.191406 50.628906 307.273438 52.714844 C 309.359375 54.796875 311.386719 56.929688 313.367188 59.109375 C 315.34375 61.292969 317.265625 63.523438 319.136719 65.800781 C 321.003906 68.078125 322.816406 70.398438 324.570312 72.765625 C 326.324219 75.128906 328.019531 77.535156 329.65625 79.984375 C 331.292969 82.433594 332.867188 84.921875 334.382812 87.449219 C 335.898438 89.976562 337.347656 92.539062 338.738281 95.136719 C 340.125 97.734375 341.449219 100.363281 342.707031 103.027344 C 343.96875 105.6875 345.160156 108.378906 346.289062 111.101562 C 347.414062 113.824219 348.476562 116.570312 349.46875 119.34375 C 350.460938 122.117188 351.382812 124.910156 352.238281 127.730469 C 353.09375 130.550781 353.878906 133.386719 354.59375 136.246094 C 355.308594 139.101562 355.957031 141.972656 356.53125 144.863281 C 357.105469 147.753906 357.609375 150.652344 358.039062 153.566406 C 358.472656 156.480469 358.832031 159.402344 359.121094 162.332031 C 359.410156 165.265625 359.628906 168.203125 359.773438 171.144531 C 359.914062 174.085938 359.988281 177.027344 359.988281 179.972656 Z M 359.988281 179.972656 " fill-opacity="1" fill-rule="nonzero"/></g><path fill="#383835" d="M 226.054688 79.121094 C 216.925781 44.070312 112.78125 30.191406 98.917969 113.710938 C 85.058594 197.234375 36.027344 266.898438 146.59375 283.804688 C 257.164062 300.710938 280.832031 259.796875 274.070312 206.035156 C 267.304688 152.269531 254.796875 75.964844 226.054688 79.121094 Z M 226.054688 79.121094 " fill-opacity="1" fill-rule="nonzero"/><g clip-path="url(#66a5ffe760)"><path fill="#68c586" d="M 309.222656 305.367188 C 307.132812 307.519531 304.988281 309.621094 302.789062 311.667969 C 300.59375 313.71875 298.347656 315.707031 296.050781 317.644531 C 293.753906 319.578125 291.410156 321.453125 289.019531 323.273438 C 286.632812 325.089844 284.195312 326.847656 281.71875 328.542969 C 279.242188 330.238281 276.722656 331.871094 274.164062 333.441406 C 271.601562 335.011719 269.003906 336.515625 266.371094 337.957031 C 263.734375 339.394531 261.066406 340.769531 258.363281 342.074219 C 255.660156 343.382812 252.925781 344.621094 250.160156 345.789062 C 247.394531 346.957031 244.601562 348.058594 241.777344 349.089844 C 238.957031 350.117188 236.113281 351.078125 233.246094 351.964844 C 230.375 352.851562 227.488281 353.667969 224.578125 354.410156 C 221.667969 355.152344 218.742188 355.824219 215.800781 356.421875 C 212.855469 357.015625 209.902344 357.539062 206.933594 357.988281 C 203.960938 358.4375 200.984375 358.8125 197.996094 359.113281 C 195.007812 359.410156 192.015625 359.636719 189.015625 359.785156 C 186.015625 359.9375 183.015625 360.011719 180.015625 360.011719 C 177.011719 360.011719 174.011719 359.9375 171.011719 359.785156 C 168.011719 359.636719 165.019531 359.410156 162.03125 359.113281 C 159.042969 358.8125 156.066406 358.4375 153.09375 357.988281 C 150.125 357.539062 147.171875 357.015625 144.226562 356.421875 C 141.285156 355.824219 138.359375 355.152344 135.449219 354.410156 C 132.539062 353.667969 129.652344 352.851562 126.78125 351.964844 C 123.914062 351.078125 121.070312 350.117188 118.25 349.089844 C 115.429688 348.058594 112.632812 346.957031 109.867188 345.789062 C 107.101562 344.621094 104.367188 343.382812 101.664062 342.074219 C 98.960938 340.769531 96.292969 339.394531 93.65625 337.957031 C 91.023438 336.515625 88.425781 335.011719 85.863281 333.441406 C 83.304688 331.871094 80.785156 330.238281 78.308594 328.542969 C 75.832031 326.847656 73.394531 325.089844 71.007812 323.273438 C 68.617188 321.453125 66.273438 319.578125 63.976562 317.644531 C 61.679688 315.707031 59.433594 313.71875 57.238281 311.667969 C 55.039062 309.621094 52.894531 307.519531 50.804688 305.367188 C 52.136719 302.214844 53.582031 299.113281 55.144531 296.066406 C 56.703125 293.015625 58.371094 290.03125 60.148438 287.105469 C 61.929688 284.179688 63.8125 281.324219 65.796875 278.535156 C 67.785156 275.75 69.871094 273.035156 72.058594 270.402344 C 74.246094 267.765625 76.523438 265.214844 78.894531 262.746094 C 81.269531 260.28125 83.730469 257.902344 86.277344 255.613281 C 88.824219 253.328125 91.449219 251.136719 94.15625 249.039062 C 96.863281 246.945312 99.644531 244.949219 102.496094 243.058594 C 105.351562 241.167969 108.269531 239.382812 111.253906 237.703125 C 114.238281 236.023438 117.28125 234.457031 120.378906 233.003906 C 123.476562 231.546875 126.625 230.207031 129.820312 228.980469 C 133.019531 227.757812 136.253906 226.652344 139.535156 225.664062 C 142.8125 224.675781 146.121094 223.808594 149.460938 223.0625 C 152.804688 222.316406 156.167969 221.695312 159.554688 221.195312 C 162.941406 220.695312 166.34375 220.320312 169.757812 220.070312 C 173.171875 219.820312 176.589844 219.695312 180.015625 219.695312 C 183.4375 219.695312 186.855469 219.820312 190.269531 220.070312 C 193.683594 220.320312 197.085938 220.695312 200.472656 221.195312 C 203.859375 221.695312 207.222656 222.316406 210.566406 223.0625 C 213.90625 223.808594 217.214844 224.675781 220.492188 225.664062 C 223.773438 226.652344 227.007812 227.757812 230.207031 228.980469 C 233.402344 230.207031 236.550781 231.546875 239.648438 233.003906 C 242.75 234.457031 245.789062 236.023438 248.773438 237.703125 C 251.757812 239.382812 254.675781 241.167969 257.53125 243.058594 C 260.382812 244.949219 263.164062 246.945312 265.871094 249.039062 C 268.578125 251.136719 271.203125 253.328125 273.75 255.613281 C 276.296875 257.902344 278.757812 260.28125 281.132812 262.75 C 283.503906 265.214844 285.78125 267.765625 287.96875 270.402344 C 290.15625 273.035156 292.242188 275.75 294.230469 278.535156 C 296.214844 281.324219 298.097656 284.179688 299.878906 287.105469 C 301.65625 290.03125 303.324219 293.015625 304.882812 296.066406 C 306.445312 299.113281 307.890625 302.214844 309.222656 305.367188 Z M 309.222656 305.367188 " fill-opacity="1" fill-rule="nonzero"/></g><path fill="#b99887" d="M 179.941406 179.972656 C 180.773438 179.972656 181.601562 180.015625 182.425781 180.097656 C 183.253906 180.179688 184.074219 180.300781 184.886719 180.460938 C 185.699219 180.625 186.503906 180.824219 187.300781 181.066406 C 188.09375 181.308594 188.875 181.585938 189.640625 181.902344 C 190.40625 182.222656 191.15625 182.574219 191.890625 182.96875 C 192.621094 183.359375 193.332031 183.785156 194.023438 184.246094 C 194.710938 184.707031 195.378906 185.199219 196.019531 185.726562 C 196.660156 186.253906 197.277344 186.808594 197.863281 187.398438 C 198.449219 187.984375 199.003906 188.597656 199.53125 189.238281 C 200.058594 189.882812 200.550781 190.546875 201.015625 191.238281 C 201.476562 191.925781 201.902344 192.636719 202.292969 193.371094 C 202.683594 194.101562 203.039062 194.851562 203.355469 195.617188 C 203.671875 196.386719 203.953125 197.164062 204.195312 197.960938 C 204.433594 198.753906 204.636719 199.558594 204.796875 200.371094 C 204.960938 201.1875 205.082031 202.007812 205.164062 202.832031 C 205.242188 203.65625 205.285156 204.484375 205.285156 205.316406 L 205.285156 227.667969 C 205.285156 228.5 205.242188 229.324219 205.164062 230.152344 C 205.082031 230.976562 204.960938 231.796875 204.796875 232.613281 C 204.636719 233.425781 204.433594 234.230469 204.195312 235.023438 C 203.953125 235.820312 203.671875 236.597656 203.355469 237.367188 C 203.039062 238.132812 202.683594 238.882812 202.292969 239.613281 C 201.902344 240.347656 201.476562 241.058594 201.015625 241.746094 C 200.550781 242.4375 200.058594 243.101562 199.53125 243.746094 C 199.003906 244.386719 198.449219 245 197.863281 245.585938 C 197.277344 246.175781 196.660156 246.730469 196.019531 247.257812 C 195.378906 247.785156 194.710938 248.277344 194.023438 248.738281 C 193.332031 249.199219 192.621094 249.625 191.890625 250.015625 C 191.15625 250.410156 190.40625 250.761719 189.640625 251.082031 C 188.875 251.398438 188.09375 251.675781 187.300781 251.917969 C 186.503906 252.160156 185.699219 252.359375 184.886719 252.523438 C 184.074219 252.683594 183.253906 252.804688 182.425781 252.886719 C 181.601562 252.96875 180.773438 253.007812 179.941406 253.007812 C 179.113281 253.007812 178.285156 252.96875 177.460938 252.886719 C 176.632812 252.804688 175.8125 252.683594 175 252.523438 C 174.183594 252.359375 173.382812 252.160156 172.585938 251.917969 C 171.792969 251.675781 171.011719 251.398438 170.246094 251.082031 C 169.480469 250.761719 168.730469 250.410156 167.996094 250.015625 C 167.265625 249.625 166.554688 249.199219 165.863281 248.738281 C 165.175781 248.277344 164.507812 247.785156 163.867188 247.257812 C 163.226562 246.730469 162.609375 246.175781 162.023438 245.585938 C 161.4375 245 160.878906 244.386719 160.355469 243.746094 C 159.828125 243.101562 159.332031 242.4375 158.871094 241.746094 C 158.410156 241.058594 157.984375 240.347656 157.59375 239.613281 C 157.203125 238.882812 156.847656 238.132812 156.53125 237.367188 C 156.214844 236.597656 155.933594 235.820312 155.691406 235.023438 C 155.453125 234.230469 155.25 233.425781 155.089844 232.613281 C 154.925781 231.796875 154.804688 230.976562 154.722656 230.152344 C 154.640625 229.324219 154.601562 228.5 154.601562 227.667969 L 154.601562 205.316406 C 154.601562 204.484375 154.640625 203.65625 154.722656 202.832031 C 154.804688 202.007812 154.925781 201.1875 155.089844 200.371094 C 155.25 199.558594 155.453125 198.753906 155.691406 197.960938 C 155.933594 197.164062 156.214844 196.386719 156.53125 195.617188 C 156.847656 194.851562 157.203125 194.101562 157.59375 193.371094 C 157.984375 192.636719 158.410156 191.925781 158.871094 191.238281 C 159.332031 190.546875 159.828125 189.882812 160.355469 189.238281 C 160.878906 188.597656 161.4375 187.984375 162.023438 187.398438 C 162.609375 186.808594 163.226562 186.253906 163.867188 185.726562 C 164.507812 185.199219 165.175781 184.707031 165.863281 184.246094 C 166.554688 183.785156 167.265625 183.359375 167.996094 182.96875 C 168.730469 182.574219 169.480469 182.222656 170.246094 181.902344 C 171.011719 181.585938 171.792969 181.308594 172.585938 181.066406 C 173.382812 180.824219 174.183594 180.625 175 180.460938 C 175.8125 180.300781 176.632812 180.179688 177.460938 180.097656 C 178.285156 180.015625 179.113281 179.972656 179.941406 179.972656 Z M 179.941406 179.972656 " fill-opacity="1" fill-rule="nonzero"/><path fill="#b99887" d="M 133.753906 164.019531 C 133.753906 164.542969 133.726562 165.066406 133.675781 165.585938 C 133.625 166.105469 133.546875 166.625 133.445312 167.136719 C 133.34375 167.648438 133.21875 168.15625 133.066406 168.660156 C 132.914062 169.160156 132.738281 169.652344 132.535156 170.136719 C 132.335938 170.617188 132.113281 171.089844 131.867188 171.550781 C 131.621094 172.015625 131.351562 172.460938 131.058594 172.898438 C 130.769531 173.332031 130.457031 173.753906 130.125 174.15625 C 129.792969 174.5625 129.441406 174.949219 129.074219 175.320312 C 128.703125 175.691406 128.316406 176.039062 127.910156 176.371094 C 127.507812 176.703125 127.085938 177.015625 126.652344 177.308594 C 126.214844 177.597656 125.765625 177.867188 125.304688 178.113281 C 124.84375 178.359375 124.371094 178.582031 123.886719 178.785156 C 123.40625 178.984375 122.914062 179.160156 122.410156 179.3125 C 121.910156 179.464844 121.402344 179.589844 120.890625 179.691406 C 120.375 179.796875 119.859375 179.871094 119.339844 179.921875 C 118.816406 179.972656 118.296875 180 117.773438 180 C 117.25 180 116.726562 179.972656 116.207031 179.921875 C 115.683594 179.871094 115.167969 179.796875 114.65625 179.691406 C 114.140625 179.589844 113.632812 179.464844 113.132812 179.3125 C 112.632812 179.160156 112.140625 178.984375 111.65625 178.785156 C 111.171875 178.582031 110.699219 178.359375 110.238281 178.113281 C 109.777344 177.867188 109.328125 177.597656 108.894531 177.308594 C 108.457031 177.015625 108.039062 176.703125 107.632812 176.371094 C 107.230469 176.039062 106.84375 175.691406 106.472656 175.320312 C 106.101562 174.949219 105.75 174.5625 105.417969 174.15625 C 105.085938 173.753906 104.777344 173.332031 104.484375 172.898438 C 104.195312 172.460938 103.925781 172.015625 103.679688 171.550781 C 103.433594 171.089844 103.207031 170.617188 103.007812 170.136719 C 102.808594 169.652344 102.632812 169.160156 102.480469 168.65625 C 102.328125 168.15625 102.199219 167.648438 102.097656 167.136719 C 101.996094 166.625 101.917969 166.105469 101.867188 165.585938 C 101.816406 165.066406 101.792969 164.542969 101.792969 164.019531 C 101.792969 163.496094 101.816406 162.972656 101.867188 162.453125 C 101.917969 161.933594 101.996094 161.414062 102.097656 160.902344 C 102.199219 160.386719 102.328125 159.882812 102.480469 159.378906 C 102.632812 158.878906 102.808594 158.386719 103.007812 157.902344 C 103.207031 157.421875 103.433594 156.949219 103.679688 156.484375 C 103.925781 156.023438 104.195312 155.574219 104.484375 155.140625 C 104.777344 154.707031 105.085938 154.285156 105.417969 153.882812 C 105.75 153.476562 106.101562 153.089844 106.472656 152.71875 C 106.84375 152.347656 107.230469 151.996094 107.632812 151.664062 C 108.039062 151.332031 108.457031 151.023438 108.894531 150.730469 C 109.328125 150.441406 109.777344 150.171875 110.238281 149.925781 C 110.699219 149.679688 111.171875 149.457031 111.65625 149.253906 C 112.140625 149.054688 112.632812 148.878906 113.132812 148.726562 C 113.632812 148.574219 114.140625 148.449219 114.65625 148.34375 C 115.167969 148.242188 115.683594 148.167969 116.207031 148.117188 C 116.726562 148.0625 117.25 148.039062 117.773438 148.039062 C 118.296875 148.039062 118.816406 148.0625 119.339844 148.117188 C 119.859375 148.167969 120.375 148.242188 120.890625 148.34375 C 121.402344 148.449219 121.910156 148.574219 122.410156 148.726562 C 122.914062 148.878906 123.40625 149.054688 123.886719 149.253906 C 124.371094 149.457031 124.84375 149.679688 125.304688 149.925781 C 125.765625 150.171875 126.214844 150.441406 126.652344 150.730469 C 127.085938 151.023438 127.507812 151.332031 127.910156 151.664062 C 128.316406 151.996094 128.703125 152.347656 129.074219 152.71875 C 129.441406 153.089844 129.792969 153.476562 130.125 153.882812 C 130.457031 154.285156 130.769531 154.707031 131.058594 155.140625 C 131.351562 155.574219 131.621094 156.023438 131.867188 156.484375 C 132.113281 156.949219 132.335938 157.421875 132.535156 157.902344 C 132.738281 158.386719 132.914062 158.878906 133.066406 159.378906 C 133.21875 159.882812 133.34375 160.386719 133.445312 160.902344 C 133.546875 161.414062 133.625 161.933594 133.675781 162.453125 C 133.726562 162.972656 133.753906 163.496094 133.753906 164.019531 Z M 133.753906 164.019531 " fill-opacity="1" fill-rule="nonzero"/><path fill="#b99887" d="M 256.605469 164.019531 C 256.605469 164.542969 256.582031 165.066406 256.53125 165.585938 C 256.480469 166.105469 256.402344 166.625 256.300781 167.136719 C 256.199219 167.648438 256.070312 168.15625 255.917969 168.660156 C 255.765625 169.160156 255.589844 169.652344 255.390625 170.136719 C 255.191406 170.617188 254.964844 171.089844 254.71875 171.550781 C 254.472656 172.015625 254.203125 172.460938 253.914062 172.898438 C 253.621094 173.332031 253.3125 173.753906 252.980469 174.15625 C 252.648438 174.5625 252.296875 174.949219 251.925781 175.320312 C 251.554688 175.691406 251.167969 176.039062 250.765625 176.371094 C 250.359375 176.703125 249.941406 177.015625 249.503906 177.308594 C 249.070312 177.597656 248.621094 177.867188 248.160156 178.113281 C 247.699219 178.359375 247.226562 178.582031 246.742188 178.785156 C 246.257812 178.984375 245.765625 179.160156 245.265625 179.3125 C 244.765625 179.464844 244.257812 179.589844 243.742188 179.691406 C 243.230469 179.796875 242.714844 179.871094 242.191406 179.921875 C 241.671875 179.972656 241.148438 180 240.625 180 C 240.101562 180 239.582031 179.972656 239.058594 179.921875 C 238.539062 179.871094 238.023438 179.796875 237.507812 179.691406 C 236.996094 179.589844 236.488281 179.464844 235.988281 179.3125 C 235.484375 179.160156 234.992188 178.984375 234.511719 178.785156 C 234.027344 178.582031 233.554688 178.359375 233.09375 178.113281 C 232.632812 177.867188 232.183594 177.597656 231.746094 177.308594 C 231.3125 177.015625 230.890625 176.703125 230.488281 176.371094 C 230.082031 176.039062 229.695312 175.691406 229.324219 175.320312 C 228.957031 174.949219 228.605469 174.5625 228.273438 174.15625 C 227.941406 173.753906 227.628906 173.332031 227.339844 172.898438 C 227.046875 172.460938 226.777344 172.015625 226.53125 171.550781 C 226.285156 171.089844 226.0625 170.617188 225.863281 170.136719 C 225.660156 169.652344 225.484375 169.160156 225.332031 168.65625 C 225.179688 168.15625 225.054688 167.648438 224.953125 167.136719 C 224.851562 166.625 224.773438 166.105469 224.722656 165.585938 C 224.671875 165.066406 224.644531 164.542969 224.644531 164.019531 C 224.644531 163.496094 224.671875 162.972656 224.722656 162.453125 C 224.773438 161.933594 224.851562 161.414062 224.953125 160.902344 C 225.054688 160.386719 225.179688 159.882812 225.332031 159.378906 C 225.484375 158.878906 225.660156 158.386719 225.863281 157.902344 C 226.0625 157.421875 226.285156 156.949219 226.53125 156.484375 C 226.777344 156.023438 227.046875 155.574219 227.339844 155.140625 C 227.628906 154.707031 227.941406 154.285156 228.273438 153.882812 C 228.605469 153.476562 228.957031 153.089844 229.324219 152.71875 C 229.695312 152.347656 230.082031 151.996094 230.488281 151.664062 C 230.890625 151.332031 231.3125 151.023438 231.746094 150.730469 C 232.183594 150.441406 232.632812 150.171875 233.09375 149.925781 C 233.554688 149.679688 234.027344 149.457031 234.511719 149.253906 C 234.992188 149.054688 235.484375 148.878906 235.988281 148.726562 C 236.488281 148.574219 236.996094 148.449219 237.507812 148.34375 C 238.023438 148.242188 238.539062 148.167969 239.058594 148.117188 C 239.582031 148.0625 240.101562 148.039062 240.625 148.039062 C 241.148438 148.039062 241.671875 148.0625 242.191406 148.117188 C 242.714844 148.167969 243.230469 148.242188 243.742188 148.34375 C 244.257812 148.449219 244.765625 148.574219 245.265625 148.726562 C 245.765625 148.878906 246.257812 149.054688 246.742188 149.253906 C 247.226562 149.457031 247.699219 149.679688 248.160156 149.925781 C 248.621094 150.171875 249.070312 150.441406 249.503906 150.730469 C 249.941406 151.023438 250.359375 151.332031 250.765625 151.664062 C 251.167969 151.996094 251.554688 152.347656 251.925781 152.71875 C 252.296875 153.089844 252.648438 153.476562 252.980469 153.882812 C 253.3125 154.285156 253.621094 154.707031 253.914062 155.140625 C 254.203125 155.574219 254.472656 156.023438 254.71875 156.484375 C 254.964844 156.949219 255.191406 157.421875 255.390625 157.902344 C 255.589844 158.386719 255.765625 158.878906 255.917969 159.378906 C 256.070312 159.882812 256.199219 160.386719 256.300781 160.902344 C 256.402344 161.414062 256.480469 161.933594 256.53125 162.453125 C 256.582031 162.972656 256.605469 163.496094 256.605469 164.019531 Z M 256.605469 164.019531 " fill-opacity="1" fill-rule="nonzero"/><path fill="#ffc9ac" d="M 180.011719 79.121094 C 182.050781 79.121094 184.085938 79.222656 186.113281 79.421875 C 188.140625 79.621094 190.15625 79.921875 192.15625 80.316406 C 194.15625 80.714844 196.128906 81.210938 198.082031 81.800781 C 200.03125 82.394531 201.949219 83.078125 203.832031 83.859375 C 205.714844 84.640625 207.554688 85.511719 209.351562 86.472656 C 211.148438 87.433594 212.898438 88.480469 214.589844 89.613281 C 216.285156 90.742188 217.921875 91.957031 219.496094 93.25 C 221.074219 94.542969 222.582031 95.910156 224.023438 97.351562 C 225.464844 98.792969 226.832031 100.300781 228.125 101.878906 C 229.417969 103.453125 230.632812 105.089844 231.765625 106.785156 C 232.894531 108.480469 233.941406 110.226562 234.902344 112.023438 C 235.863281 113.820312 236.734375 115.660156 237.515625 117.542969 C 238.296875 119.429688 238.980469 121.34375 239.574219 123.296875 C 240.164062 125.246094 240.660156 127.222656 241.058594 129.21875 C 241.453125 131.21875 241.753906 133.234375 241.953125 135.261719 C 242.152344 137.292969 242.253906 139.324219 242.253906 141.363281 L 242.253906 157.453125 C 242.253906 159.492188 242.152344 161.523438 241.953125 163.554688 C 241.753906 165.582031 241.453125 167.59375 241.058594 169.59375 C 240.660156 171.59375 240.164062 173.570312 239.574219 175.519531 C 238.980469 177.46875 238.296875 179.386719 237.515625 181.269531 C 236.734375 183.152344 235.863281 184.996094 234.902344 186.792969 C 233.941406 188.589844 232.894531 190.335938 231.765625 192.03125 C 230.632812 193.726562 229.417969 195.363281 228.125 196.9375 C 226.832031 198.511719 225.464844 200.023438 224.023438 201.464844 C 222.582031 202.90625 221.074219 204.273438 219.496094 205.566406 C 217.921875 206.859375 216.285156 208.070312 214.589844 209.203125 C 212.898438 210.335938 211.152344 211.382812 209.351562 212.34375 C 207.554688 213.304688 205.714844 214.175781 203.832031 214.957031 C 201.949219 215.734375 200.03125 216.421875 198.082031 217.011719 C 196.128906 217.605469 194.15625 218.101562 192.15625 218.496094 C 190.15625 218.894531 188.140625 219.195312 186.113281 219.394531 C 184.085938 219.59375 182.050781 219.695312 180.011719 219.695312 C 177.972656 219.695312 175.941406 219.59375 173.910156 219.394531 C 171.882812 219.195312 169.871094 218.894531 167.871094 218.496094 C 165.871094 218.101562 163.894531 217.605469 161.945312 217.011719 C 159.996094 216.421875 158.078125 215.734375 156.195312 214.957031 C 154.3125 214.175781 152.46875 213.304688 150.671875 212.34375 C 148.875 211.382812 147.128906 210.335938 145.433594 209.203125 C 143.738281 208.070312 142.105469 206.859375 140.527344 205.566406 C 138.953125 204.273438 137.445312 202.90625 136.003906 201.464844 C 134.5625 200.023438 133.195312 198.511719 131.898438 196.9375 C 130.605469 195.363281 129.394531 193.726562 128.261719 192.03125 C 127.128906 190.335938 126.082031 188.589844 125.121094 186.792969 C 124.160156 184.996094 123.289062 183.152344 122.511719 181.269531 C 121.730469 179.386719 121.042969 177.46875 120.453125 175.519531 C 119.859375 173.570312 119.367188 171.59375 118.96875 169.59375 C 118.570312 167.59375 118.273438 165.582031 118.070312 163.554688 C 117.871094 161.523438 117.773438 159.492188 117.773438 157.453125 L 117.773438 141.363281 C 117.773438 139.324219 117.871094 137.292969 118.070312 135.261719 C 118.273438 133.234375 118.570312 131.21875 118.96875 129.21875 C 119.367188 127.222656 119.859375 125.246094 120.453125 123.296875 C 121.042969 121.34375 121.730469 119.429688 122.511719 117.542969 C 123.289062 115.660156 124.160156 113.820312 125.121094 112.023438 C 126.082031 110.226562 127.128906 108.480469 128.261719 106.785156 C 129.394531 105.089844 130.605469 103.453125 131.898438 101.878906 C 133.195312 100.300781 134.5625 98.792969 136.003906 97.351562 C 137.445312 95.910156 138.953125 94.542969 140.527344 93.25 C 142.105469 91.957031 143.738281 90.742188 145.433594 89.613281 C 147.128906 88.480469 148.875 87.433594 150.671875 86.472656 C 152.46875 85.511719 154.3125 84.640625 156.195312 83.859375 C 158.078125 83.078125 159.996094 82.394531 161.945312 81.800781 C 163.894531 81.210938 165.871094 80.714844 167.871094 80.316406 C 169.871094 79.921875 171.882812 79.621094 173.910156 79.421875 C 175.941406 79.222656 177.972656 79.121094 180.011719 79.121094 Z M 180.011719 79.121094 " fill-opacity="1" fill-rule="nonzero"/><path fill="#383835" d="M 117.773438 148.039062 C 201.367188 148.890625 224.644531 101.546875 224.644531 101.546875 C 224.644531 101.546875 228.59375 139.429688 242.253906 149.40625 C 249.398438 109.667969 228.421875 73.484375 173.984375 70.78125 C 119.546875 68.074219 104.84375 130.28125 117.773438 148.039062 Z M 117.773438 148.039062 " fill-opacity="1" fill-rule="nonzero"/></svg>