<svg xmlns="http://www.w3.org/2000/svg" xmlns:xlink="http://www.w3.org/1999/xlink" width="480" zoomAndPan="magnify" viewBox="0 0 360 367.91998" height="480" preserveAspectRatio="xMidYMid meet" version="1.0"><defs><clipPath id="32eca4334e"><path d="M 0.0390625 0 L 359.960938 0 L 359.960938 359.921875 L 0.0390625 359.921875 Z M 0.0390625 0 " clip-rule="nonzero"/></clipPath></defs><g clip-path="url(#32eca4334e)"><path fill="#f9c75b" d="M 359.960938 179.960938 C 359.960938 182.90625 359.886719 185.847656 359.742188 188.792969 C 359.597656 191.734375 359.382812 194.667969 359.09375 197.601562 C 358.804688 200.53125 358.445312 203.453125 358.011719 206.367188 C 357.582031 209.28125 357.078125 212.179688 356.503906 215.070312 C 355.929688 217.957031 355.285156 220.832031 354.566406 223.6875 C 353.851562 226.542969 353.066406 229.382812 352.210938 232.199219 C 351.355469 235.019531 350.433594 237.816406 349.441406 240.585938 C 348.449219 243.359375 347.390625 246.109375 346.261719 248.828125 C 345.136719 251.550781 343.941406 254.242188 342.683594 256.902344 C 341.421875 259.566406 340.101562 262.195312 338.710938 264.792969 C 337.324219 267.390625 335.871094 269.953125 334.359375 272.480469 C 332.84375 275.003906 331.269531 277.492188 329.632812 279.941406 C 327.996094 282.390625 326.300781 284.796875 324.546875 287.164062 C 322.792969 289.527344 320.980469 291.851562 319.113281 294.125 C 317.242188 296.402344 315.320312 298.632812 313.34375 300.816406 C 311.363281 302.996094 309.335938 305.128906 307.25 307.210938 C 305.167969 309.296875 303.035156 311.324219 300.855469 313.304688 C 298.671875 315.28125 296.441406 317.203125 294.164062 319.074219 C 291.890625 320.941406 289.566406 322.753906 287.203125 324.507812 C 284.835938 326.261719 282.429688 327.957031 279.980469 329.59375 C 277.53125 331.230469 275.042969 332.804688 272.519531 334.320312 C 269.992188 335.832031 267.429688 337.285156 264.832031 338.671875 C 262.234375 340.058594 259.605469 341.382812 256.941406 342.644531 C 254.28125 343.902344 251.589844 345.097656 248.867188 346.222656 C 246.148438 347.351562 243.398438 348.410156 240.625 349.402344 C 237.855469 350.394531 235.058594 351.316406 232.238281 352.171875 C 229.421875 353.027344 226.582031 353.8125 223.726562 354.527344 C 220.871094 355.242188 217.996094 355.890625 215.109375 356.464844 C 212.21875 357.039062 209.320312 357.542969 206.40625 357.972656 C 203.492188 358.40625 200.570312 358.765625 197.640625 359.054688 C 194.707031 359.34375 191.773438 359.558594 188.832031 359.703125 C 185.886719 359.847656 182.945312 359.921875 180 359.921875 C 177.054688 359.921875 174.113281 359.847656 171.167969 359.703125 C 168.226562 359.558594 165.292969 359.34375 162.359375 359.054688 C 159.429688 358.765625 156.507812 358.40625 153.59375 357.972656 C 150.679688 357.542969 147.78125 357.039062 144.890625 356.464844 C 142.003906 355.890625 139.128906 355.242188 136.273438 354.527344 C 133.417969 353.8125 130.578125 353.027344 127.761719 352.171875 C 124.941406 351.316406 122.144531 350.394531 119.371094 349.402344 C 116.601562 348.410156 113.851562 347.351562 111.132812 346.222656 C 108.410156 345.097656 105.71875 343.902344 103.058594 342.644531 C 100.394531 341.382812 97.765625 340.058594 95.167969 338.671875 C 92.570312 337.285156 90.007812 335.832031 87.480469 334.320312 C 84.957031 332.804688 82.46875 331.230469 80.019531 329.59375 C 77.570312 327.957031 75.164062 326.261719 72.796875 324.507812 C 70.433594 322.753906 68.109375 320.941406 65.835938 319.074219 C 63.558594 317.203125 61.328125 315.28125 59.144531 313.304688 C 56.964844 311.324219 54.832031 309.296875 52.75 307.210938 C 50.664062 305.128906 48.636719 302.996094 46.65625 300.816406 C 44.679688 298.632812 42.757812 296.402344 40.886719 294.125 C 39.019531 291.851562 37.207031 289.527344 35.453125 287.164062 C 33.699219 284.796875 32.003906 282.390625 30.367188 279.941406 C 28.730469 277.492188 27.15625 275.003906 25.640625 272.480469 C 24.128906 269.953125 22.675781 267.390625 21.289062 264.792969 C 19.898438 262.195312 18.578125 259.566406 17.316406 256.902344 C 16.058594 254.242188 14.863281 251.550781 13.738281 248.828125 C 12.609375 246.109375 11.550781 243.359375 10.558594 240.585938 C 9.566406 237.816406 8.644531 235.019531 7.789062 232.199219 C 6.933594 229.382812 6.148438 226.542969 5.433594 223.6875 C 4.714844 220.832031 4.070312 217.957031 3.496094 215.070312 C 2.921875 212.179688 2.417969 209.28125 1.988281 206.367188 C 1.554688 203.453125 1.195312 200.53125 0.90625 197.601562 C 0.617188 194.667969 0.402344 191.734375 0.257812 188.792969 C 0.113281 185.847656 0.0390625 182.90625 0.0390625 179.960938 C 0.0390625 177.015625 0.113281 174.070312 0.257812 171.128906 C 0.402344 168.1875 0.617188 165.253906 0.90625 162.320312 C 1.195312 159.390625 1.554688 156.46875 1.988281 153.554688 C 2.417969 150.640625 2.921875 147.742188 3.496094 144.851562 C 4.070312 141.964844 4.714844 139.089844 5.433594 136.234375 C 6.148438 133.378906 6.933594 130.539062 7.789062 127.722656 C 8.644531 124.902344 9.566406 122.105469 10.558594 119.332031 C 11.550781 116.5625 12.609375 113.8125 13.738281 111.09375 C 14.863281 108.371094 16.058594 105.679688 17.316406 103.019531 C 18.578125 100.355469 19.898438 97.726562 21.289062 95.128906 C 22.675781 92.53125 24.128906 89.96875 25.640625 87.441406 C 27.15625 84.917969 28.730469 82.429688 30.367188 79.980469 C 32.003906 77.53125 33.699219 75.125 35.453125 72.757812 C 37.207031 70.394531 39.019531 68.070312 40.886719 65.792969 C 42.757812 63.519531 44.679688 61.289062 46.65625 59.105469 C 48.636719 56.925781 50.664062 54.792969 52.75 52.710938 C 54.832031 50.625 56.964844 48.597656 59.144531 46.617188 C 61.328125 44.640625 63.558594 42.71875 65.835938 40.847656 C 68.109375 38.980469 70.433594 37.167969 72.796875 35.414062 C 75.164062 33.660156 77.570312 31.964844 80.019531 30.328125 C 82.46875 28.691406 84.957031 27.117188 87.480469 25.601562 C 90.007812 24.089844 92.570312 22.636719 95.167969 21.25 C 97.765625 19.859375 100.394531 18.539062 103.058594 17.277344 C 105.71875 16.019531 108.410156 14.824219 111.132812 13.699219 C 113.851562 12.570312 116.601562 11.511719 119.371094 10.519531 C 122.144531 9.527344 124.941406 8.605469 127.761719 7.75 C 130.578125 6.894531 133.417969 6.109375 136.273438 5.394531 C 139.128906 4.675781 142.003906 4.03125 144.890625 3.457031 C 147.78125 2.882812 150.679688 2.378906 153.59375 1.949219 C 156.507812 1.515625 159.429688 1.15625 162.359375 0.867188 C 165.292969 0.578125 168.226562 0.359375 171.167969 0.214844 C 174.113281 0.0703125 177.054688 0 180 0 C 182.945312 0 185.886719 0.0703125 188.832031 0.214844 C 191.773438 0.359375 194.707031 0.578125 197.640625 0.867188 C 200.570312 1.15625 203.492188 1.515625 206.40625 1.949219 C 209.320312 2.378906 212.21875 2.882812 215.109375 3.457031 C 217.996094 4.03125 220.871094 4.675781 223.726562 5.394531 C 226.582031 6.109375 229.421875 6.894531 232.238281 7.75 C 235.058594 8.605469 237.855469 9.527344 240.628906 10.519531 C 243.398438 11.511719 246.148438 12.570312 248.867188 13.699219 C 251.589844 14.824219 254.28125 16.019531 256.941406 17.277344 C 259.605469 18.539062 262.234375 19.859375 264.832031 21.25 C 267.429688 22.636719 269.992188 24.089844 272.519531 25.601562 C 275.042969 27.117188 277.53125 28.691406 279.980469 30.328125 C 282.429688 31.964844 284.835938 33.660156 287.203125 35.414062 C 289.566406 37.167969 291.890625 38.980469 294.164062 40.847656 C 296.441406 42.71875 298.671875 44.640625 300.855469 46.617188 C 303.035156 48.597656 305.167969 50.625 307.25 52.710938 C 309.335938 54.792969 311.363281 56.925781 313.34375 59.105469 C 315.320312 61.289062 317.242188 63.519531 319.113281 65.792969 C 320.980469 68.070312 322.792969 70.394531 324.546875 72.757812 C 326.300781 75.125 327.996094 77.53125 329.632812 79.980469 C 331.269531 82.429688 332.84375 84.917969 334.359375 87.441406 C 335.871094 89.96875 337.324219 92.53125 338.710938 95.128906 C 340.101562 97.726562 341.421875 100.355469 342.683594 103.019531 C 343.941406 105.679688 345.136719 108.371094 346.261719 111.09375 C 347.390625 113.8125 348.449219 116.5625 349.441406 119.332031 C 350.433594 122.105469 351.355469 124.902344 352.210938 127.722656 C 353.066406 130.539062 353.851562 133.378906 354.566406 136.234375 C 355.285156 139.089844 355.929688 141.964844 356.503906 144.851562 C 357.078125 147.742188 357.582031 150.640625 358.011719 153.554688 C 358.445312 156.46875 358.804688 159.390625 359.09375 162.320312 C 359.382812 165.253906 359.597656 168.1875 359.742188 171.128906 C 359.886719 174.070312 359.960938 177.015625 359.960938 179.960938 Z M 359.960938 179.960938 " fill-opacity="1" fill-rule="nonzero"/></g><path fill="#737373" d="M 133.828125 295.253906 L 78.070312 295.253906 C 70.78125 295.253906 64.839844 289.3125 64.839844 281.890625 L 64.839844 270.683594 C 64.839844 257.183594 75.910156 246.113281 89.410156 246.113281 L 122.488281 246.113281 C 135.988281 246.113281 147.058594 257.183594 147.058594 270.683594 L 147.058594 281.890625 C 147.058594 289.3125 141.117188 295.253906 133.828125 295.253906 Z M 89.410156 254.214844 C 80.367188 254.214844 72.941406 261.636719 72.941406 270.683594 L 72.941406 281.890625 C 72.941406 284.859375 75.238281 287.15625 78.070312 287.15625 L 133.828125 287.15625 C 136.664062 287.15625 138.957031 284.859375 138.957031 281.890625 L 138.957031 270.683594 C 138.957031 261.636719 131.535156 254.214844 122.488281 254.214844 Z M 89.410156 254.214844 " fill-opacity="1" fill-rule="evenodd"/><path fill="#737373" d="M 105.882812 238.554688 C 92.921875 238.554688 82.390625 228.023438 82.390625 215.0625 C 82.390625 201.964844 92.921875 191.4375 105.882812 191.4375 C 118.976562 191.4375 129.507812 201.964844 129.507812 215.0625 C 129.507812 228.023438 118.976562 238.554688 105.882812 238.554688 Z M 105.882812 199.535156 C 97.378906 199.535156 90.492188 206.558594 90.492188 215.0625 C 90.492188 223.566406 97.378906 230.453125 105.882812 230.453125 C 114.523438 230.453125 121.40625 223.566406 121.40625 215.0625 C 121.40625 206.558594 114.523438 199.535156 105.882812 199.535156 Z M 105.882812 199.535156 " fill-opacity="1" fill-rule="evenodd"/><path fill="#737373" d="M 180 238.554688 C 167.039062 238.554688 156.507812 228.023438 156.507812 215.0625 C 156.507812 201.964844 167.039062 191.4375 180 191.4375 C 193.09375 191.4375 203.625 201.964844 203.625 215.0625 C 203.625 228.023438 193.09375 238.554688 180 238.554688 Z M 207.945312 295.253906 L 152.1875 295.253906 C 144.898438 295.253906 138.957031 289.3125 138.957031 281.890625 L 138.957031 270.683594 C 138.957031 257.183594 149.894531 246.113281 163.53125 246.113281 L 196.605469 246.113281 C 210.105469 246.113281 221.175781 257.183594 221.175781 270.683594 L 221.175781 281.890625 C 221.175781 289.3125 215.234375 295.253906 207.945312 295.253906 Z M 207.945312 295.253906 " fill-opacity="1" fill-rule="evenodd"/><path fill="#737373" d="M 281.929688 295.253906 L 226.304688 295.253906 C 219.015625 295.253906 213.074219 289.3125 213.074219 281.890625 L 213.074219 270.683594 C 213.074219 257.183594 224.011719 246.113281 237.511719 246.113281 L 270.722656 246.113281 C 284.222656 246.113281 295.292969 257.183594 295.292969 270.683594 L 295.292969 281.890625 C 295.292969 289.3125 289.355469 295.253906 281.929688 295.253906 Z M 237.511719 254.214844 C 228.464844 254.214844 221.175781 261.636719 221.175781 270.683594 L 221.175781 281.890625 C 221.175781 284.859375 223.472656 287.15625 226.304688 287.15625 L 281.929688 287.15625 C 284.898438 287.15625 287.195312 284.859375 287.195312 281.890625 L 287.195312 270.683594 C 287.195312 261.636719 279.769531 254.214844 270.722656 254.214844 Z M 237.511719 254.214844 " fill-opacity="1" fill-rule="evenodd"/><path fill="#737373" d="M 254.117188 238.554688 C 241.15625 238.554688 230.492188 228.023438 230.492188 215.0625 C 230.492188 201.964844 241.15625 191.4375 254.117188 191.4375 C 267.210938 191.4375 277.742188 201.964844 277.742188 215.0625 C 277.742188 228.023438 267.210938 238.554688 254.117188 238.554688 Z M 254.117188 199.535156 C 245.613281 199.535156 238.59375 206.558594 238.59375 215.0625 C 238.59375 223.566406 245.613281 230.453125 254.117188 230.453125 C 262.621094 230.453125 269.644531 223.566406 269.644531 215.0625 C 269.644531 206.558594 262.621094 199.535156 254.117188 199.535156 Z M 254.117188 199.535156 " fill-opacity="1" fill-rule="evenodd"/><path fill="#737373" d="M 88.601562 170.644531 C 87.925781 170.644531 87.253906 170.511719 86.710938 170.242188 C 85.363281 169.566406 84.550781 168.082031 84.550781 166.59375 L 84.550781 149.179688 L 77.398438 149.179688 C 70.511719 149.179688 64.839844 143.507812 64.839844 136.625 L 64.839844 77.359375 C 64.839844 70.472656 70.511719 64.800781 77.398438 64.800781 L 183.238281 64.800781 C 190.125 64.800781 195.796875 70.472656 195.796875 77.359375 L 195.796875 83.433594 C 195.796875 85.726562 193.90625 87.484375 191.746094 87.484375 L 176.625 87.484375 C 174.195312 87.484375 172.167969 89.507812 172.167969 91.9375 L 172.167969 101.386719 C 172.167969 103.546875 170.414062 105.4375 168.121094 105.4375 L 137.339844 105.4375 C 135.855469 105.4375 134.503906 106.652344 134.503906 108.273438 L 134.503906 145.128906 C 134.503906 147.289062 132.75 149.179688 130.453125 149.179688 L 121.8125 149.179688 L 90.898438 169.96875 C 90.222656 170.511719 89.410156 170.644531 88.601562 170.644531 Z M 77.398438 72.902344 C 74.964844 72.902344 72.941406 74.925781 72.941406 77.359375 L 72.941406 136.625 C 72.941406 139.054688 74.964844 141.078125 77.398438 141.078125 L 88.601562 141.078125 C 90.898438 141.078125 92.652344 142.835938 92.652344 145.128906 L 92.652344 159.035156 L 118.304688 141.753906 C 118.976562 141.214844 119.652344 141.078125 120.464844 141.078125 L 126.402344 141.078125 L 126.402344 108.273438 C 126.402344 102.199219 131.261719 97.339844 137.339844 97.339844 L 164.070312 97.339844 L 164.070312 91.9375 C 164.070312 85.054688 169.738281 79.382812 176.625 79.382812 L 187.558594 79.382812 L 187.558594 77.359375 C 187.558594 74.925781 185.671875 72.902344 183.105469 72.902344 Z M 77.398438 72.902344 " fill-opacity="1" fill-rule="evenodd"/><path fill="#737373" d="M 195.527344 184.28125 C 194.714844 184.28125 193.90625 184.011719 193.230469 183.472656 L 168.523438 166.867188 L 137.339844 166.867188 C 131.261719 166.867188 126.402344 162.003906 126.402344 155.929688 L 126.402344 108.273438 C 126.402344 102.199219 131.261719 97.339844 137.339844 97.339844 L 222.527344 97.339844 C 228.601562 97.339844 233.460938 102.199219 233.460938 108.273438 L 233.460938 155.929688 C 233.460938 162.003906 228.601562 166.867188 222.527344 166.867188 L 199.574219 166.867188 L 199.574219 180.230469 C 199.574219 181.714844 198.765625 183.066406 197.414062 183.742188 C 196.875 184.011719 196.199219 184.28125 195.527344 184.28125 Z M 195.527344 184.28125 " fill-opacity="1" fill-rule="evenodd"/><path fill="#737373" d="M 271.261719 180.769531 C 270.453125 180.769531 269.644531 180.5 268.96875 180.097656 L 238.050781 159.171875 L 229.410156 159.171875 C 227.25 159.171875 225.363281 157.414062 225.363281 155.121094 L 225.363281 108.273438 C 225.363281 106.652344 224.144531 105.4375 222.527344 105.4375 L 168.121094 105.4375 C 165.960938 105.4375 164.070312 103.546875 164.070312 101.386719 L 164.070312 91.9375 C 164.070312 85.054688 169.738281 79.382812 176.625 79.382812 L 282.46875 79.382812 C 289.355469 79.382812 295.023438 85.054688 295.023438 91.9375 L 295.023438 146.613281 C 295.023438 153.636719 289.355469 159.171875 282.46875 159.171875 L 275.3125 159.171875 L 275.3125 176.722656 C 275.3125 178.207031 274.503906 179.554688 273.152344 180.367188 C 272.613281 180.636719 271.9375 180.769531 271.261719 180.769531 Z M 233.460938 151.070312 L 239.402344 151.070312 C 240.210938 151.070312 240.886719 151.339844 241.5625 151.746094 L 267.210938 169.160156 L 267.210938 155.121094 C 267.210938 152.960938 268.96875 151.070312 271.261719 151.070312 L 282.46875 151.070312 C 284.898438 151.070312 286.921875 149.179688 286.921875 146.613281 L 286.921875 91.9375 C 286.921875 89.507812 284.898438 87.484375 282.46875 87.484375 L 176.625 87.484375 C 174.195312 87.484375 172.167969 89.507812 172.167969 91.9375 L 172.167969 97.339844 L 222.527344 97.339844 C 228.601562 97.339844 233.460938 102.199219 233.460938 108.273438 Z M 233.460938 151.070312 " fill-opacity="1" fill-rule="evenodd"/></svg>