<svg xmlns="http://www.w3.org/2000/svg" xmlns:xlink="http://www.w3.org/1999/xlink" width="480" zoomAndPan="magnify" viewBox="0 0 360 367.91998" height="480" preserveAspectRatio="xMidYMid meet" version="1.0"><defs><clipPath id="e444132930"><path d="M 36.03125 0 L 323.96875 0 L 323.96875 359.921875 L 36.03125 359.921875 Z M 36.03125 0 " clip-rule="nonzero"/></clipPath></defs><g clip-path="url(#e444132930)"><path fill="#b99887" d="M 77.429688 92.53125 L 46.007812 130.625 C 44.398438 132.578125 43.523438 134.847656 43.355469 137.179688 C 43.1875 139.585938 43.773438 142.078125 45.09375 144.378906 L 80.832031 206.695312 C 83.277344 210.957031 86.535156 212.601562 89.507812 212.414062 C 90.757812 212.332031 91.972656 211.949219 93.066406 211.320312 C 94.183594 210.675781 95.191406 209.761719 95.988281 208.636719 C 98.101562 205.664062 98.660156 201.207031 96.046875 196.269531 L 67.839844 142.960938 C 67.160156 141.664062 67.332031 140.144531 68.15625 139.046875 L 86.347656 114.914062 C 87.570312 113.300781 89.867188 112.976562 91.480469 114.195312 C 92.539062 114.996094 93.042969 116.257812 92.921875 117.488281 L 90.550781 170.222656 L 102.527344 192.859375 C 106.613281 200.582031 105.527344 207.851562 101.953125 212.882812 C 100.550781 214.851562 98.75 216.480469 96.707031 217.65625 C 94.640625 218.851562 92.339844 219.574219 89.964844 219.722656 C 88.804688 219.796875 87.632812 219.738281 86.460938 219.535156 L 81.960938 338.269531 C 81.714844 344.78125 85.148438 349.09375 89.675781 351.089844 C 91.53125 351.910156 93.554688 352.363281 95.582031 352.449219 C 97.628906 352.53125 99.679688 352.246094 101.574219 351.582031 C 106.207031 349.964844 109.929688 345.972656 110.199219 339.480469 L 115.203125 220.15625 C 115.382812 215.796875 117.847656 212.941406 121 211.597656 C 122.296875 211.046875 123.71875 210.769531 125.136719 210.769531 C 126.558594 210.769531 127.976562 211.042969 129.273438 211.597656 C 132.425781 212.941406 134.886719 215.796875 135.066406 220.15625 L 140.066406 339.480469 C 140.339844 345.933594 144.128906 349.921875 148.824219 351.535156 C 150.746094 352.195312 152.804688 352.484375 154.835938 352.398438 C 156.863281 352.316406 158.878906 351.867188 160.722656 351.058594 C 165.222656 349.078125 168.617188 344.8125 168.351562 338.328125 L 159.066406 113.15625 C 158.988281 111.136719 160.558594 109.433594 162.578125 109.355469 C 163.199219 109.332031 163.789062 109.460938 164.3125 109.714844 L 195.210938 124.679688 L 195.542969 115.734375 C 195.867188 107.058594 193.238281 98.960938 188.4375 92.496094 C 183.632812 86.03125 176.648438 81.183594 168.257812 78.988281 C 162.957031 77.601562 158.203125 77.21875 152.742188 76.773438 L 152.574219 76.761719 C 145.863281 82.066406 137.382812 85.238281 128.164062 85.238281 C 124.714844 85.238281 121.367188 84.792969 118.179688 83.957031 L 105.507812 96.332031 C 99.371094 102.324219 92.152344 102.890625 86.269531 100.398438 C 84.023438 99.445312 81.996094 98.046875 80.3125 96.335938 C 79.191406 95.191406 78.214844 93.910156 77.429688 92.53125 Z M 159.28125 69.996094 C 162.097656 66.371094 164.292969 62.242188 165.714844 57.765625 C 180.46875 60.105469 193.761719 64.5 207.796875 69.140625 L 210.414062 70.007812 C 217.207031 75.574219 225.894531 78.917969 235.363281 78.917969 C 240.402344 78.917969 245.21875 77.96875 249.648438 76.246094 C 257.636719 77.421875 264.523438 78.984375 269.914062 81.179688 C 275 83.25 278.644531 85.835938 280.441406 89.144531 C 280.558594 89.375 280.703125 89.601562 280.875 89.8125 L 313.796875 129.742188 C 315.488281 131.792969 316.4375 134.226562 316.585938 136.679688 C 316.726562 139.050781 316.109375 141.453125 314.675781 143.558594 L 282.703125 190.542969 C 279.632812 195.054688 275.390625 196.546875 271.664062 196 C 270.195312 195.78125 268.820312 195.273438 267.632812 194.53125 C 266.472656 193.804688 265.476562 192.839844 264.742188 191.691406 C 263.0625 189.074219 262.871094 185.386719 265.421875 181.300781 L 279.417969 158.835938 C 279.492188 158.730469 279.5625 158.617188 279.628906 158.5 L 293.625 136.039062 C 294.457031 134.703125 294.320312 133.03125 293.40625 131.855469 L 275.246094 107.765625 C 274.027344 106.148438 271.730469 105.828125 270.113281 107.046875 C 269.070312 107.835938 268.566406 109.074219 268.671875 110.285156 L 268.667969 110.285156 L 272.652344 155.839844 L 259.199219 177.425781 C 254.925781 184.28125 255.46875 190.796875 258.578125 195.648438 C 259.886719 197.6875 261.671875 199.414062 263.761719 200.722656 C 265.824219 202.015625 268.164062 202.890625 270.605469 203.25 C 272.171875 203.480469 273.785156 203.507812 275.402344 203.304688 L 280.941406 338.324219 C 281.207031 344.808594 277.8125 349.078125 273.3125 351.054688 C 271.46875 351.867188 269.453125 352.316406 267.421875 352.398438 C 265.390625 352.480469 263.332031 352.195312 261.414062 351.535156 C 256.71875 349.917969 252.929688 345.929688 252.660156 339.476562 L 247.660156 220.15625 C 247.476562 215.792969 245.015625 212.9375 241.863281 211.59375 C 240.570312 211.042969 239.148438 210.765625 237.730469 210.765625 C 236.308594 210.765625 234.886719 211.042969 233.59375 211.59375 C 230.4375 212.9375 227.976562 215.796875 227.792969 220.15625 L 222.792969 339.476562 C 222.519531 345.96875 218.800781 349.960938 214.175781 351.578125 C 212.28125 352.242188 210.226562 352.527344 208.183594 352.445312 C 206.152344 352.363281 204.128906 351.90625 202.273438 351.089844 C 197.746094 349.089844 194.308594 344.78125 194.554688 338.269531 L 202.300781 130.71875 C 202.3125 130.609375 202.316406 130.496094 202.3125 130.386719 L 202.851562 115.992188 C 203.238281 105.609375 200.082031 95.902344 194.308594 88.136719 C 188.535156 80.363281 180.152344 74.535156 170.089844 71.902344 C 166.234375 70.898438 162.78125 70.371094 159.28125 69.996094 Z M 167.265625 50.601562 C 179.316406 52.539062 190.234375 55.722656 201.285156 59.285156 C 197.910156 53.480469 195.976562 46.730469 195.976562 39.53125 C 195.976562 28.652344 200.386719 18.808594 207.515625 11.679688 C 214.640625 4.550781 224.488281 0.144531 235.363281 0.144531 C 246.238281 0.144531 256.085938 4.550781 263.214844 11.679688 C 270.339844 18.808594 274.75 28.652344 274.75 39.53125 C 274.75 50.40625 270.339844 60.253906 263.214844 67.378906 C 262.082031 68.515625 260.878906 69.578125 259.613281 70.566406 C 262.5 71.175781 265.210938 71.859375 267.722656 72.632812 C 273.144531 66.648438 279.539062 63.984375 285.476562 64.074219 C 289.027344 64.128906 292.394531 65.160156 295.292969 67.050781 C 298.171875 68.925781 300.582031 71.632812 302.242188 75.050781 C 305.511719 81.78125 305.867188 91.347656 300.976562 102.699219 L 319.445312 125.097656 C 322.140625 128.367188 323.660156 132.277344 323.894531 136.25 C 324.128906 140.191406 323.105469 144.1875 320.726562 147.6875 L 288.753906 194.671875 C 286.949219 197.320312 284.859375 199.308594 282.621094 200.714844 L 288.253906 338.039062 C 288.664062 348.039062 283.328125 354.660156 276.265625 357.765625 C 273.597656 358.941406 270.667969 359.589844 267.710938 359.710938 C 264.757812 359.832031 261.785156 359.421875 259.03125 358.472656 C 251.6875 355.949219 245.765625 349.753906 245.347656 339.765625 L 240.347656 220.445312 C 240.300781 219.347656 239.726562 218.644531 238.996094 218.335938 C 238.597656 218.164062 238.164062 218.082031 237.726562 218.082031 C 237.292969 218.082031 236.859375 218.167969 236.460938 218.335938 C 235.726562 218.648438 235.148438 219.347656 235.105469 220.445312 L 230.101562 339.769531 C 229.683594 349.765625 223.847656 355.949219 216.585938 358.492188 C 213.816406 359.460938 210.839844 359.878906 207.894531 359.761719 C 204.933594 359.640625 201.996094 358.984375 199.320312 357.800781 C 192.238281 354.675781 186.867188 348.015625 187.242188 338.015625 L 194.90625 132.671875 L 166.625 118.972656 L 175.660156 338.042969 C 176.070312 348.039062 170.734375 354.664062 163.671875 357.769531 C 161.003906 358.941406 158.074219 359.59375 155.117188 359.710938 C 152.167969 359.832031 149.195312 359.421875 146.441406 358.476562 C 139.097656 355.953125 133.171875 349.757812 132.753906 339.765625 L 127.753906 220.445312 C 127.707031 219.347656 127.132812 218.644531 126.402344 218.335938 C 126.003906 218.164062 125.570312 218.082031 125.132812 218.082031 C 124.699219 218.082031 124.261719 218.167969 123.863281 218.335938 C 123.128906 218.648438 122.554688 219.347656 122.507812 220.445312 L 117.507812 339.769531 C 117.089844 349.769531 111.25 355.957031 103.976562 358.496094 C 101.207031 359.460938 98.234375 359.878906 95.289062 359.761719 C 92.328125 359.640625 89.394531 358.984375 86.71875 357.800781 C 79.640625 354.675781 74.269531 348.015625 74.648438 338.015625 L 79.265625 216.167969 C 77.503906 214.71875 75.871094 212.792969 74.464844 210.335938 L 38.726562 148.023438 C 36.675781 144.449219 35.769531 140.515625 36.042969 136.664062 C 36.316406 132.859375 37.742188 129.15625 40.359375 125.984375 L 75.183594 83.761719 C 75.296875 79.675781 77.007812 75.4375 80.914062 71.648438 L 91.820312 61.054688 C 89.859375 56.378906 88.773438 51.242188 88.773438 45.851562 C 88.773438 34.976562 93.183594 25.128906 100.3125 18 C 107.441406 10.875 117.285156 6.464844 128.164062 6.464844 C 139.039062 6.464844 148.886719 10.875 156.011719 18 C 163.140625 25.128906 167.550781 34.976562 167.550781 45.851562 C 167.550781 47.457031 167.453125 49.042969 167.265625 50.601562 Z M 95.425781 67.757812 C 96.859375 69.894531 98.496094 71.886719 100.3125 73.699219 C 103.304688 76.695312 106.78125 79.210938 110.609375 81.117188 L 100.402344 91.085938 C 96.703125 94.695312 92.484375 95.09375 89.105469 93.660156 C 87.777344 93.097656 86.558594 92.25 85.53125 91.203125 C 84.523438 90.179688 83.714844 88.957031 83.1875 87.621094 C 81.902344 84.375 82.417969 80.386719 86.015625 76.894531 Z M 150.824219 23.191406 C 156.621094 28.988281 160.210938 37 160.210938 45.851562 C 160.210938 54.699219 156.621094 62.710938 150.824219 68.511719 C 145.023438 74.308594 137.011719 77.898438 128.164062 77.898438 C 119.3125 77.898438 111.300781 74.308594 105.5 68.511719 C 99.703125 62.710938 96.117188 54.699219 96.117188 45.851562 C 96.117188 37 99.703125 28.988281 105.5 23.191406 C 111.300781 17.390625 119.3125 13.804688 128.164062 13.804688 C 137.011719 13.804688 145.023438 17.390625 150.824219 23.191406 Z M 258.023438 16.871094 C 252.226562 11.070312 244.214844 7.484375 235.363281 7.484375 C 226.515625 7.484375 218.503906 11.070312 212.703125 16.871094 C 206.90625 22.667969 203.316406 30.679688 203.316406 39.53125 C 203.316406 48.378906 206.90625 56.390625 212.703125 62.191406 C 218.503906 67.988281 226.515625 71.578125 235.363281 71.578125 C 244.214844 71.578125 252.226562 67.988281 258.023438 62.191406 C 263.824219 56.390625 267.410156 48.378906 267.410156 39.53125 C 267.410156 30.679688 263.824219 22.667969 258.023438 16.871094 Z M 275.222656 75.511719 C 280.460938 78.027344 284.398438 81.253906 286.738281 85.421875 L 295.636719 96.21875 C 298.136719 88.707031 297.753906 82.570312 295.648438 78.234375 C 294.585938 76.046875 293.085938 74.339844 291.308594 73.183594 C 289.554688 72.042969 287.527344 71.417969 285.390625 71.386719 C 282.117188 71.335938 278.554688 72.636719 275.222656 75.511719 Z M 279.109375 145.476562 L 286.074219 134.300781 L 277.089844 122.386719 Z M 75.40625 141.601562 L 85.085938 128.761719 L 83.796875 157.460938 Z M 75.40625 141.601562 " fill-opacity="1" fill-rule="evenodd"/></g></svg>