<svg xmlns="http://www.w3.org/2000/svg" xmlns:xlink="http://www.w3.org/1999/xlink" width="480" zoomAndPan="magnify" viewBox="0 0 360 359.999987" height="480" preserveAspectRatio="xMidYMid meet" version="1.0"><path stroke-linecap="round" transform="matrix(3.810937, 0, 0, 3.810937, -124.411858, -141.045106)" fill="none" stroke-linejoin="round" d="M 76.849566 38.769524 C 107.929928 36.529877 132.179621 66.609828 123.449608 96.460177 C 113.320457 131.100399 68.609509 140.680145 45.440177 113.119669 C 21.640463 84.799661 40.009672 41.430451 76.849566 38.769524 Z M 76.849566 38.769524 " stroke="#c49c7a" stroke-width="3.05" stroke-opacity="1" stroke-miterlimit="4"/><path stroke-linecap="round" transform="matrix(3.810937, 0, 0, 3.810937, -124.411858, -141.045106)" fill-opacity="1" fill="#c49c7a" fill-rule="nonzero" stroke-linejoin="round" d="M 73.569534 90.739595 C 69.370067 90.139964 59.599669 91.990108 56.300161 89.639759 C 51.369861 86.130124 53.110329 79.040128 59.140464 77.940292 C 60.989583 77.599988 73.089829 78.399496 73.520333 77.669689 C 74.199915 73.930452 72.509673 64.450132 74.17019 61.479652 C 76.989993 56.470427 84.15994 56.910156 86.109509 62.290435 C 86.809591 64.210279 86.609714 75.169689 86.470313 77.799865 L 86.600489 77.890066 C 92.420497 78.909952 104.279866 74.969812 106.340137 82.810116 C 107.18987 86.039923 105.249526 89.229755 102.20012 90.409542 C 99.849772 91.319751 86.630214 90.240415 86.14026 90.869771 C 86.159735 94.500358 87.399997 104.420407 85.699505 107.389862 C 83.789911 110.73037 79.620169 111.899907 76.399587 109.710485 C 71.75014 106.540128 73.989788 97.469812 73.560309 92.299661 C 73.520333 91.790231 73.590034 91.25005 73.560309 90.739595 Z M 73.569534 90.739595 " stroke="#c49c7a" stroke-width="3.05" stroke-opacity="1" stroke-miterlimit="4"/></svg>