<svg xmlns="http://www.w3.org/2000/svg" xmlns:xlink="http://www.w3.org/1999/xlink" width="480" zoomAndPan="magnify" viewBox="0 0 360 359.999987" height="480" preserveAspectRatio="xMidYMid meet" version="1.0"><defs><clipPath id="04ceb0a335"><path d="M 0 8.324219 L 360 8.324219 L 360 351.824219 L 0 351.824219 Z M 0 8.324219 " clip-rule="nonzero"/></clipPath></defs><g clip-path="url(#04ceb0a335)"><path fill="#b99887" d="M 359.890625 279.410156 C 359.890625 299.691406 340.476562 318.273438 305.230469 331.734375 C 271.691406 344.546875 227.21875 351.601562 180 351.601562 C 132.78125 351.601562 88.308594 344.546875 54.769531 331.734375 C 19.523438 318.273438 0.109375 299.691406 0.109375 279.410156 C 0.109375 264.445312 10.703125 250.277344 30.742188 238.433594 C 33.414062 236.851562 36.863281 237.738281 38.445312 240.414062 C 40.027344 243.089844 39.140625 246.539062 36.464844 248.121094 C 25.015625 254.890625 11.363281 265.8125 11.363281 279.410156 C 11.363281 308.839844 79.125 340.347656 180 340.347656 C 280.871094 340.347656 348.632812 308.835938 348.632812 279.410156 C 348.632812 265.808594 334.972656 254.886719 323.515625 248.125 C 320.839844 246.542969 319.949219 243.09375 321.53125 240.417969 C 323.109375 237.742188 326.558594 236.851562 329.238281 238.429688 C 349.289062 250.269531 359.890625 264.4375 359.890625 279.40625 Z M 226.039062 254.011719 L 226.039062 223.449219 C 224.789062 223.15625 223.582031 222.746094 222.4375 222.226562 L 222.4375 290.34375 C 222.4375 303.59375 211.65625 314.375 198.40625 314.375 C 191.027344 314.375 184.410156 311.03125 180 305.777344 C 175.589844 311.027344 168.976562 314.375 161.597656 314.375 C 148.335938 314.375 137.546875 303.59375 137.546875 290.34375 L 137.546875 222.234375 C 136.40625 222.753906 135.207031 223.160156 133.960938 223.449219 L 133.960938 254.011719 C 133.960938 267.261719 123.171875 278.042969 109.910156 278.042969 C 102.53125 278.042969 95.917969 274.699219 91.507812 269.449219 C 87.09375 274.699219 80.480469 278.042969 73.101562 278.042969 C 59.851562 278.042969 49.070312 267.261719 49.070312 254.011719 L 49.070312 185.898438 C 46.652344 187 43.964844 187.617188 41.132812 187.617188 C 30.5625 187.617188 21.964844 179.015625 21.964844 168.445312 L 21.964844 111.9375 C 21.964844 90.921875 36.78125 73.3125 56.511719 68.980469 C 52.613281 62.855469 50.347656 55.601562 50.347656 47.820312 C 50.347656 26.015625 68.085938 8.273438 89.890625 8.273438 C 111.699219 8.273438 129.421875 26.015625 129.421875 47.820312 C 129.421875 55.367188 127.292969 62.425781 123.605469 68.429688 C 129.457031 69.300781 135.023438 71.335938 140.035156 74.429688 C 144.378906 57.308594 159.917969 44.605469 178.367188 44.605469 C 197.511719 44.605469 213.515625 58.277344 217.144531 76.367188 C 222.828125 72.25 229.433594 69.519531 236.402344 68.460938 C 232.703125 62.449219 230.566406 55.378906 230.566406 47.820312 C 230.566406 26.015625 248.304688 8.273438 270.113281 8.273438 C 291.917969 8.273438 309.660156 26.015625 309.660156 47.820312 C 309.660156 55.601562 307.390625 62.855469 303.492188 68.976562 C 323.226562 73.308594 338.042969 90.921875 338.042969 111.9375 L 338.042969 168.441406 C 338.042969 179.011719 329.433594 187.613281 318.851562 187.613281 C 316.03125 187.613281 313.347656 187 310.933594 185.902344 L 310.933594 254.011719 C 310.933594 267.261719 300.152344 278.039062 286.902344 278.039062 C 279.515625 278.039062 272.898438 274.695312 268.480469 269.441406 C 264.070312 274.695312 257.457031 278.039062 250.074219 278.039062 C 236.824219 278.039062 226.042969 267.261719 226.042969 254.011719 Z M 241.816406 47.824219 C 241.816406 63.414062 254.507812 76.097656 270.109375 76.097656 C 285.707031 76.097656 298.402344 63.414062 298.402344 47.824219 C 298.402344 32.234375 285.707031 19.53125 270.109375 19.53125 C 254.507812 19.53125 241.816406 32.222656 241.816406 47.824219 Z M 217.164062 91.796875 C 216.246094 96.46875 214.507812 100.84375 212.097656 104.769531 C 233.261719 107.941406 249.542969 126.238281 249.542969 148.269531 L 249.542969 204.777344 C 249.542969 212.90625 244.453125 219.867188 237.292969 222.648438 L 237.292969 254.011719 C 237.292969 261.058594 243.027344 266.789062 250.070312 266.789062 C 257.117188 266.789062 262.847656 261.058594 262.847656 254.011719 C 262.847656 253.964844 262.855469 253.917969 262.855469 253.875 C 262.855469 253.828125 262.847656 253.78125 262.847656 253.734375 L 262.847656 202.625 C 262.847656 199.515625 265.367188 196.996094 268.476562 196.996094 C 271.582031 196.996094 274.101562 199.515625 274.101562 202.625 L 274.101562 253.734375 C 274.101562 253.78125 274.097656 253.828125 274.09375 253.875 C 274.097656 253.917969 274.101562 253.964844 274.101562 254.011719 C 274.101562 261.058594 279.84375 266.789062 286.898438 266.789062 C 293.957031 266.789062 299.675781 261.058594 299.675781 254.011719 L 299.675781 168.445312 C 299.675781 168.421875 299.679688 168.398438 299.679688 168.375 C 299.679688 168.351562 299.675781 168.328125 299.675781 168.304688 L 299.675781 116.957031 C 299.675781 113.851562 302.195312 111.332031 305.304688 111.332031 C 308.410156 111.332031 310.929688 113.847656 310.929688 116.957031 L 310.929688 168.304688 C 310.929688 168.328125 310.925781 168.351562 310.925781 168.375 C 310.925781 168.398438 310.929688 168.421875 310.929688 168.445312 C 310.929688 172.808594 314.484375 176.363281 318.847656 176.363281 C 323.214844 176.363281 326.785156 172.808594 326.785156 168.445312 L 326.785156 111.9375 C 326.785156 93.910156 312.132812 79.238281 294.113281 79.203125 C 287.449219 84.308594 279.128906 87.351562 270.109375 87.351562 C 261.085938 87.351562 252.761719 84.308594 246.097656 79.203125 L 242.917969 79.203125 C 232.910156 79.203125 223.378906 83.894531 217.164062 91.796875 Z M 150.074219 84.152344 C 150.074219 99.753906 162.765625 112.445312 178.367188 112.445312 C 193.964844 112.445312 206.660156 99.753906 206.660156 84.152344 C 206.660156 68.554688 193.964844 55.859375 178.367188 55.859375 C 162.765625 55.859375 150.074219 68.554688 150.074219 84.152344 Z M 61.597656 47.824219 C 61.597656 63.414062 74.289062 76.097656 89.890625 76.097656 C 105.488281 76.097656 118.164062 63.414062 118.164062 47.824219 C 118.164062 32.234375 105.480469 19.53125 89.890625 19.53125 C 74.300781 19.53125 61.597656 32.222656 61.597656 47.824219 Z M 122.707031 254.011719 L 122.707031 222.648438 C 115.546875 219.867188 110.457031 212.90625 110.457031 204.777344 L 110.457031 148.269531 C 110.457031 127.257812 125.261719 109.648438 144.984375 105.3125 C 141.679688 100.125 139.554688 94.121094 138.984375 87.671875 C 132.941406 82.199219 125.242188 79.203125 117.078125 79.203125 L 113.886719 79.203125 C 107.230469 84.308594 98.910156 87.351562 89.890625 87.351562 C 80.875 87.351562 72.550781 84.308594 65.886719 79.207031 C 47.867188 79.242188 33.214844 93.910156 33.214844 111.941406 L 33.214844 168.445312 C 33.214844 172.8125 36.769531 176.363281 41.132812 176.363281 C 45.5 176.363281 49.070312 172.8125 49.070312 168.445312 C 49.070312 168.4375 49.070312 168.433594 49.070312 168.425781 C 49.070312 168.417969 49.070312 168.414062 49.070312 168.40625 L 49.070312 116.957031 C 49.070312 113.851562 51.589844 111.332031 54.699219 111.332031 C 57.804688 111.332031 60.324219 113.847656 60.324219 116.957031 L 60.324219 168.40625 C 60.324219 168.414062 60.324219 168.417969 60.324219 168.425781 C 60.324219 168.433594 60.324219 168.4375 60.324219 168.445312 L 60.324219 254.011719 C 60.324219 261.058594 66.054688 266.792969 73.101562 266.792969 C 80.148438 266.792969 85.878906 261.058594 85.878906 254.011719 C 85.878906 254.011719 85.878906 254.007812 85.878906 254.003906 C 85.878906 254 85.878906 253.996094 85.878906 253.996094 L 85.878906 202.625 C 85.878906 199.519531 88.398438 197 91.507812 197 C 94.613281 197 97.132812 199.519531 97.132812 202.625 L 97.132812 253.996094 C 97.132812 253.996094 97.132812 254 97.132812 254.003906 C 97.132812 254.007812 97.132812 254.011719 97.132812 254.011719 C 97.132812 261.058594 102.863281 266.792969 109.910156 266.792969 C 116.957031 266.792969 122.707031 261.058594 122.707031 254.011719 Z M 230.371094 212.695312 C 234.738281 212.695312 238.289062 209.140625 238.289062 204.777344 L 238.289062 148.269531 C 238.289062 130.21875 223.605469 115.535156 205.554688 115.535156 L 202.394531 115.535156 C 195.730469 120.652344 187.398438 123.703125 178.367188 123.703125 C 169.335938 123.703125 161.007812 120.652344 154.34375 115.539062 C 136.34375 115.582031 121.710938 130.25 121.710938 148.269531 L 121.710938 204.777344 C 121.710938 209.144531 125.261719 212.695312 129.628906 212.695312 C 133.992188 212.695312 137.546875 209.144531 137.546875 204.777344 C 137.546875 204.652344 137.558594 204.53125 137.5625 204.410156 C 137.554688 204.289062 137.546875 204.164062 137.546875 204.042969 L 137.546875 153.332031 C 137.546875 150.222656 140.066406 147.703125 143.171875 147.703125 C 146.28125 147.703125 148.800781 150.222656 148.800781 153.332031 L 148.800781 204.042969 C 148.800781 204.167969 148.789062 204.289062 148.78125 204.410156 C 148.789062 204.53125 148.800781 204.65625 148.800781 204.777344 L 148.800781 290.34375 C 148.800781 297.390625 154.539062 303.125 161.597656 303.125 C 168.652344 303.125 174.375 297.390625 174.375 290.34375 C 174.375 290.273438 174.382812 290.207031 174.386719 290.136719 C 174.382812 290.066406 174.375 289.996094 174.375 289.925781 L 174.375 238.957031 C 174.375 235.847656 176.894531 233.328125 180.003906 233.328125 C 183.109375 233.328125 185.628906 235.847656 185.628906 238.957031 L 185.628906 289.925781 C 185.628906 289.996094 185.621094 290.0625 185.617188 290.136719 C 185.621094 290.203125 185.628906 290.273438 185.628906 290.34375 C 185.628906 297.390625 191.359375 303.125 198.40625 303.125 C 205.453125 303.125 211.183594 297.390625 211.183594 290.34375 L 211.183594 204.796875 C 211.183594 204.667969 211.195312 204.542969 211.203125 204.417969 C 211.195312 204.292969 211.183594 204.167969 211.183594 204.039062 L 211.183594 153.328125 C 211.183594 150.222656 213.703125 147.703125 216.808594 147.703125 C 219.917969 147.703125 222.4375 150.222656 222.4375 153.328125 L 222.4375 204.039062 C 222.4375 204.167969 222.425781 204.292969 222.417969 204.421875 C 222.425781 204.539062 222.4375 204.660156 222.4375 204.78125 C 222.449219 209.144531 226.007812 212.695312 230.375 212.695312 Z M 230.371094 212.695312 " fill-opacity="1" fill-rule="nonzero"/></g></svg>