<svg xmlns="http://www.w3.org/2000/svg" xmlns:xlink="http://www.w3.org/1999/xlink" width="480" zoomAndPan="magnify" viewBox="0 0 360 367.91998" height="480" preserveAspectRatio="xMidYMid meet" version="1.0"><defs><clipPath id="070a0d9f2b"><path d="M 3.414062 1 L 356.585938 1 L 356.585938 219 L 3.414062 219 Z M 3.414062 1 " clip-rule="nonzero"/></clipPath><clipPath id="b79b035142"><path d="M 3.414062 141 L 356.585938 141 L 356.585938 359 L 3.414062 359 Z M 3.414062 141 " clip-rule="nonzero"/></clipPath></defs><g clip-path="url(#070a0d9f2b)"><path fill="#b99887" d="M 311.695312 54.605469 C 304.246094 46.632812 294.855469 36.566406 283.597656 24.460938 C 278.445312 18.921875 278.753906 10.253906 284.289062 5.09375 C 289.824219 -0.0625 298.488281 0.238281 303.652344 5.769531 L 352.664062 58.257812 L 352.707031 58.308594 L 353.074219 58.71875 L 353.253906 58.9375 L 353.324219 59.015625 L 353.375 59.082031 C 353.5625 59.324219 353.742188 59.5625 353.917969 59.808594 L 353.921875 59.816406 L 353.9375 59.84375 L 354.238281 60.292969 L 354.421875 60.597656 L 354.453125 60.652344 L 354.472656 60.6875 C 354.632812 60.957031 354.78125 61.234375 354.921875 61.511719 L 355.148438 61.984375 L 355.316406 62.378906 L 355.328125 62.410156 L 355.332031 62.421875 C 355.453125 62.714844 355.5625 63.007812 355.65625 63.304688 L 355.664062 63.324219 L 355.675781 63.355469 L 355.804688 63.765625 L 355.925781 64.226562 L 355.9375 64.257812 L 355.9375 64.269531 C 356.011719 64.5625 356.078125 64.855469 356.128906 65.148438 L 356.140625 65.207031 L 356.152344 65.292969 L 356.207031 65.597656 L 356.269531 66.125 L 356.277344 66.167969 L 356.277344 66.183594 C 356.308594 66.46875 356.328125 66.753906 356.335938 67.039062 L 356.34375 67.140625 L 356.34375 67.25 C 356.351562 67.535156 356.351562 67.816406 356.34375 68.101562 L 356.34375 68.117188 L 356.339844 68.175781 L 356.308594 68.714844 L 356.28125 68.980469 L 356.273438 69.09375 L 356.261719 69.175781 C 356.226562 69.464844 356.1875 69.75 356.136719 70.035156 L 356.132812 70.066406 L 356.117188 70.136719 L 356.03125 70.570312 L 355.933594 70.980469 L 355.921875 71.03125 L 355.910156 71.058594 C 355.832031 71.363281 355.746094 71.667969 355.640625 71.964844 L 355.636719 71.988281 L 355.621094 72.023438 C 355.417969 72.632812 355.167969 73.230469 354.871094 73.8125 L 354.855469 73.84375 L 354.835938 73.878906 C 354.558594 74.421875 354.242188 74.953125 353.882812 75.460938 L 353.824219 75.542969 L 353.773438 75.613281 C 353.605469 75.847656 353.429688 76.078125 353.246094 76.304688 L 353.230469 76.324219 L 353.164062 76.398438 L 352.828125 76.789062 L 303.714844 131.28125 C 298.652344 136.902344 289.976562 137.351562 284.355469 132.289062 C 278.734375 127.226562 278.285156 118.550781 283.351562 112.929688 L 311.191406 82.039062 L 310.167969 82.0625 C 310.050781 82.066406 309.933594 82.066406 309.816406 82.066406 C 309.816406 82.066406 181.210938 81.707031 95.429688 81.46875 C 61.183594 81.375 33.160156 108.714844 32.414062 142.953125 C 31.71875 174.875 31.0625 204.867188 31.0625 204.867188 C 30.898438 212.429688 24.625 218.4375 17.058594 218.269531 C 9.496094 218.105469 3.488281 211.832031 3.652344 204.269531 C 3.652344 204.269531 4.308594 174.277344 5.003906 142.355469 C 6.078125 93.179688 46.320312 53.914062 95.503906 54.050781 L 309.71875 54.648438 Z M 311.695312 54.605469 " fill-opacity="1" fill-rule="evenodd"/></g><g clip-path="url(#b79b035142)"><path fill="#b99887" d="M 48.308594 305.140625 C 55.757812 313.113281 65.144531 323.179688 76.40625 335.285156 C 81.558594 340.824219 81.25 349.492188 75.714844 354.648438 C 70.179688 359.808594 61.511719 359.503906 56.347656 353.976562 L 7.339844 301.488281 L 7.292969 301.4375 L 6.925781 301.027344 L 6.75 300.808594 L 6.679688 300.726562 L 6.628906 300.660156 C 6.4375 300.421875 6.257812 300.179688 6.085938 299.933594 L 6.082031 299.925781 L 6.0625 299.902344 L 5.765625 299.449219 L 5.582031 299.144531 L 5.546875 299.09375 L 5.527344 299.058594 C 5.367188 298.785156 5.21875 298.507812 5.078125 298.230469 L 4.851562 297.757812 L 4.6875 297.363281 L 4.675781 297.335938 L 4.667969 297.324219 C 4.550781 297.03125 4.441406 296.738281 4.34375 296.4375 L 4.339844 296.421875 L 4.328125 296.386719 L 4.199219 295.980469 L 4.074219 295.515625 L 4.066406 295.488281 L 4.0625 295.472656 C 3.988281 295.183594 3.925781 294.886719 3.871094 294.59375 L 3.863281 294.535156 L 3.847656 294.453125 L 3.796875 294.144531 L 3.734375 293.621094 L 3.726562 293.574219 L 3.722656 293.558594 C 3.695312 293.273438 3.671875 292.988281 3.664062 292.703125 L 3.65625 292.601562 L 3.65625 292.496094 C 3.648438 292.210938 3.648438 291.925781 3.65625 291.640625 L 3.65625 291.625 L 3.664062 291.570312 L 3.691406 291.027344 L 3.71875 290.765625 L 3.726562 290.652344 L 3.742188 290.566406 C 3.773438 290.28125 3.816406 289.996094 3.867188 289.710938 L 3.871094 289.675781 L 3.886719 289.609375 L 3.972656 289.171875 L 4.070312 288.765625 L 4.082031 288.710938 L 4.089844 288.683594 C 4.167969 288.378906 4.257812 288.078125 4.359375 287.777344 L 4.367188 287.753906 L 4.378906 287.722656 C 4.582031 287.113281 4.832031 286.515625 5.132812 285.933594 L 5.148438 285.898438 L 5.167969 285.867188 C 5.445312 285.320312 5.761719 284.792969 6.121094 284.285156 L 6.175781 284.199219 L 6.230469 284.132812 C 6.394531 283.898438 6.574219 283.664062 6.757812 283.4375 L 6.773438 283.417969 L 6.839844 283.34375 L 7.175781 282.953125 L 56.285156 228.460938 C 61.351562 222.839844 70.023438 222.390625 75.648438 227.453125 C 81.265625 232.519531 81.714844 241.195312 76.652344 246.816406 L 48.8125 277.707031 L 49.835938 277.679688 C 49.953125 277.679688 50.070312 277.679688 50.183594 277.679688 C 50.183594 277.679688 178.792969 278.035156 264.570312 278.277344 C 298.820312 278.371094 326.84375 251.03125 327.585938 216.789062 C 328.285156 184.871094 328.9375 154.878906 328.9375 154.878906 C 329.101562 147.3125 335.378906 141.304688 342.941406 141.472656 C 350.507812 141.636719 356.511719 147.914062 356.347656 155.476562 C 356.347656 155.476562 355.695312 185.46875 354.996094 217.390625 C 353.925781 266.5625 313.683594 305.828125 264.496094 305.691406 L 50.285156 305.09375 Z M 48.308594 305.140625 " fill-opacity="1" fill-rule="evenodd"/></g></svg>